<svg width="103" height="89" viewBox="0 0 103 89" fill="none" xmlns="http://www.w3.org/2000/svg">
<path d="M4.05693 88.4751C3.86014 88.6688 3.54356 88.6663 3.34984 88.4695L0.192918 85.2627C-0.000806032 85.0659 0.00167966 84.7493 0.198468 84.5556C0.395257 84.3619 0.71183 84.3644 0.905554 84.5611L3.7117 87.4117L6.56223 84.6055C6.75902 84.4118 7.07559 84.4143 7.26932 84.6111C7.46304 84.8079 7.46056 85.1244 7.26377 85.3182L4.05693 88.4751ZM102.185 1.23056C55.9188 1.59487 4.63196 33.8465 4.20614 88.1227L3.20617 88.1148C3.63782 33.0954 55.5857 0.597463 102.177 0.230593L102.185 1.23056Z" fill="#676767"/>
</svg>
