<svg width="103" height="89" viewBox="0 0 103 89" fill="none" xmlns="http://www.w3.org/2000/svg">
<path d="M98.7858 88.4751C98.9826 88.6688 99.2992 88.6663 99.4929 88.4695L102.65 85.2627C102.844 85.0659 102.841 84.7493 102.644 84.5556C102.448 84.3619 102.131 84.3644 101.937 84.5611L99.1311 87.4117L96.2805 84.6055C96.0838 84.4118 95.7672 84.4143 95.5735 84.6111C95.3797 84.8079 95.3822 85.1244 95.579 85.3182L98.7858 88.4751ZM0.658231 1.23056C46.924 1.59487 98.2108 33.8465 98.6366 88.1227L99.6366 88.1148C99.2049 33.0954 47.2571 0.597463 0.666102 0.230593L0.658231 1.23056Z" fill="#676767"/>
</svg>
