<svg width="290" height="286" viewBox="0 0 290 286" fill="none" xmlns="http://www.w3.org/2000/svg">
<path fill-rule="evenodd" clip-rule="evenodd" d="M35 4C39.2858 15.5823 48.4177 24.7142 60 29C48.4177 33.2858 39.2858 42.4177 35 54C30.7142 42.4177 21.5823 33.2858 10 29C21.5823 24.7142 30.7142 15.5823 35 4ZM110 29C98.4177 33.2858 89.2858 42.4177 85 54C80.7142 42.4177 71.5823 33.2858 60 29C71.5823 24.7142 80.7142 15.5823 85 4C89.2858 15.5823 98.4177 24.7142 110 29ZM110 29C121.582 24.7142 130.714 15.5823 135 4C139.286 15.5823 148.418 24.7142 160 29C148.418 33.2858 139.286 42.4177 135 54C130.714 42.4177 121.582 33.2858 110 29Z" fill="#236967"/>
<circle cx="281" cy="124" r="7" transform="rotate(-180 281 124)" fill="#038192"/>
<circle cx="286" cy="166" r="4" transform="rotate(-180 286 166)" fill="#FC8B4C"/>
<circle cx="55" cy="259" r="5" fill="#FDD503"/>
<circle cx="32" cy="246" r="2" fill="#236967"/>
<circle cx="2" cy="79" r="2" fill="#FDD503"/>
<circle cx="182" cy="2" r="2" fill="#FDD503"/>
<circle cx="30" cy="166" r="30" fill="#038192"/>
<path d="M277 246C277 238.089 274.654 230.355 270.259 223.777C265.864 217.199 259.616 212.072 252.307 209.045C244.998 206.017 236.956 205.225 229.196 206.769C221.437 208.312 214.31 212.122 208.716 217.716C203.122 223.31 199.312 230.437 197.769 238.196C196.225 245.956 197.017 253.998 200.045 261.307C203.072 268.616 208.199 274.864 214.777 279.259C221.355 283.654 229.089 286 237 286V246H277Z" fill="#FE7167"/>
<circle cx="257" cy="266" r="19.9998" transform="rotate(90 257 266)" fill="#FE7167"/>
<path d="M277 266.001C277 260.696 274.893 255.609 271.142 251.859C267.391 248.108 262.304 246.001 257 246.001C251.696 246.001 246.609 248.108 242.858 251.859C239.107 255.609 237 260.696 237 266.001L257 266.001L277 266.001Z" fill="#FDD503"/>
<path fill-rule="evenodd" clip-rule="evenodd" d="M255.667 54H248.333V40.8519L239.037 50.1488L233.851 44.9634L243.148 35.6669H230V28.3336H243.148L233.851 19.0361L239.036 13.8506L248.333 23.1478V10H255.667V23.1477L264.964 13.8506L270.149 19.0361L260.852 28.3336H274V35.6669H260.852L270.149 44.9634L264.963 50.1488L255.667 40.852V54Z" fill="#FC8B4C"/>
</svg>
