<svg width="353" height="300" viewBox="0 0 353 300" fill="none" xmlns="http://www.w3.org/2000/svg">
<path d="M48 52C48 46.0905 49.164 40.2389 51.4254 34.7792C53.6869 29.3196 57.0016 24.3588 61.1802 20.1802C65.3588 16.0016 70.3196 12.6869 75.7792 10.4254C81.2389 8.16396 87.0905 7 93 7L93 52H48Z" fill="#236967"/>
<path d="M58 57C58 51.7471 59.0346 46.5457 61.0448 41.6927C63.055 36.8396 66.0014 32.4301 69.7157 28.7157C73.4301 25.0014 77.8396 22.055 82.6927 20.0448C87.5457 18.0346 92.7471 17 98 17V57H58Z" fill="#FDD503"/>
<path d="M300 260C300 265.253 298.965 270.454 296.955 275.307C294.945 280.16 291.999 284.57 288.284 288.284C284.57 291.999 280.16 294.945 275.307 296.955C270.454 298.965 265.253 300 260 300V260H300Z" fill="#236967"/>
<circle cx="276.5" cy="255.5" r="12.5" fill="#FC8B4C"/>
<circle cx="333" cy="117" r="17.5" stroke="#038192" stroke-width="5"/>
<circle cx="27" cy="275" r="7" fill="#038192"/>
<circle cx="4" cy="239" r="4" fill="#FE7167"/>
<circle cx="212" cy="17" r="5" fill="#FC8B4C"/>
<circle cx="198" cy="2" r="2" fill="#038192"/>
<circle cx="313" cy="193" r="5" fill="#FDD503"/>
<circle cx="37" cy="33" r="3" fill="#FDD503"/>
<path d="M353 97C353 89.0887 350.654 81.3552 346.259 74.7772C341.864 68.1992 335.616 63.0723 328.307 60.0448C320.998 57.0173 312.956 56.2252 305.196 57.7686C297.437 59.312 290.31 63.1216 284.716 68.7157C279.122 74.3098 275.312 81.4371 273.769 89.1964C272.225 96.9556 273.017 104.998 276.045 112.307C279.072 119.616 284.199 125.864 290.777 130.259C297.355 134.654 305.089 137 313 137V97H353Z" fill="#FE7167"/>
</svg>
