<svg width="345" height="285" viewBox="0 0 345 285" fill="none" xmlns="http://www.w3.org/2000/svg">
<path fill-rule="evenodd" clip-rule="evenodd" d="M324.166 35H315.833V49.9407L305.269 39.3762L299.376 45.2688L309.94 55.8332H295V64.1665H309.941L299.376 74.7316L304.645 80.0001L299.376 85.2688L309.94 95.8332H295V104.167H309.941L299.376 114.732L304.645 120L299.376 125.269L309.94 135.833H295V144.167H309.941L299.376 154.732L305.269 160.624L315.833 150.06V165H324.166V150.059L334.731 160.624L340.624 154.732L330.059 144.167H345V135.833H330.06L340.624 125.269L335.355 120L340.624 114.732L330.059 104.167H345V95.8332H330.06L340.624 85.2688L335.355 80.0001L340.624 74.7316L330.059 64.1665H345V55.8332H330.06L340.624 45.2688L334.731 39.3762L324.166 49.9414V35ZM334.107 120L324.166 110.059V115V125V129.941L334.107 120ZM315.833 115V110.06L305.893 120L315.833 129.941V125V115ZM315.833 89.9407L305.893 80.0003L315.833 70.0598V75V85V89.9407ZM324.166 85V75V70.0592L334.107 80.0003L324.166 89.9414V85Z" fill="#038192"/>
<rect y="235" width="107" height="50" rx="25" fill="#FE7167"/>
<rect x="2.5" y="187.5" width="102" height="45" rx="22.5" stroke="#FFCC1A" stroke-width="5"/>
<rect x="107" y="185" width="50" height="50" rx="25" fill="#FFCC1A"/>
<path d="M107 260C107 263.283 107.647 266.534 108.903 269.567C110.159 272.6 112.001 275.356 114.322 277.678C116.644 279.999 119.4 281.841 122.433 283.097C125.466 284.353 128.717 285 132 285C135.283 285 138.534 284.353 141.567 283.097C144.6 281.841 147.356 279.999 149.678 277.678C151.999 275.356 153.841 272.6 155.097 269.567C156.353 266.534 157 263.283 157 260L141.201 260C141.201 261.208 140.963 262.405 140.5 263.521C140.038 264.637 139.36 265.652 138.506 266.506C137.652 267.36 136.637 268.038 135.521 268.5C134.405 268.963 133.208 269.201 132 269.201C130.792 269.201 129.595 268.963 128.479 268.5C127.363 268.038 126.348 267.36 125.494 266.506C124.64 265.652 123.962 264.637 123.5 263.521C123.037 262.405 122.799 261.208 122.799 260H107Z" fill="#038192"/>
<path d="M322 242C322 234.089 319.654 226.355 315.259 219.777C310.864 213.199 304.616 208.072 297.307 205.045C289.998 202.017 281.956 201.225 274.196 202.769C266.437 204.312 259.31 208.122 253.716 213.716C248.122 219.31 244.312 226.437 242.769 234.196C241.225 241.956 242.017 249.998 245.045 257.307C248.072 264.616 253.199 270.864 259.777 275.259C266.355 279.654 274.089 282 282 282V242H322Z" fill="#FFCC1A"/>
<circle cx="24.5" cy="54.5" r="24.5" transform="rotate(-90 24.5 54.5)" fill="#FC8B4C"/>
<circle cx="54" cy="18" r="5" fill="#236967"/>
<circle cx="90.5" cy="21.5" r="3.5" fill="#FFCC1A"/>
<circle cx="109" cy="2" r="2" fill="#038192"/>
</svg>
