<svg width="44" height="44" viewBox="0 0 44 44" fill="none" xmlns="http://www.w3.org/2000/svg">
<path d="M26.6665 16.6667H27.9998M17.9998 12.6667H25.9998C28.9454 12.6667 31.3332 15.0546 31.3332 18.0001V26.0001C31.3332 28.9456 28.9454 31.3334 25.9998 31.3334H17.9998C15.0543 31.3334 12.6665 28.9456 12.6665 26.0001V18.0001C12.6665 15.0546 15.0543 12.6667 17.9998 12.6667ZM21.9998 26.0001C19.7907 26.0001 17.9998 24.2092 17.9998 22.0001C17.9998 19.7909 19.7907 18.0001 21.9998 18.0001C24.209 18.0001 25.9998 19.7909 25.9998 22.0001C25.9998 24.2092 24.209 26.0001 21.9998 26.0001Z" stroke="black"/>
</svg>
