<svg width="44" height="44" viewBox="0 0 44 44" fill="none" xmlns="http://www.w3.org/2000/svg">
<path d="M25.7079 12.6665H28.6668C30.1396 12.6665 31.3335 13.8604 31.3335 15.3332V17.9998C31.3335 25.3636 25.364 31.3332 18.0002 31.3332H15.3335C13.8607 31.3332 12.6668 30.1393 12.6668 28.6665V26.8239C12.6668 26.3189 12.9522 25.8572 13.4039 25.6313L16.6251 24.0207C17.3509 23.6578 18.2297 24.0219 18.4863 24.7916L18.8833 25.9827C19.1405 26.7542 19.9319 27.2135 20.7294 27.054C23.9211 26.4156 26.416 23.9208 27.0543 20.7291C27.2138 19.9316 26.7545 19.1402 25.983 18.883L24.5048 18.3903C23.8439 18.17 23.464 17.4779 23.633 16.802L24.4143 13.6765C24.5627 13.0829 25.096 12.6665 25.7079 12.6665Z" stroke="black"/>
</svg>
