<svg width="44" height="44" viewBox="0 0 44 44" fill="none" xmlns="http://www.w3.org/2000/svg">
<mask id="path-1-outside-1" maskUnits="userSpaceOnUse" x="15" y="18.3508" width="13" height="8" fill="black">
<rect fill="white" x="15" y="18.3508" width="13" height="8"/>
<path d="M26.5112 24.1808C26.272 23.8992 26.0016 23.6479 25.7402 23.4047C25.6483 23.3193 25.5533 23.2309 25.4618 23.1432C25.4617 23.1432 25.4617 23.1432 25.4617 23.1431C25.3386 23.0252 25.2783 22.9416 25.272 22.8798C25.2658 22.819 25.3081 22.7289 25.4054 22.5957C25.5508 22.3953 25.7058 22.1945 25.8558 22.0004C25.9891 21.8279 26.1269 21.6494 26.259 21.47L26.2886 21.4297C26.5463 21.0795 26.8128 20.7174 26.9555 20.2761C26.9963 20.1496 27.0387 19.9624 26.9365 19.798C26.8343 19.6336 26.6449 19.5849 26.5114 19.5625C26.4462 19.5516 26.3843 19.5507 26.3268 19.5507L24.6551 19.5492C24.3661 19.5445 24.1656 19.679 24.0564 19.9491C23.9689 20.1648 23.8657 20.4148 23.746 20.6519C23.5171 21.1097 23.2262 21.637 22.8046 22.0763L22.7859 22.0959C22.7572 22.126 22.7103 22.1751 22.6862 22.1864C22.6405 22.1582 22.5878 21.9971 22.5902 21.9126C22.5903 21.9105 22.5903 21.9085 22.5903 21.9064L22.5888 20.01C22.5888 20.0004 22.5881 19.9907 22.5868 19.9812C22.5493 19.7106 22.4762 19.4394 22.0401 19.3549C22.0261 19.3522 22.0119 19.3508 21.9977 19.3508H20.2588C19.9317 19.3508 19.7586 19.4979 19.6199 19.6574C19.5798 19.7039 19.4731 19.8273 19.5274 19.9782C19.5824 20.1309 19.7463 20.1614 19.8001 20.1714C19.9896 20.2067 20.0876 20.3119 20.1179 20.5129C20.1779 20.9035 20.1852 21.3213 20.1411 21.8272C20.1288 21.963 20.1059 22.0663 20.0689 22.1521C20.0587 22.1759 20.0497 22.1906 20.0434 22.1993C20.0334 22.1953 20.0179 22.1877 19.9963 22.1732C19.8631 22.0838 19.7628 21.9447 19.6657 21.8103C19.2781 21.2729 18.9521 20.6795 18.6688 19.9957C18.5522 19.7155 18.3329 19.559 18.0518 19.555C17.5162 19.5462 17.0209 19.5465 16.538 19.5557C16.3103 19.5596 16.1506 19.6299 16.0633 19.7649C15.9758 19.9002 15.979 20.0726 16.0728 20.2775C16.743 21.7408 17.3516 22.8052 18.046 23.729C18.5349 24.3794 19.0271 24.8308 19.5948 25.1498C20.1914 25.4849 20.8641 25.6491 21.6446 25.649C21.7334 25.649 21.8237 25.6469 21.9152 25.6426C22.3967 25.6211 22.5926 25.433 22.614 24.9726C22.626 24.7292 22.6536 24.5321 22.7493 24.3608C22.776 24.3129 22.8063 24.2807 22.8301 24.2748C22.8554 24.2686 22.9002 24.2838 22.9502 24.3157C23.0414 24.3738 23.12 24.4527 23.1846 24.522C23.2501 24.5924 23.3162 24.6651 23.3803 24.7354C23.5166 24.8851 23.6575 25.0399 23.8051 25.1876C24.139 25.5218 24.524 25.675 24.9498 25.6429L26.4796 25.6436C26.4796 25.6436 26.4796 25.6436 26.4796 25.6436C26.4845 25.6436 26.4894 25.6435 26.4942 25.6432C26.6707 25.6316 26.8232 25.5357 26.9128 25.38C27.0207 25.1924 27.0191 24.9548 26.9084 24.7442C26.7929 24.5252 26.643 24.3367 26.5112 24.1808ZM26.5312 25.1684C26.5101 25.2051 26.4841 25.2118 26.4707 25.2134L24.9412 25.2127C24.9412 25.2127 24.9411 25.2127 24.9411 25.2127C24.935 25.2127 24.929 25.2129 24.923 25.2134C24.6217 25.2381 24.3656 25.1341 24.1179 24.8862C23.9774 24.7457 23.8399 24.5947 23.707 24.4487C23.6422 24.3776 23.5753 24.304 23.508 24.2316C23.4245 24.1422 23.3214 24.0393 23.1888 23.9548C22.9904 23.8284 22.826 23.8322 22.723 23.8577C22.6211 23.8829 22.4763 23.9548 22.3651 24.154C22.221 24.4118 22.1893 24.6898 22.1763 24.9525C22.1689 25.1132 22.1412 25.1556 22.1296 25.1664C22.1145 25.1805 22.0639 25.2054 21.895 25.2129C21.0834 25.2504 20.4023 25.1077 19.8125 24.7764C19.2994 24.4881 18.8501 24.0741 18.3986 23.4736C17.7234 22.5754 17.1294 21.5353 16.4725 20.1012C16.4487 20.0492 16.4414 20.0168 16.4392 19.9994C16.456 19.994 16.4887 19.9869 16.5461 19.9859C17.0241 19.9768 17.5143 19.9765 18.045 19.9852C18.1177 19.9863 18.2004 20.0077 18.263 20.1582C18.559 20.8726 18.9008 21.4944 19.3082 22.059C19.4163 22.2089 19.5509 22.3954 19.7488 22.5283C19.93 22.6502 20.0771 22.6444 20.1685 22.618C20.2601 22.5917 20.3871 22.5185 20.4726 22.3196C20.5278 22.1914 20.5612 22.0471 20.5777 21.8647C20.6249 21.3236 20.6165 20.8737 20.5514 20.4494C20.5055 20.1453 20.3456 19.9257 20.0937 19.8135C20.1385 19.7907 20.1889 19.7811 20.2589 19.7811H21.975C22.0715 19.8024 22.0907 19.8274 22.0972 19.8359C22.125 19.8722 22.1409 19.9581 22.1506 20.0252L22.1521 21.9041C22.1482 22.0842 22.2374 22.4837 22.5409 22.5932C22.5434 22.5942 22.5459 22.595 22.5485 22.5958C22.8248 22.6845 23.0076 22.4929 23.1058 22.39L23.1233 22.3717C23.5851 21.8905 23.8961 21.3282 24.1391 20.8423C24.2657 20.5914 24.3729 20.3318 24.4636 20.1081C24.509 19.9959 24.5503 19.9774 24.6488 19.9795C24.6502 19.9795 24.6515 19.9795 24.6529 19.9795L26.3266 19.981C26.3656 19.981 26.4062 19.9814 26.4377 19.9867C26.5175 20 26.5503 20.0163 26.5611 20.023C26.5622 20.0355 26.562 20.0713 26.5379 20.1462C26.4165 20.5214 26.1818 20.8402 25.9335 21.1778L25.9038 21.2181C25.7747 21.3935 25.6385 21.5699 25.5067 21.7405C25.3548 21.9371 25.1978 22.1404 25.0489 22.3455C24.7307 22.7815 24.7586 23.0709 25.1558 23.4512C25.2497 23.5412 25.3459 23.6307 25.439 23.7172C25.7028 23.9626 25.952 24.1943 26.1745 24.456C26.2909 24.5938 26.4229 24.7594 26.5191 24.9418C26.5693 25.0373 26.557 25.1236 26.5312 25.1684Z"/>
</mask>
<path d="M26.5112 24.1808C26.272 23.8992 26.0016 23.6479 25.7402 23.4047C25.6483 23.3193 25.5533 23.2309 25.4618 23.1432C25.4617 23.1432 25.4617 23.1432 25.4617 23.1431C25.3386 23.0252 25.2783 22.9416 25.272 22.8798C25.2658 22.819 25.3081 22.7289 25.4054 22.5957C25.5508 22.3953 25.7058 22.1945 25.8558 22.0004C25.9891 21.8279 26.1269 21.6494 26.259 21.47L26.2886 21.4297C26.5463 21.0795 26.8128 20.7174 26.9555 20.2761C26.9963 20.1496 27.0387 19.9624 26.9365 19.798C26.8343 19.6336 26.6449 19.5849 26.5114 19.5625C26.4462 19.5516 26.3843 19.5507 26.3268 19.5507L24.6551 19.5492C24.3661 19.5445 24.1656 19.679 24.0564 19.9491C23.9689 20.1648 23.8657 20.4148 23.746 20.6519C23.5171 21.1097 23.2262 21.637 22.8046 22.0763L22.7859 22.0959C22.7572 22.126 22.7103 22.1751 22.6862 22.1864C22.6405 22.1582 22.5878 21.9971 22.5902 21.9126C22.5903 21.9105 22.5903 21.9085 22.5903 21.9064L22.5888 20.01C22.5888 20.0004 22.5881 19.9907 22.5868 19.9812C22.5493 19.7106 22.4762 19.4394 22.0401 19.3549C22.0261 19.3522 22.0119 19.3508 21.9977 19.3508H20.2588C19.9317 19.3508 19.7586 19.4979 19.6199 19.6574C19.5798 19.7039 19.4731 19.8273 19.5274 19.9782C19.5824 20.1309 19.7463 20.1614 19.8001 20.1714C19.9896 20.2067 20.0876 20.3119 20.1179 20.5129C20.1779 20.9035 20.1852 21.3213 20.1411 21.8272C20.1288 21.963 20.1059 22.0663 20.0689 22.1521C20.0587 22.1759 20.0497 22.1906 20.0434 22.1993C20.0334 22.1953 20.0179 22.1877 19.9963 22.1732C19.8631 22.0838 19.7628 21.9447 19.6657 21.8103C19.2781 21.2729 18.9521 20.6795 18.6688 19.9957C18.5522 19.7155 18.3329 19.559 18.0518 19.555C17.5162 19.5462 17.0209 19.5465 16.538 19.5557C16.3103 19.5596 16.1506 19.6299 16.0633 19.7649C15.9758 19.9002 15.979 20.0726 16.0728 20.2775C16.743 21.7408 17.3516 22.8052 18.046 23.729C18.5349 24.3794 19.0271 24.8308 19.5948 25.1498C20.1914 25.4849 20.8641 25.6491 21.6446 25.649C21.7334 25.649 21.8237 25.6469 21.9152 25.6426C22.3967 25.6211 22.5926 25.433 22.614 24.9726C22.626 24.7292 22.6536 24.5321 22.7493 24.3608C22.776 24.3129 22.8063 24.2807 22.8301 24.2748C22.8554 24.2686 22.9002 24.2838 22.9502 24.3157C23.0414 24.3738 23.12 24.4527 23.1846 24.522C23.2501 24.5924 23.3162 24.6651 23.3803 24.7354C23.5166 24.8851 23.6575 25.0399 23.8051 25.1876C24.139 25.5218 24.524 25.675 24.9498 25.6429L26.4796 25.6436C26.4796 25.6436 26.4796 25.6436 26.4796 25.6436C26.4845 25.6436 26.4894 25.6435 26.4942 25.6432C26.6707 25.6316 26.8232 25.5357 26.9128 25.38C27.0207 25.1924 27.0191 24.9548 26.9084 24.7442C26.7929 24.5252 26.643 24.3367 26.5112 24.1808ZM26.5312 25.1684C26.5101 25.2051 26.4841 25.2118 26.4707 25.2134L24.9412 25.2127C24.9412 25.2127 24.9411 25.2127 24.9411 25.2127C24.935 25.2127 24.929 25.2129 24.923 25.2134C24.6217 25.2381 24.3656 25.1341 24.1179 24.8862C23.9774 24.7457 23.8399 24.5947 23.707 24.4487C23.6422 24.3776 23.5753 24.304 23.508 24.2316C23.4245 24.1422 23.3214 24.0393 23.1888 23.9548C22.9904 23.8284 22.826 23.8322 22.723 23.8577C22.6211 23.8829 22.4763 23.9548 22.3651 24.154C22.221 24.4118 22.1893 24.6898 22.1763 24.9525C22.1689 25.1132 22.1412 25.1556 22.1296 25.1664C22.1145 25.1805 22.0639 25.2054 21.895 25.2129C21.0834 25.2504 20.4023 25.1077 19.8125 24.7764C19.2994 24.4881 18.8501 24.0741 18.3986 23.4736C17.7234 22.5754 17.1294 21.5353 16.4725 20.1012C16.4487 20.0492 16.4414 20.0168 16.4392 19.9994C16.456 19.994 16.4887 19.9869 16.5461 19.9859C17.0241 19.9768 17.5143 19.9765 18.045 19.9852C18.1177 19.9863 18.2004 20.0077 18.263 20.1582C18.559 20.8726 18.9008 21.4944 19.3082 22.059C19.4163 22.2089 19.5509 22.3954 19.7488 22.5283C19.93 22.6502 20.0771 22.6444 20.1685 22.618C20.2601 22.5917 20.3871 22.5185 20.4726 22.3196C20.5278 22.1914 20.5612 22.0471 20.5777 21.8647C20.6249 21.3236 20.6165 20.8737 20.5514 20.4494C20.5055 20.1453 20.3456 19.9257 20.0937 19.8135C20.1385 19.7907 20.1889 19.7811 20.2589 19.7811H21.975C22.0715 19.8024 22.0907 19.8274 22.0972 19.8359C22.125 19.8722 22.1409 19.9581 22.1506 20.0252L22.1521 21.9041C22.1482 22.0842 22.2374 22.4837 22.5409 22.5932C22.5434 22.5942 22.5459 22.595 22.5485 22.5958C22.8248 22.6845 23.0076 22.4929 23.1058 22.39L23.1233 22.3717C23.5851 21.8905 23.8961 21.3282 24.1391 20.8423C24.2657 20.5914 24.3729 20.3318 24.4636 20.1081C24.509 19.9959 24.5503 19.9774 24.6488 19.9795C24.6502 19.9795 24.6515 19.9795 24.6529 19.9795L26.3266 19.981C26.3656 19.981 26.4062 19.9814 26.4377 19.9867C26.5175 20 26.5503 20.0163 26.5611 20.023C26.5622 20.0355 26.562 20.0713 26.5379 20.1462C26.4165 20.5214 26.1818 20.8402 25.9335 21.1778L25.9038 21.2181C25.7747 21.3935 25.6385 21.5699 25.5067 21.7405C25.3548 21.9371 25.1978 22.1404 25.0489 22.3455C24.7307 22.7815 24.7586 23.0709 25.1558 23.4512C25.2497 23.5412 25.3459 23.6307 25.439 23.7172C25.7028 23.9626 25.952 24.1943 26.1745 24.456C26.2909 24.5938 26.4229 24.7594 26.5191 24.9418C26.5693 25.0373 26.557 25.1236 26.5312 25.1684Z" fill="black"/>
<path d="M26.5112 24.1808C26.272 23.8992 26.0016 23.6479 25.7402 23.4047C25.6483 23.3193 25.5533 23.2309 25.4618 23.1432C25.4617 23.1432 25.4617 23.1432 25.4617 23.1431C25.3386 23.0252 25.2783 22.9416 25.272 22.8798C25.2658 22.819 25.3081 22.7289 25.4054 22.5957C25.5508 22.3953 25.7058 22.1945 25.8558 22.0004C25.9891 21.8279 26.1269 21.6494 26.259 21.47L26.2886 21.4297C26.5463 21.0795 26.8128 20.7174 26.9555 20.2761C26.9963 20.1496 27.0387 19.9624 26.9365 19.798C26.8343 19.6336 26.6449 19.5849 26.5114 19.5625C26.4462 19.5516 26.3843 19.5507 26.3268 19.5507L24.6551 19.5492C24.3661 19.5445 24.1656 19.679 24.0564 19.9491C23.9689 20.1648 23.8657 20.4148 23.746 20.6519C23.5171 21.1097 23.2262 21.637 22.8046 22.0763L22.7859 22.0959C22.7572 22.126 22.7103 22.1751 22.6862 22.1864C22.6405 22.1582 22.5878 21.9971 22.5902 21.9126C22.5903 21.9105 22.5903 21.9085 22.5903 21.9064L22.5888 20.01C22.5888 20.0004 22.5881 19.9907 22.5868 19.9812C22.5493 19.7106 22.4762 19.4394 22.0401 19.3549C22.0261 19.3522 22.0119 19.3508 21.9977 19.3508H20.2588C19.9317 19.3508 19.7586 19.4979 19.6199 19.6574C19.5798 19.7039 19.4731 19.8273 19.5274 19.9782C19.5824 20.1309 19.7463 20.1614 19.8001 20.1714C19.9896 20.2067 20.0876 20.3119 20.1179 20.5129C20.1779 20.9035 20.1852 21.3213 20.1411 21.8272C20.1288 21.963 20.1059 22.0663 20.0689 22.1521C20.0587 22.1759 20.0497 22.1906 20.0434 22.1993C20.0334 22.1953 20.0179 22.1877 19.9963 22.1732C19.8631 22.0838 19.7628 21.9447 19.6657 21.8103C19.2781 21.2729 18.9521 20.6795 18.6688 19.9957C18.5522 19.7155 18.3329 19.559 18.0518 19.555C17.5162 19.5462 17.0209 19.5465 16.538 19.5557C16.3103 19.5596 16.1506 19.6299 16.0633 19.7649C15.9758 19.9002 15.979 20.0726 16.0728 20.2775C16.743 21.7408 17.3516 22.8052 18.046 23.729C18.5349 24.3794 19.0271 24.8308 19.5948 25.1498C20.1914 25.4849 20.8641 25.6491 21.6446 25.649C21.7334 25.649 21.8237 25.6469 21.9152 25.6426C22.3967 25.6211 22.5926 25.433 22.614 24.9726C22.626 24.7292 22.6536 24.5321 22.7493 24.3608C22.776 24.3129 22.8063 24.2807 22.8301 24.2748C22.8554 24.2686 22.9002 24.2838 22.9502 24.3157C23.0414 24.3738 23.12 24.4527 23.1846 24.522C23.2501 24.5924 23.3162 24.6651 23.3803 24.7354C23.5166 24.8851 23.6575 25.0399 23.8051 25.1876C24.139 25.5218 24.524 25.675 24.9498 25.6429L26.4796 25.6436C26.4796 25.6436 26.4796 25.6436 26.4796 25.6436C26.4845 25.6436 26.4894 25.6435 26.4942 25.6432C26.6707 25.6316 26.8232 25.5357 26.9128 25.38C27.0207 25.1924 27.0191 24.9548 26.9084 24.7442C26.7929 24.5252 26.643 24.3367 26.5112 24.1808ZM26.5312 25.1684C26.5101 25.2051 26.4841 25.2118 26.4707 25.2134L24.9412 25.2127C24.9412 25.2127 24.9411 25.2127 24.9411 25.2127C24.935 25.2127 24.929 25.2129 24.923 25.2134C24.6217 25.2381 24.3656 25.1341 24.1179 24.8862C23.9774 24.7457 23.8399 24.5947 23.707 24.4487C23.6422 24.3776 23.5753 24.304 23.508 24.2316C23.4245 24.1422 23.3214 24.0393 23.1888 23.9548C22.9904 23.8284 22.826 23.8322 22.723 23.8577C22.6211 23.8829 22.4763 23.9548 22.3651 24.154C22.221 24.4118 22.1893 24.6898 22.1763 24.9525C22.1689 25.1132 22.1412 25.1556 22.1296 25.1664C22.1145 25.1805 22.0639 25.2054 21.895 25.2129C21.0834 25.2504 20.4023 25.1077 19.8125 24.7764C19.2994 24.4881 18.8501 24.0741 18.3986 23.4736C17.7234 22.5754 17.1294 21.5353 16.4725 20.1012C16.4487 20.0492 16.4414 20.0168 16.4392 19.9994C16.456 19.994 16.4887 19.9869 16.5461 19.9859C17.0241 19.9768 17.5143 19.9765 18.045 19.9852C18.1177 19.9863 18.2004 20.0077 18.263 20.1582C18.559 20.8726 18.9008 21.4944 19.3082 22.059C19.4163 22.2089 19.5509 22.3954 19.7488 22.5283C19.93 22.6502 20.0771 22.6444 20.1685 22.618C20.2601 22.5917 20.3871 22.5185 20.4726 22.3196C20.5278 22.1914 20.5612 22.0471 20.5777 21.8647C20.6249 21.3236 20.6165 20.8737 20.5514 20.4494C20.5055 20.1453 20.3456 19.9257 20.0937 19.8135C20.1385 19.7907 20.1889 19.7811 20.2589 19.7811H21.975C22.0715 19.8024 22.0907 19.8274 22.0972 19.8359C22.125 19.8722 22.1409 19.9581 22.1506 20.0252L22.1521 21.9041C22.1482 22.0842 22.2374 22.4837 22.5409 22.5932C22.5434 22.5942 22.5459 22.595 22.5485 22.5958C22.8248 22.6845 23.0076 22.4929 23.1058 22.39L23.1233 22.3717C23.5851 21.8905 23.8961 21.3282 24.1391 20.8423C24.2657 20.5914 24.3729 20.3318 24.4636 20.1081C24.509 19.9959 24.5503 19.9774 24.6488 19.9795C24.6502 19.9795 24.6515 19.9795 24.6529 19.9795L26.3266 19.981C26.3656 19.981 26.4062 19.9814 26.4377 19.9867C26.5175 20 26.5503 20.0163 26.5611 20.023C26.5622 20.0355 26.562 20.0713 26.5379 20.1462C26.4165 20.5214 26.1818 20.8402 25.9335 21.1778L25.9038 21.2181C25.7747 21.3935 25.6385 21.5699 25.5067 21.7405C25.3548 21.9371 25.1978 22.1404 25.0489 22.3455C24.7307 22.7815 24.7586 23.0709 25.1558 23.4512C25.2497 23.5412 25.3459 23.6307 25.439 23.7172C25.7028 23.9626 25.952 24.1943 26.1745 24.456C26.2909 24.5938 26.4229 24.7594 26.5191 24.9418C26.5693 25.0373 26.557 25.1236 26.5312 25.1684Z" stroke="black" stroke-width="0.4" mask="url(#path-1-outside-1)"/>
<circle cx="22" cy="22" r="9.5" stroke="black"/>
</svg>
