<svg width="44" height="44" viewBox="0 0 44 44" fill="none" xmlns="http://www.w3.org/2000/svg">
<path d="M14.5329 27.6006L14.9801 27.8242L15.1184 27.5476L14.9327 27.3003L14.5329 27.6006ZM16.3993 29.467L16.6996 29.0673L16.4523 28.8815L16.1757 29.0198L16.3993 29.467ZM12.6665 31.3334L12.2193 31.1098C12.123 31.3023 12.1608 31.5348 12.313 31.687C12.4651 31.8391 12.6976 31.8769 12.8901 31.7806L12.6665 31.3334ZM17.9998 18.0001L17.7225 17.5841C17.5834 17.6768 17.4998 17.8329 17.4998 18.0001H17.9998ZM25.9998 26.0001V26.5001C26.167 26.5001 26.3231 26.4165 26.4159 26.2774L25.9998 26.0001ZM20.3388 18.7008L20.832 18.6186L20.3388 18.7008ZM20.5248 19.8164L20.0316 19.8986L20.5248 19.8164ZM19.9492 21.145L20.2265 21.561L19.9492 21.145ZM25.2991 23.6611L25.3813 23.1679H25.3813L25.2991 23.6611ZM24.1836 23.4751L24.1014 23.9683V23.9683L24.1836 23.4751ZM22.855 24.0507L22.4389 23.7734L22.855 24.0507ZM12.1665 22.0001C12.1665 24.2135 12.8984 26.2573 14.1331 27.9009L14.9327 27.3003C13.8235 25.8239 13.1665 23.9895 13.1665 22.0001H12.1665ZM21.9998 12.1667C16.569 12.1667 12.1665 16.5693 12.1665 22.0001H13.1665C13.1665 17.1216 17.1213 13.1667 21.9998 13.1667V12.1667ZM31.8332 22.0001C31.8332 16.5693 27.4306 12.1667 21.9998 12.1667V13.1667C26.8784 13.1667 30.8332 17.1216 30.8332 22.0001H31.8332ZM21.9998 31.8334C27.4306 31.8334 31.8332 27.4309 31.8332 22.0001H30.8332C30.8332 26.8786 26.8784 30.8334 21.9998 30.8334V31.8334ZM16.099 29.8668C17.7426 31.1015 19.7865 31.8334 21.9998 31.8334V30.8334C20.0105 30.8334 18.176 30.1764 16.6996 29.0673L16.099 29.8668ZM12.8901 31.7806L16.6229 29.9142L16.1757 29.0198L12.4429 30.8862L12.8901 31.7806ZM14.0857 27.377L12.2193 31.1098L13.1137 31.557L14.9801 27.8242L14.0857 27.377ZM17.4998 18.0001V19.3334H18.4998V18.0001H17.4998ZM24.6665 26.5001H25.9998V25.5001H24.6665V26.5001ZM17.4998 19.3334C17.4998 23.2915 20.7085 26.5001 24.6665 26.5001V25.5001C21.2607 25.5001 18.4998 22.7392 18.4998 19.3334H17.4998ZM18.2772 18.4161L18.5614 18.2266L18.0067 17.3946L17.7225 17.5841L18.2772 18.4161ZM19.8456 18.783L20.0316 19.8986L21.018 19.7342L20.832 18.6186L19.8456 18.783ZM19.6718 20.7289L18.3892 21.5841L18.9439 22.4161L20.2265 21.561L19.6718 20.7289ZM20.0316 19.8986C20.0855 20.222 19.9447 20.547 19.6718 20.7289L20.2265 21.561C20.8268 21.1608 21.1366 20.4458 21.018 19.7342L20.0316 19.8986ZM18.5614 18.2266C19.0646 17.8912 19.7462 18.1865 19.8456 18.783L20.832 18.6186C20.6133 17.3063 19.1136 16.6566 18.0067 17.3946L18.5614 18.2266ZM26.4159 26.2774L26.6053 25.9932L25.7733 25.4385L25.5838 25.7227L26.4159 26.2774ZM25.3813 23.1679L24.2658 22.9819L24.1014 23.9683L25.2169 24.1543L25.3813 23.1679ZM22.4389 23.7734L21.5838 25.0561L22.4159 25.6108L23.271 24.3281L22.4389 23.7734ZM24.2658 22.9819C23.5541 22.8633 22.8391 23.1731 22.4389 23.7734L23.271 24.3281C23.4529 24.0552 23.7779 23.9144 24.1014 23.9683L24.2658 22.9819ZM26.6053 25.9932C27.3433 24.8863 26.6936 23.3866 25.3813 23.1679L25.2169 24.1543C25.8134 24.2537 26.1087 24.9354 25.7733 25.4385L26.6053 25.9932Z" fill="black"/>
</svg>
