<svg width="244" height="50" viewBox="0 0 244 50" fill="none" xmlns="http://www.w3.org/2000/svg">
<path d="M70.0045 23.9418C67.2964 23.3043 66.9207 22.4374 66.9207 21.6064C66.9207 20.2166 67.7856 19.5432 69.572 19.5432C70.8835 19.5432 72.039 19.8441 73.2158 20.4888L73.4994 20.6464L73.6766 20.3742C73.9885 19.9014 74.1728 19.3139 74.1728 18.791C74.1728 18.1032 73.8113 17.7021 73.0031 17.48C71.876 17.1433 70.8906 17 69.5933 17C65.5242 17 64.078 19.5074 64.078 21.85C64.078 24.2284 65.6518 25.7973 68.7497 26.5137C71.564 27.1871 72.1383 28.0826 72.1383 29.2217C72.1383 31.07 70.4723 31.464 69.0758 31.464C67.6863 31.464 66.3748 31.0771 64.9641 30.2533L64.6806 30.0885L64.4962 30.3607C64.1843 30.8192 64 31.4138 64 31.9511C64 32.646 64.3261 33.0472 65.1201 33.3409C66.2402 33.7708 67.5871 34 69.0191 34C72.6061 34 75.0164 31.9798 75.0164 28.9781C75.0093 26.3274 73.4639 24.7729 70.0045 23.9418Z" fill="#236967"/>
<path d="M82.9707 17H77.583V33.5702H80.3619V28.2617H82.9707C86.7705 28.2617 88.9468 26.2128 88.9468 22.6452C88.9468 19.056 86.7705 17 82.9707 17ZM80.369 19.4357H82.9778C85.0974 19.4357 86.1324 20.4817 86.1324 22.6452C86.1324 24.7729 85.0691 25.8546 82.9778 25.8546H80.369V19.4357Z" fill="#236967"/>
<path d="M93.9586 26.1985H99.8V23.7627H93.9586V19.4357H101.275V17H91.1797V33.5702H101.409V31.1344H93.9586V26.1985Z" fill="#236967"/>
<path d="M110.626 17.1218L110.519 17H108.322L108.215 17.1218C105.358 20.453 103.331 26.6068 102.92 33.1833L102.898 33.563H105.77L105.784 33.2191C105.84 31.9654 105.961 30.7404 106.124 29.5727H112.703C112.859 30.6759 112.979 31.8723 113.071 33.2191L113.093 33.5558H115.935L115.914 33.1761C115.567 26.7859 113.49 20.4816 110.626 17.1218ZM112.277 27.1441H106.571C107.202 24.2069 108.159 21.7067 109.42 19.7008C110.711 21.7425 111.668 24.2427 112.277 27.1441Z" fill="#236967"/>
<path d="M125.136 24.6582C127.617 22.7956 129.368 20.1879 129.978 17.437L130.077 17H127.107L127.043 17.2794C126.313 20.4315 124.193 22.9604 121.337 24.1281V17H118.558V33.5702H121.337V26.6928C121.84 26.5209 122.322 26.3274 122.769 26.1125C125.179 27.6671 126.689 30.0742 127.256 33.2764L127.306 33.5702H130.283L130.219 33.1618C129.723 29.7661 127.795 26.5638 125.136 24.6582Z" fill="#236967"/>
<path d="M141.136 17L141.108 17.3224C140.774 20.9043 139.626 23.6839 137.691 25.6039C135.699 23.6911 134.522 20.9043 134.189 17.3224L134.16 17H131.296L131.332 17.394C131.715 21.5706 133.508 25.3603 136.273 27.8032V33.5702H139.031V27.8032C141.845 25.3102 143.646 21.5276 143.972 17.3869L144 17H141.136Z" fill="#236967"/>
<path d="M159.949 19.9375L160.204 20.1325L160.381 19.8655L160.61 19.5224L160.763 19.2923L160.546 19.1209C159.444 18.2495 157.795 17.7 156.202 17.7C154.471 17.7 153.194 18.1594 152.346 18.9111C151.496 19.665 151.108 20.686 151.108 21.7418C151.108 23.2179 151.732 24.1535 152.666 24.78C153.572 25.388 154.766 25.7015 155.896 25.9869C155.943 25.9988 155.989 26.0105 156.036 26.0223C157.141 26.3008 158.175 26.5616 158.951 27.0267C159.349 27.2649 159.665 27.5498 159.883 27.9067C160.1 28.262 160.231 28.7066 160.231 29.2827C160.231 30.1162 159.917 30.8565 159.255 31.3948C158.587 31.9383 157.535 32.2997 156.022 32.2997C154.092 32.2997 152.357 31.4552 151.517 30.4323L151.31 30.1798L151.076 30.4076L150.791 30.6854L150.598 30.8729L150.763 31.0848C151.797 32.4097 153.885 33.3 156.047 33.3C157.796 33.3 159.097 32.8522 159.966 32.111C160.839 31.3667 161.247 30.3508 161.247 29.2827L161.247 29.2818C161.245 28.5648 161.09 27.9691 160.811 27.472C160.532 26.9755 160.137 26.5934 159.677 26.2896C158.77 25.6901 157.576 25.3771 156.445 25.0888C156.412 25.0804 156.379 25.072 156.346 25.0636C155.226 24.7781 154.174 24.5103 153.389 24.0332C152.991 23.7917 152.674 23.5034 152.456 23.143C152.238 22.7842 152.107 22.3365 152.107 21.7582C152.107 20.915 152.423 20.163 153.074 19.6167C153.73 19.0663 154.757 18.7003 156.218 18.7003C157.448 18.7003 158.866 19.1078 159.949 19.9375Z" fill="#216D6B" stroke="#236967" stroke-width="0.6" stroke-miterlimit="10"/>
<path d="M176.137 20.3953L176.37 20.6239L176.578 20.3732L176.823 20.0791L176.995 19.8723L176.808 19.6788C175.508 18.3335 173.662 17.7 171.708 17.7C167.339 17.7 164.046 21.0501 164.046 25.5C164.046 29.9497 167.331 33.3 171.708 33.3C173.657 33.3 175.51 32.6403 176.808 31.2967L176.995 31.1032L176.823 30.8964L176.578 30.6023L176.369 30.3508L176.137 30.5809C174.89 31.8145 173.389 32.2997 171.717 32.2997C167.935 32.2997 165.07 29.3605 165.07 25.5082L165.07 25.5076C165.062 21.6392 167.927 18.7003 171.717 18.7003C173.4 18.7003 174.892 19.1705 176.137 20.3953Z" fill="#216D6B" stroke="#236967" stroke-width="0.6" stroke-miterlimit="10"/>
<path d="M192.035 18.0573V24.8733H182.183V18.0573V17.7573H181.883H181.476H181.176V18.0573V32.9266V33.2266H181.476H181.883H182.183V32.9266V25.8818H192.035V32.9266V33.2266H192.335H192.751H193.051V32.9266V18.0573V17.7573H192.751H192.335H192.035V18.0573Z" fill="#216D6B" stroke="#236967" stroke-width="0.6" stroke-miterlimit="10"/>
<path d="M205.071 17.7C200.702 17.7 197.409 21.0501 197.409 25.5C197.409 29.9497 200.693 33.3 205.071 33.3C209.449 33.3 212.733 29.9497 212.733 25.5C212.733 21.0419 209.449 17.7 205.071 17.7ZM205.071 32.2915C201.288 32.2915 198.425 29.392 198.425 25.5C198.425 21.608 201.288 18.7085 205.071 18.7085C208.855 18.7085 211.726 21.6084 211.726 25.5C211.726 29.3916 208.855 32.2915 205.071 32.2915Z" fill="#216D6B" stroke="#236967" stroke-width="0.6" stroke-miterlimit="10"/>
<path d="M223.236 17.7C218.867 17.7 215.574 21.0501 215.574 25.5C215.574 29.9497 218.858 33.3 223.236 33.3C227.614 33.3 230.898 29.9497 230.898 25.5C230.898 21.0419 227.614 17.7 223.236 17.7ZM223.236 32.2915C219.453 32.2915 216.59 29.392 216.59 25.5C216.59 21.608 219.453 18.7085 223.236 18.7085C227.02 18.7085 229.891 21.6084 229.891 25.4999C229.883 29.3922 227.019 32.2915 223.236 32.2915Z" fill="#216D6B" stroke="#236967" stroke-width="0.6" stroke-miterlimit="10"/>
<path d="M242.592 17.7573H242.292V18.0573V32.2263H234.04H233.74V32.5263V32.9266V33.2266H234.04H243H243.3V32.9266V18.0573V17.7573H243H242.592Z" fill="#216D6B" stroke="#236967" stroke-width="0.6" stroke-miterlimit="10"/>
<path d="M25 0C11.1947 0 0 11.1947 0 25C0 27.8692 0.488006 30.6209 1.37582 33.1844C1.9579 31.4675 2.92215 29.8565 4.28622 28.4866C5.54445 27.2284 8.34313 24.2004 9.9071 23.6065C11.571 21.0078 12.8704 19.9024 16.1042 16.6686C22.6305 10.1423 29.0922 6.02658 30.5444 7.47883C31.9967 8.93109 27.881 15.3928 21.3547 21.9191C19.9671 23.3067 18.5854 24.5767 17.2507 25.7114C18.8147 26.3053 20.2787 27.2225 21.5369 28.4807C22.7952 29.7389 23.7124 31.2088 24.3062 32.7728C25.441 31.4381 26.7168 30.0564 28.1044 28.6689C34.6308 22.1425 41.0983 18.0268 42.5447 19.4791C43.9969 20.9313 39.8812 27.393 33.3549 33.9193C30.1211 37.1531 29.0687 38.4995 26.464 40.1635C25.8702 41.7215 22.7893 44.4791 21.5369 45.7314C20.1787 47.0896 18.5736 48.048 16.8744 48.6301C19.4203 49.5061 22.1543 49.9882 24.9941 49.9882C38.8053 50 50 38.8053 50 25C50 11.1947 38.8053 0 25 0Z" fill="#236967"/>
<path d="M11.0357 35.2421C11.2592 35.2421 11.4885 35.1539 11.659 34.9834C12 34.6424 12 34.0838 11.659 33.7369C11.3238 33.4018 10.7476 33.4018 10.4125 33.7369C10.2479 33.9015 10.1538 34.125 10.1538 34.3602C10.1538 34.5953 10.2479 34.8188 10.4125 34.9834C10.583 35.1598 10.8064 35.2421 11.0357 35.2421Z" fill="#236967"/>
<path d="M16.304 38.3935C15.9747 38.0584 15.3927 38.0584 15.0575 38.3935C14.8929 38.5581 14.7988 38.7816 14.7988 39.0167C14.7988 39.2519 14.8929 39.4753 15.0575 39.64C15.2222 39.8046 15.4456 39.8987 15.6808 39.8987C15.9159 39.8987 16.1394 39.8046 16.304 39.64C16.4686 39.4753 16.5627 39.2519 16.5627 39.0167C16.5627 38.7816 16.4745 38.5581 16.304 38.3935Z" fill="#236967"/>
<path d="M8.60747 37.9173C7.95483 38.564 8.76622 40.2221 9.0308 40.716L9.07196 40.7924L9.14839 40.8336C9.40709 40.9688 10.4419 41.4979 11.2356 41.4979C11.5179 41.4979 11.7707 41.4333 11.9471 41.2569C12.5644 40.6395 12.3116 39.6459 11.265 38.5993C10.2185 37.5586 9.22482 37.3058 8.60747 37.9173Z" fill="#236967"/>
</svg>
