<svg width="40" height="40" viewBox="0 0 40 40" fill="none" xmlns="http://www.w3.org/2000/svg">
<g clip-path="url(#clip0)">
<path d="M36.3655 30.7916C38.1266 27.8959 39.1409 24.4961 39.1409 20.8593C39.1409 10.2881 30.5713 1.71851 20.0002 1.71851C9.42898 1.71851 0.859375 10.2881 0.859375 20.8593C0.859375 24.4961 1.87375 27.8959 3.63484 30.7916H36.3655Z" fill="#73C3F9"/>
<path d="M33.0854 0H6.91461C5.03844 0 3.51758 1.52086 3.51758 3.39695V30.5938C4.21422 31.7707 5.03359 32.8662 5.9575 33.8636H34.0425C34.9664 32.8662 35.7858 31.7708 36.4824 30.5938V3.39695C36.4824 1.52086 34.9615 0 33.0854 0V0Z" fill="#167CC1"/>
<path d="M14.6717 31.668C14.6604 31.6455 14.6452 31.6247 14.6277 31.6065C13.9842 30.9341 14.4228 30.3012 14.5945 30.1019C14.6337 30.0562 14.6547 29.9978 14.6547 29.9376V26.6562C14.6547 26.5899 14.628 26.5265 14.582 26.4788C12.3052 24.1164 14.2769 21.9435 14.5685 21.6467C14.5907 21.6242 14.6164 21.6064 14.6452 21.5934L17.4066 20.3501C17.5174 20.3002 17.5775 20.1788 17.5499 20.0604L16.9949 17.677C16.9804 17.6147 16.9429 17.5601 16.89 17.5242L15.0192 16.255C11.9375 13.9829 13.3137 11.7467 13.8357 11.0866C13.9202 10.9797 13.9082 10.8241 13.8038 10.7366C11.9294 9.16336 12.8697 6.20297 13.1105 5.5432C13.1384 5.46688 13.1269 5.38227 13.0817 5.31477C12.9274 5.08375 13.0387 4.86758 13.1116 4.76617C13.1431 4.72227 13.1613 4.67016 13.1613 4.61609V3.11594C13.1613 3.05773 13.1404 3.00156 13.1041 2.95602C12.9513 2.76406 12.9834 2.58969 13.0435 2.47133C13.0948 2.37023 13.0735 2.24703 12.9899 2.17047C12.0227 1.28375 12.6691 0.459375 12.9999 0.139922C13.0401 0.101094 13.064 0.0517187 13.0727 0H6.91461C5.03844 0 3.51758 1.52086 3.51758 3.39695V30.5938C4.21422 31.7707 5.03359 32.8662 5.9575 33.8636H15.7711L14.6717 31.668Z" fill="#0E62A8"/>
<path d="M19.9997 40C25.6152 40 30.666 37.5817 34.1673 33.7298C34.1673 23.2085 34.1673 6.72715 34.1673 5.23926H5.83203V33.7298C9.33336 37.5817 14.3841 40 19.9997 40Z" fill="#E9EFFF"/>
<path d="M5.83203 33.7299C8.86758 37.0694 13.0681 39.33 17.7913 39.8727C17.7827 39.5832 17.8838 39.3559 17.9498 39.2397C17.9838 39.18 17.9908 39.1089 17.9709 39.0431L17.394 37.1282C17.3696 37.0474 17.3062 36.9841 17.2255 36.959C15.9607 36.5653 16.2355 35.5388 16.3577 35.2167C16.3827 35.1505 16.3785 35.0772 16.3468 35.0139L14.6714 31.668C14.6601 31.6454 14.6448 31.6247 14.6274 31.6064C13.9839 30.9341 14.4225 30.3012 14.5941 30.1018C14.6334 30.0561 14.6544 29.9978 14.6544 29.9375V26.6563C14.6544 26.59 14.6277 26.5265 14.5816 26.4788C12.3049 24.1164 14.2766 21.9436 14.5682 21.6468C14.5904 21.6243 14.6161 21.6064 14.6448 21.5935L17.4062 20.3501C17.5171 20.3002 17.5772 20.1789 17.5496 20.0604L16.9946 17.6771C16.9801 17.6147 16.9426 17.5601 16.8897 17.5243L15.0189 16.255C11.9372 13.9829 13.3134 11.7468 13.8354 11.0867C13.9199 10.9797 13.9079 10.8242 13.8035 10.7366C11.9291 9.1634 12.8694 6.20301 13.1102 5.54324C13.1381 5.46691 13.1266 5.3823 13.0814 5.3148C13.0645 5.28941 13.0512 5.26426 13.0402 5.23926H5.83203V33.7299Z" fill="#D3DCFB"/>
<path d="M33.0851 2.3147H6.91438C6.31914 2.3147 5.83203 2.80173 5.83203 3.39704V5.41063H34.1673V3.39688C34.1673 2.80165 33.6803 2.3147 33.0851 2.3147Z" fill="#2A428C"/>
<path d="M13.1112 4.7661C13.1428 4.7222 13.161 4.67009 13.161 4.61603V3.11587C13.161 3.05767 13.1401 3.00149 13.1038 2.95595C12.951 2.76399 12.9831 2.58962 13.0432 2.47126C13.0684 2.42165 13.0759 2.36681 13.0673 2.3147H6.91437C6.31914 2.3147 5.83203 2.80173 5.83203 3.39696V5.41056H13.1194C13.113 5.37681 13.101 5.34392 13.0814 5.31462C12.9271 5.08368 13.0384 4.86751 13.1112 4.7661Z" fill="#1C2E7A"/>
<path d="M8.50027 4.70587C8.96588 4.70587 9.34332 4.32842 9.34332 3.86282C9.34332 3.39722 8.96588 3.01978 8.50027 3.01978C8.03467 3.01978 7.65723 3.39722 7.65723 3.86282C7.65723 4.32842 8.03467 4.70587 8.50027 4.70587Z" fill="#FF4155"/>
<path d="M11.6734 3.86282C11.6734 4.32837 11.296 4.70587 10.8304 4.70587C10.3647 4.70587 9.9873 4.32845 9.9873 3.86282C9.9873 3.3972 10.3647 3.01978 10.8304 3.01978C11.296 3.01978 11.6734 3.3972 11.6734 3.86282Z" fill="#FFDD40"/>
<path d="M14.0045 3.86282C14.0045 4.32837 13.627 4.70587 13.1614 4.70587C12.6958 4.70587 12.3184 4.32845 12.3184 3.86282C12.3184 3.3972 12.6958 3.01978 13.1614 3.01978C13.627 3.01978 14.0045 3.3972 14.0045 3.86282Z" fill="#38C674"/>
<path d="M25.2317 4.50566H16.7729C16.4178 4.50566 16.1299 4.21785 16.1299 3.8627C16.1299 3.50754 16.4178 3.21973 16.7729 3.21973H25.2317C25.5868 3.21973 25.8746 3.50754 25.8746 3.8627C25.8746 4.21785 25.5868 4.50566 25.2317 4.50566Z" fill="#3C58A0"/>
<path d="M32.1035 4.50566H31.3705C31.0154 4.50566 30.7275 4.21785 30.7275 3.8627C30.7275 3.50754 31.0154 3.21973 31.3705 3.21973H32.1035C32.4586 3.21973 32.7464 3.50754 32.7464 3.8627C32.7464 4.21785 32.4586 4.50566 32.1035 4.50566Z" fill="#3C58A0"/>
<path d="M29.5537 4.50566H28.8207C28.4656 4.50566 28.1777 4.21785 28.1777 3.8627C28.1777 3.50754 28.4656 3.21973 28.8207 3.21973H29.5537C29.9087 3.21973 30.1966 3.50754 30.1966 3.8627C30.1966 4.21785 29.9088 4.50566 29.5537 4.50566Z" fill="#3C58A0"/>
<path d="M20.0003 25.0396C15.4977 25.0396 15.4813 7.4646 20.0003 7.4646C24.5029 7.46468 24.5196 25.0396 20.0003 25.0396ZM20.0003 8.75061C19.6634 8.75061 19.1202 9.35296 18.666 10.6987C17.6367 13.7488 17.6367 18.7557 18.666 21.8056C19.1202 23.1512 19.6634 23.7536 20.0003 23.7536C20.3372 23.7536 20.8805 23.1513 21.3346 21.8056C22.364 18.7554 22.364 13.7487 21.3346 10.6987C20.8805 9.35304 20.3373 8.75061 20.0003 8.75061Z" fill="#73C3F9"/>
<path d="M25.3961 21.6122C20.4223 21.6122 10.5603 15.0261 12.3893 11.8581C14.6403 7.95904 29.8691 16.7316 27.6096 20.6456C27.2198 21.3206 26.4257 21.6122 25.3961 21.6122ZM13.503 12.5011C13.3345 12.7929 13.5845 13.5645 14.5229 14.6307C15.5505 15.7983 17.1216 17.0216 18.9466 18.0753C20.7717 19.129 22.6166 19.8779 24.1416 20.184C25.5341 20.4635 26.3274 20.2942 26.4959 20.0026C26.6643 19.7108 26.4143 18.9391 25.4759 17.8729C24.4483 16.7054 22.8772 15.482 21.0522 14.4283C17.0222 12.1015 13.8968 11.8191 13.503 12.5011Z" fill="#2A428C"/>
<path d="M14.6034 21.6124C13.5736 21.6125 12.7798 21.3211 12.3899 20.6458C11.2767 18.7175 14.5226 15.4983 18.3043 13.3149C22.0861 11.1316 26.4968 9.93 27.6102 11.8584C29.4375 15.0235 19.5879 21.6119 14.6034 21.6124ZM18.9473 14.4286C17.1222 15.4823 15.5512 16.7057 14.5236 17.8733C13.5852 18.9394 13.3351 19.7112 13.5036 20.0029C13.6721 20.2946 14.4654 20.4639 15.8579 20.1844C19.0188 19.5497 23.3527 17.0443 25.4768 14.6309C26.4151 13.5648 26.6651 12.793 26.4967 12.5013C26.3283 12.2095 25.535 12.0405 24.1425 12.3198C22.6172 12.6259 20.7723 13.3748 18.9473 14.4286Z" fill="#FF4155"/>
<path d="M20.5169 17.4749C21.1946 17.194 21.5163 16.4168 21.2353 15.7391C20.9544 15.0614 20.1773 14.7397 19.4996 15.0207C18.8219 15.3016 18.5002 16.0787 18.7811 16.7564C19.062 17.4341 19.8391 17.7558 20.5169 17.4749Z" fill="#FFDD40"/>
<path d="M21.9958 36.798H18.0054C17.3574 36.798 16.8271 37.3282 16.8271 37.9763C16.8271 38.6243 17.3574 39.1545 18.0054 39.1545H21.9958C22.6439 39.1545 23.1741 38.6243 23.1741 37.9763C23.1741 37.3282 22.6439 36.798 21.9958 36.798Z" fill="#38C674"/>
<path d="M20.0006 37.9763C20.0006 37.3282 20.5308 36.798 21.1789 36.798H18.0054C17.3574 36.798 16.8271 37.3282 16.8271 37.9763C16.8271 38.6243 17.3574 39.1545 18.0054 39.1545H21.1789C20.5308 39.1545 20.0006 38.6243 20.0006 37.9763Z" fill="#24B55E"/>
<path d="M25.6404 35.1184H14.3594C13.4012 35.1184 12.6172 34.3344 12.6172 33.3762C12.6172 32.418 13.4012 31.634 14.3594 31.634H25.6404C26.5986 31.634 27.3826 32.418 27.3826 33.3762C27.3827 34.3344 26.5987 35.1184 25.6404 35.1184Z" fill="#FFDD40"/>
<path d="M25.6404 30.0374H14.3594C13.4012 30.0374 12.6172 29.2534 12.6172 28.2952C12.6172 27.337 13.4012 26.553 14.3594 26.553H25.6404C26.5986 26.553 27.3826 27.337 27.3826 28.2952C27.3827 29.2534 26.5987 30.0374 25.6404 30.0374Z" fill="#FFDD40"/>
<path d="M19.0234 33.3762C19.0234 32.418 19.8074 31.634 20.7656 31.634H14.3594C13.4012 31.634 12.6172 32.418 12.6172 33.3762C12.6172 34.3344 13.4012 35.1184 14.3594 35.1184H20.7656C19.8074 35.1184 19.0234 34.3344 19.0234 33.3762Z" fill="#FFB332"/>
<path d="M19.0234 28.2952C19.0234 27.3369 19.8074 26.553 20.7656 26.553H14.3594C13.4012 26.553 12.6172 27.337 12.6172 28.2952C12.6172 29.2534 13.4012 30.0374 14.3594 30.0374H20.7656C19.8074 30.0374 19.0234 29.2534 19.0234 28.2952Z" fill="#FFB332"/>
</g>
<defs>
<clipPath id="clip0">
<rect width="40" height="40" fill="white"/>
</clipPath>
</defs>
</svg>
