<svg width="40" height="40" viewBox="0 0 40 40" fill="none" xmlns="http://www.w3.org/2000/svg">
<path d="M20.0002 1.71826C9.42898 1.71826 0.859375 10.2879 0.859375 20.859C0.859375 24.9504 2.14383 28.7413 4.33031 31.8522L26.738 38.7789C33.9845 36.0529 39.1409 29.0586 39.1409 20.8591C39.1409 10.2879 30.5713 1.71826 20.0002 1.71826Z" fill="#73C3F9"/>
<path d="M18.0813 8.8879C18.0813 8.16086 18.1709 7.45446 18.3384 6.77844H7.65219C7.41516 6.77844 7.18383 6.80313 6.96039 6.84961C5.95672 7.78422 5.05383 8.82524 4.26922 9.95493C4.26477 10.0257 4.26172 10.097 4.26172 10.1688V31.7528C5.0782 32.9302 6.02352 34.0116 7.07695 34.9766L23.9972 39.581C24.9786 39.3723 25.9323 39.0887 26.8519 38.736V17.6584C22.0158 17.6584 18.0813 13.724 18.0813 8.8879Z" fill="#167CC1"/>
<path d="M7.07774 34.9769L12.6633 36.4969L12.5047 11.2727C12.5045 11.2342 12.4903 11.1973 12.4664 11.1672C12.0488 10.6397 12.3093 10.2763 12.4728 10.123C12.5263 10.0728 12.5388 9.99227 12.5054 9.92704C12.313 9.55235 12.5691 9.3154 12.6769 9.23688C12.7065 9.21532 12.7275 9.18407 12.7377 9.14891L13.0325 8.12852C13.0484 8.0736 13.0356 8.0136 12.9974 7.97118C12.4927 7.4118 12.8417 7.01204 13.0359 6.85368C13.0608 6.83344 13.078 6.80711 13.0878 6.77844H7.65211C5.78266 6.77844 4.26172 8.29938 4.26172 10.1688V31.753C5.0782 32.9306 6.02406 34.0117 7.07774 34.9769Z" fill="#024788"/>
<path d="M6.37109 15.3037V34.2965C9.84219 37.817 14.6662 40 20.0006 40C21.6374 40 23.226 39.7941 24.7424 39.4076V17.4013C23.2747 17.0375 21.9518 16.3032 20.8788 15.3037H6.37109Z" fill="#E9EFFF"/>
<path d="M6.37109 34.2966C8.11101 36.0612 10.1905 37.49 12.5044 38.4758V15.3037H6.37109V34.2966Z" fill="#D3DCFB"/>
<path d="M13.0582 9.20789H12.7197C12.3961 9.20789 12.1338 8.94562 12.1338 8.62195C12.1338 8.29828 12.3961 8.03601 12.7197 8.03601H13.0582C13.3818 8.03601 13.6442 8.29828 13.6442 8.62195C13.6442 8.94562 13.3818 9.20789 13.0582 9.20789Z" fill="#1E92D3"/>
<path d="M18.3116 9.20789H15.0586C14.735 9.20789 14.4727 8.94562 14.4727 8.62195C14.4727 8.29828 14.735 8.03601 15.0586 8.03601H18.3116C18.6352 8.03601 18.8975 8.29828 18.8975 8.62195C18.8975 8.94562 18.6352 9.20789 18.3116 9.20789Z" fill="#1E92D3"/>
<path d="M18.2548 10.6273H11.7677C11.252 10.6273 10.8302 10.2055 10.8302 9.68985C10.8302 9.24688 10.4711 8.88782 10.0281 8.88782H7.65211C6.94461 8.88782 6.37109 9.46133 6.37109 10.1688V15.5114H21.1089C19.673 14.2648 18.6452 12.5602 18.2548 10.6273Z" fill="#9BD8F9"/>
<path d="M11.7676 10.6273C11.252 10.6273 10.8301 10.2055 10.8301 9.68985C10.8301 9.24688 10.4711 8.88782 10.0282 8.88782H7.65211C6.94461 8.88782 6.37109 9.46133 6.37109 10.1688V15.5114H12.5043V10.6273H11.7676V10.6273Z" fill="#73C3F9"/>
<path d="M24.7422 16.4249C24.4186 16.4249 24.1562 16.6872 24.1562 17.0109V39.5464C24.5516 39.4589 24.9424 39.3595 25.3281 39.2481V17.0109C25.3281 16.6873 25.0658 16.4249 24.7422 16.4249Z" fill="#1E92D3"/>
<path d="M6.95703 34.8659V10.1688C6.95703 9.78555 7.26883 9.47375 7.65211 9.47375H10.0282C10.1473 9.47375 10.2443 9.57063 10.2443 9.68977C10.2443 10.5298 10.9277 11.2132 11.7677 11.2132H18.6455C18.9691 11.2132 19.2314 10.9509 19.2314 10.6273C19.2314 10.3037 18.9691 10.0413 18.6455 10.0413H11.7677C11.5772 10.0413 11.4162 9.8804 11.4162 9.68977C11.4162 8.92446 10.7935 8.30188 10.0282 8.30188H7.65211C6.62266 8.30188 5.78516 9.13946 5.78516 10.1688V33.676C6.15828 34.0895 6.54953 34.4863 6.95703 34.8659Z" fill="#1E92D3"/>
<path d="M12.4728 10.123C12.4967 10.1007 12.511 10.0718 12.5181 10.0415H11.7676C11.5771 10.0415 11.4161 9.88052 11.4161 9.68989C11.4161 8.92458 10.7934 8.302 10.0281 8.302H7.65211C6.62266 8.302 5.78516 9.13958 5.78516 10.169V33.6761C6.15828 34.0897 6.54953 34.4864 6.95703 34.866V10.1689C6.95703 9.7856 7.26883 9.4738 7.65211 9.4738H10.0282C10.1473 9.4738 10.2443 9.57067 10.2443 9.68981C10.2443 10.5298 10.9276 11.2133 11.7677 11.2133H12.4928C12.4863 11.1968 12.4776 11.1812 12.4665 11.1672C12.0487 10.6397 12.3094 10.2762 12.4728 10.123Z" fill="#167CC1"/>
<path d="M18.9021 12.2739H12.5283V14.3275H19.8949C19.9393 14.3275 19.9827 14.3238 20.0257 14.3183C19.5654 13.6946 19.1858 13.008 18.9021 12.2739Z" fill="#E9EFFF"/>
<path d="M12.6051 12.2739H11.4526C10.8855 12.2739 10.4258 12.7336 10.4258 13.3007C10.4258 13.8678 10.8855 14.3275 11.4526 14.3275H12.6051V12.2739Z" fill="#3C58A0"/>
<path d="M9.10422 11.0806H8.29688C7.97328 11.0806 7.71094 10.8183 7.71094 10.4946C7.71094 10.171 7.97328 9.90869 8.29688 9.90869H9.10422C9.42781 9.90869 9.69016 10.171 9.69016 10.4946C9.69016 10.8183 9.42781 11.0806 9.10422 11.0806Z" fill="#E9EFFF"/>
<path d="M32.5872 2.09906L31.3579 1.73906L30.4803 0.772422C29.3722 0.27625 28.1443 0 26.8516 0C21.943 0 17.9639 3.97914 17.9639 8.88773C17.9639 13.7963 21.943 17.7755 26.8516 17.7755C31.7602 17.7755 35.7393 13.7963 35.7393 8.88773C35.7393 6.16539 34.515 3.72937 32.5872 2.09906Z" fill="#FFE98D"/>
<path d="M29.0518 11.3872L24.6059 7.47125C20.1413 7.47125 20.8183 2.36218 20.8183 2.36218C19.0632 3.9857 17.9639 6.30812 17.9639 8.88765C17.9639 13.7962 21.943 17.7754 26.8516 17.7754C29.4321 17.7754 31.7553 16.6752 33.379 14.9189C29.2015 15.25 29.0518 11.3872 29.0518 11.3872Z" fill="#FFDD40"/>
<path d="M21.8616 26.914H9.25188C8.82648 26.914 8.47852 26.566 8.47852 26.1407V19.3188C8.47852 18.8934 8.82656 18.5454 9.25188 18.5454H21.8616C22.287 18.5454 22.635 18.8935 22.635 19.3188V26.1407C22.635 26.5661 22.287 26.914 21.8616 26.914Z" fill="#FF4155"/>
<path d="M8.47852 19.3188V26.1407C8.47852 26.5661 8.82656 26.914 9.25188 26.914H17.3539C17.3292 26.873 17.2931 26.8382 17.2466 26.816C16.6163 26.5153 16.633 26.0311 16.7116 25.7463C16.7462 25.6207 16.6823 25.4873 16.56 25.4427C15.4413 25.0352 15.6412 24.0338 15.7293 23.7349C15.7463 23.6771 15.7427 23.6156 15.7184 23.5605L14.8598 21.6212C14.8223 21.5367 14.7418 21.4775 14.6496 21.4721C13.8928 21.4278 13.7563 20.8109 13.7377 20.4812C13.7312 20.3653 13.6447 20.2692 13.5302 20.2496C12.2764 20.0353 12.3803 19.0512 12.4654 18.6841C12.4763 18.6371 12.4727 18.5892 12.4573 18.5454H9.25195C8.82648 18.5454 8.47852 18.8934 8.47852 19.3188Z" fill="#E80054"/>
<path d="M10.7988 29.844H10.4082C10.0846 29.844 9.82227 29.5817 9.82227 29.2581C9.82227 28.9345 10.0846 28.6721 10.4082 28.6721H10.7988C11.1224 28.6721 11.3848 28.9345 11.3848 29.2581C11.3848 29.5817 11.1225 29.844 10.7988 29.844Z" fill="#FF4155"/>
<path d="M8.86914 29.844H8.47852C8.15492 29.844 7.89258 29.5817 7.89258 29.2581C7.89258 28.9345 8.15492 28.6721 8.47852 28.6721H8.86914C9.19273 28.6721 9.45508 28.9345 9.45508 29.2581C9.45508 29.5817 9.19273 29.844 8.86914 29.844Z" fill="#FF4155"/>
<path d="M22.6337 29.844H15.2842C14.9606 29.844 14.6982 29.5817 14.6982 29.2581C14.6982 28.9345 14.9606 28.6721 15.2842 28.6721H22.6337C22.9573 28.6721 23.2196 28.9345 23.2196 29.2581C23.2196 29.5817 22.9573 29.844 22.6337 29.844Z" fill="#BEC8F7"/>
<path d="M15.2848 29.844H12.3877C12.0641 29.844 11.8018 29.5817 11.8018 29.2581C11.8018 28.9345 12.0641 28.6721 12.3877 28.6721H15.2848C15.6084 28.6721 15.8707 28.9345 15.8707 29.2581C15.8707 29.5817 15.6084 29.844 15.2848 29.844Z" fill="#FF4155"/>
<path d="M15.2842 30.4595C14.9606 30.4595 14.6982 30.1972 14.6982 29.8735V28.6626C14.6982 28.3389 14.9606 28.0767 15.2842 28.0767C15.6078 28.0767 15.8701 28.3389 15.8701 28.6626V29.8735C15.8701 30.1972 15.6078 30.4595 15.2842 30.4595Z" fill="#E80054"/>
<path d="M18.5646 23.2155C18.8344 21.5516 17.7042 19.9841 16.0403 19.7144C14.3764 19.4446 12.8089 20.5748 12.5392 22.2387C12.2694 23.9026 13.3996 25.4701 15.0635 25.7399C16.7274 26.0096 18.2949 24.8794 18.5646 23.2155Z" fill="#E9EFFF"/>
<path d="M16.5595 25.4427C15.4407 25.0352 15.6406 24.0338 15.7288 23.7349C15.7458 23.6772 15.7422 23.6156 15.7178 23.5605L14.8592 21.6212C14.8218 21.5368 14.7412 21.4776 14.6491 21.4722C13.8923 21.4279 13.7558 20.8109 13.7372 20.4812C13.7339 20.4229 13.7102 20.3695 13.673 20.3285C12.9615 20.8873 12.5039 21.7548 12.5039 22.7297C12.5039 24.4155 13.8705 25.7822 15.5563 25.7822C15.9583 25.7822 16.3417 25.7037 16.6931 25.5626C16.666 25.5086 16.62 25.4647 16.5595 25.4427Z" fill="#BEC8F7"/>
<path d="M23.4018 11.0441C24.2293 12.9254 22.8789 14.0613 22.8185 14.1622C22.7153 14.2969 22.7951 14.498 22.9639 14.5168C27.7751 15.0523 29.0274 11.9789 29.3533 10.3406C29.4373 9.91859 29.3143 9.49148 29.0399 9.17968C28.9031 9.16023 28.7681 9.11366 28.6429 9.03804L26.153 7.53476C26.0184 7.45351 25.9093 7.34616 25.826 7.22359C25.4099 7.10671 24.9541 7.1914 24.6062 7.47148C23.768 8.14616 22.6807 9.40499 23.4018 11.0441Z" fill="#FFC839"/>
<path d="M26.153 7.53455C26.0184 7.4533 25.9093 7.34595 25.826 7.22338C25.4099 7.10642 24.9541 7.19119 24.6062 7.47127C23.7681 8.14588 22.6807 9.40471 23.4018 11.0439C24.2293 12.9251 22.8788 14.061 22.8185 14.1619C22.7153 14.2967 22.7951 14.4977 22.9639 14.5165C23.1004 14.5317 23.2336 14.5436 23.3644 14.5531C23.259 14.185 23.4559 13.7853 23.8364 13.5456C24.5396 13.1029 25.2167 12.0353 25.6398 10.2042C26.0631 8.37307 27.7747 8.51361 27.7747 8.51361L26.153 7.53455Z" fill="#FFB332"/>
<path d="M30.48 0.772461L28.3916 4.23168C28.5339 4.17691 28.6971 4.18629 28.8341 4.26902L30.2835 5.1441C30.4205 5.22684 30.5048 5.36684 30.5226 5.51824L32.587 2.09902C31.9543 1.56395 31.2461 1.11551 30.48 0.772461Z" fill="#A05838"/>
<path d="M29.6756 2.10474L28.3916 4.23146C28.5339 4.17669 28.6971 4.18606 28.8341 4.2688L30.2835 5.14388C30.4205 5.22661 30.5048 5.36661 30.5227 5.51802L31.771 3.45044C30.7915 4.04536 29.5431 3.25708 29.6756 2.10474Z" fill="#823C26"/>
<path d="M27.176 5.83916L29.6659 7.34244C29.7785 7.41041 29.873 7.49698 29.9499 7.59502L30.5802 5.6033C30.6507 5.38065 30.5595 5.13862 30.3595 5.01791L28.9102 4.14283C28.7102 4.02213 28.4536 4.05408 28.2894 4.22018L26.8203 5.70557C26.9428 5.72791 27.0634 5.77112 27.176 5.83916Z" fill="#D3DCFB"/>
<path d="M27.176 5.83916L29.6659 7.34244C29.7785 7.41041 29.873 7.49698 29.9499 7.59502L30.5802 5.6033C30.6507 5.38065 30.5595 5.13862 30.3595 5.01791L28.9102 4.14283C28.7102 4.02213 28.4536 4.05408 28.2894 4.22018L26.8203 5.70557C26.9428 5.72791 27.0634 5.77112 27.176 5.83916Z" fill="#D3DCFB"/>
<path d="M29.95 7.59502L30.2921 6.51401C30.0057 6.34244 29.6075 6.10158 29.1745 5.83252C28.5718 5.45815 29.2562 4.90666 29.7005 4.62002L28.9102 4.14283C28.7102 4.02213 28.4536 4.05408 28.2894 4.22018L26.8203 5.70557C26.9429 5.72799 27.0635 5.77127 27.1761 5.83924L29.666 7.34252C29.7786 7.41041 29.873 7.49698 29.95 7.59502Z" fill="#BEC8F7"/>
<path d="M26.1528 7.53466L28.6427 9.03794C29.1436 9.34036 29.801 9.17794 30.1034 8.677C30.4058 8.17606 30.2435 7.51872 29.7425 7.2163L27.2526 5.71302C26.7517 5.4106 26.0944 5.57302 25.7919 6.07396C25.4894 6.57489 25.6519 7.23224 26.1528 7.53466Z" fill="#E9EFFF"/>
<path d="M27.734 7.25818C27.9851 6.84232 28.461 6.642 28.9145 6.71638L27.2526 5.71302C26.7517 5.4106 26.0944 5.57302 25.7919 6.07396C25.4894 6.5749 25.6519 7.23224 26.1528 7.53466L27.7746 8.5138C27.5245 8.15044 27.4922 7.65865 27.734 7.25818Z" fill="#D3DCFB"/>
<path d="M16.7037 22.4151L15.213 21.4621C14.9646 21.3033 14.6387 21.4817 14.6387 21.7766V23.6827C14.6387 23.9776 14.9646 24.1561 15.213 23.9973L16.7037 23.0442C16.9334 22.8974 16.9334 22.5619 16.7037 22.4151Z" fill="#FF4155"/>
<path d="M14.1215 32.4034H8.47852C8.15492 32.4034 7.89258 32.1412 7.89258 31.8175C7.89258 31.4938 8.15492 31.2316 8.47852 31.2316H14.1215C14.4451 31.2316 14.7074 31.4938 14.7074 31.8175C14.7074 32.1411 14.4451 32.4034 14.1215 32.4034Z" fill="#BEC8F7"/>
<path d="M22.6351 34.6987H8.47852C8.15492 34.6987 7.89258 34.4364 7.89258 34.1128C7.89258 33.7891 8.15492 33.5269 8.47852 33.5269H22.6351C22.9587 33.5269 23.221 33.7891 23.221 34.1128C23.221 34.4364 22.9587 34.6987 22.6351 34.6987Z" fill="#BEC8F7"/>
<path d="M22.6343 35.6971H8.47769C8.32926 35.6971 8.1941 35.7528 8.09082 35.8438C8.54652 36.2064 9.01926 36.5485 9.50746 36.869H22.6343C22.9579 36.869 23.2202 36.6068 23.2202 36.2831C23.2202 35.9594 22.9579 35.6971 22.6343 35.6971Z" fill="#BEC8F7"/>
<path d="M22.6338 37.8673H11.2119C12.1021 38.3282 13.0332 38.7208 13.9982 39.0392H22.6337C22.9573 39.0392 23.2196 38.7769 23.2196 38.4532C23.2197 38.1297 22.9574 37.8673 22.6338 37.8673Z" fill="#BEC8F7"/>
<path d="M23.4232 8.88782C23.4232 8.88782 23.3113 10.5672 24.952 10.1766C26.5926 9.78594 25.5227 11.9474 26.8519 11.9474C28.1811 11.9474 28.3504 12.3902 28.241 12.8107C28.1044 13.3362 26.4341 14.5516 25.3284 14.7599C24.2227 14.9683 21.8459 15.076 21.7488 14.0308C21.681 13.3008 22.8947 12.9899 22.8947 11.8827C22.8947 10.7756 22.7823 9.5286 23.4232 8.88782Z" fill="#FF4155"/>
<path d="M24.952 10.1766C23.3114 10.5672 23.4233 8.88782 23.4233 8.88782C22.7825 9.5286 22.8947 10.7756 22.8947 11.8827C22.8947 12.9899 21.6811 13.3008 21.7488 14.0308C21.8059 14.6456 22.652 14.8613 23.5639 14.8924C23.1506 14.4593 23.3334 13.8627 23.8364 13.5459C24.5395 13.1033 25.2164 12.0359 25.6396 10.2052C25.4881 10.1222 25.2721 10.1004 24.952 10.1766Z" fill="#E80054"/>
<path d="M39.1405 20.8594C39.1405 19.9031 39.0694 18.9636 38.934 18.0449C37.5696 17.5195 35.3724 16.9666 34.1399 18.1991C32.2622 20.0768 30.2562 20.2238 30.2562 24.6563C30.2562 29.0889 30.2562 33.9014 30.2562 33.9014C30.2562 33.9014 30.1912 35.3891 30.9788 36.538C35.9138 33.0762 39.1405 27.3452 39.1405 20.8594Z" fill="#9BD8F9"/>
</svg>
