<svg width="40" height="40" viewBox="0 0 40 40" fill="none" xmlns="http://www.w3.org/2000/svg">
<g clip-path="url(#clip0)">
<path d="M8.15695 35.8965C11.4152 38.4662 15.5285 39.9999 20.0002 39.9999C22.2591 39.9999 24.4262 39.6074 26.4382 38.8889L35.9695 31.4128C37.973 28.3872 39.1409 24.7597 39.1409 20.8591C39.1409 10.2879 30.5713 1.71826 20.0002 1.71826C9.42898 1.71826 0.859375 10.2879 0.859375 20.8591C0.859375 25.9176 2.82258 30.5169 6.0275 33.9392L8.15695 35.8965Z" fill="#1C2E7A"/>
<path d="M35.1495 22.8153H28.1584C27.6625 22.8153 27.2568 23.221 27.2568 23.7169V24.6191C27.2568 25.115 27.6625 25.5207 28.1584 25.5207H35.1495V22.8153Z" fill="#E9EFFF"/>
<path d="M30.1084 24.168C30.1084 23.424 30.7171 22.8153 31.4611 22.8153H28.1584C27.6625 22.8153 27.2568 23.221 27.2568 23.7169V24.6191C27.2568 25.115 27.6625 25.5207 28.1584 25.5207H31.4611C30.7171 25.5206 30.1084 24.9119 30.1084 24.168Z" fill="#BEC8F7"/>
<path d="M35.1495 26.1066H28.1584C27.3382 26.1066 26.6709 25.4392 26.6709 24.6191V23.7169C26.6709 22.8966 27.3382 22.2294 28.1584 22.2294H35.1495C35.4731 22.2294 35.7354 22.4917 35.7354 22.8153C35.7354 23.1389 35.4731 23.4012 35.1495 23.4012H28.1584C27.9873 23.4012 27.8428 23.5458 27.8428 23.7169V24.6191C27.8428 24.7901 27.9873 24.9347 28.1584 24.9347H35.1495C35.4731 24.9347 35.7354 25.197 35.7354 25.5206C35.7354 25.8442 35.4731 26.1066 35.1495 26.1066Z" fill="#38C674"/>
<path d="M29.9521 25.5206C29.9521 25.197 30.2145 24.9347 30.5381 24.9347H28.1585C27.9873 24.9347 27.8428 24.7901 27.8428 24.6191V23.7169C27.8428 23.5458 27.9873 23.4012 28.1585 23.4012H30.5381C30.2145 23.4012 29.9521 23.1389 29.9521 22.8153C29.9521 22.4917 30.2145 22.2294 30.5381 22.2294H28.1585C27.3382 22.2294 26.6709 22.8967 26.6709 23.7169V24.6191C26.6709 25.4393 27.3382 26.1066 28.1585 26.1066H30.5381C30.2145 26.1066 29.9521 25.8442 29.9521 25.5206Z" fill="#24B55E"/>
<path d="M8.00098 28.0377H26.5947V30.1673H8.00098V28.0377Z" fill="#D3DCFB"/>
<path d="M22.5986 28.0377C23.0735 28.1598 23.4248 28.5895 23.4248 29.1025C23.4248 29.6154 23.0734 30.0451 22.5986 30.1673H26.5937V28.0377H22.5986Z" fill="#BEC8F7"/>
<path d="M6.02734 33.9391C6.68688 34.6434 7.39836 35.2983 8.15687 35.8965V28.0377H6.02734V33.9391Z" fill="#E9EFFF"/>
<path d="M7.74219 11.2733H25.7984V20.489H7.74219V11.2733Z" fill="#FF4155"/>
<path d="M7.74219 20.4888H14.4453C14.4845 20.398 14.4827 20.2925 14.4388 20.1991C14.0571 19.3879 14.6421 18.9561 14.9478 18.7945C15.0527 18.7391 15.1201 18.6319 15.1275 18.5134L15.4562 13.2465C15.4645 13.1124 15.3928 12.9877 15.2755 12.9223C14.6213 12.5569 14.6856 11.9702 14.7825 11.652C14.822 11.5223 14.7863 11.3797 14.6831 11.2919C14.6757 11.2858 14.6698 11.2794 14.6627 11.2732H7.74219V20.4888Z" fill="#E80054"/>
<path d="M18.6847 24.277L18.4815 22.7607H15.0597L14.8565 24.277C14.7525 25.0527 14.2553 25.4348 14.2001 25.5102C13.9939 25.726 14.1469 26.0836 14.4452 26.0836H19.0959C19.3943 26.0836 19.5472 25.7259 19.341 25.5102C19.2881 25.4379 18.7882 25.0495 18.6847 24.277Z" fill="#D3DCFB"/>
<path d="M16.2324 25.0668L16.3081 24.3091C16.3512 23.8786 16.7135 23.5507 17.1463 23.5507H18.5873L18.4814 22.761H15.0596L14.8564 24.2772C14.7524 25.0529 14.2553 25.435 14.2001 25.5104C13.9939 25.7262 14.1468 26.0838 14.4453 26.0838H15.8935C16.0193 25.8855 16.1836 25.5538 16.2324 25.0668Z" fill="#BEC8F7"/>
<path d="M7.74219 20.4154V21.5826C7.74219 22.2725 8.30352 22.8338 8.99344 22.8338H24.5473C25.2372 22.8338 25.7984 22.2725 25.7984 21.5826V20.4154H7.74219Z" fill="#E9EFFF"/>
<path d="M14.467 20.4154H7.74219V21.5826C7.74219 22.2725 8.30351 22.8338 8.99344 22.8338H14.3307C14.3665 22.7317 14.3559 22.6142 14.2859 22.5184C13.6307 21.6221 14.1026 20.8945 14.3862 20.5813C14.4296 20.5335 14.456 20.476 14.467 20.4154Z" fill="#D3DCFB"/>
<path d="M25.7976 26.2208V25.1694C25.7976 24.7452 25.4506 24.3982 25.0264 24.3982H23.569C23.1449 24.3982 22.7979 24.7452 22.7979 25.1694V26.2208H25.7976Z" fill="#D3DCFB"/>
<path d="M24.5473 9.75256H8.99344C8.30352 9.75256 7.74219 10.3138 7.74219 11.0038V11.4295H25.7984V11.0038C25.7984 10.3138 25.2372 9.75256 24.5473 9.75256Z" fill="#E80054"/>
<path d="M14.683 11.2919C14.1948 10.8775 14.2747 10.3907 14.4087 10.0773C14.4561 9.96616 14.4398 9.84538 14.3784 9.75256H8.99344C8.30351 9.75256 7.74219 10.3138 7.74219 11.0038V11.4295H14.7769C14.758 11.3773 14.7271 11.3294 14.683 11.2919Z" fill="#CC0053"/>
<path d="M30.711 8.09434C29.3425 8.27981 28.3007 9.49403 28.3901 10.9326C28.4733 12.2727 29.564 13.3634 30.9042 13.4465C32.3428 13.5358 33.5569 12.494 33.7424 11.1256C33.7686 10.9321 33.6139 10.7608 33.4186 10.7608H31.4014C31.2216 10.7608 31.0758 10.615 31.0758 10.4352V8.41802C31.0757 8.22278 30.9046 8.06809 30.711 8.09434Z" fill="#FFDD40"/>
<path d="M32.4209 7.07204V9.0897C32.4209 9.26954 32.5667 9.41532 32.7465 9.41532H34.7642C34.9585 9.41532 35.1137 9.24571 35.0878 9.05321C34.9268 7.85673 33.9796 6.90946 32.783 6.74844C32.5905 6.72251 32.4209 6.87774 32.4209 7.07204Z" fill="#FFE98D"/>
<path d="M24.8026 7.18478H20.59C20.042 7.18478 19.5938 6.7365 19.5938 6.18854V2.68619C19.5938 2.13822 20.042 1.68994 20.59 1.68994H24.8026C25.3506 1.68994 25.7988 2.13822 25.7988 2.68619V6.18846C25.7988 6.73643 25.3506 7.18478 24.8026 7.18478Z" fill="#FFDD40"/>
<path d="M19.5938 2.68627V6.18854C19.5938 6.7365 20.0421 7.18478 20.59 7.18478H23.4321C23.4302 7.11033 23.4069 7.03596 23.3608 6.97205C22.9701 6.43049 23.1801 5.95572 23.3644 5.69861C23.4566 5.57018 23.459 5.39752 23.3667 5.26916C22.3476 3.85119 23.0362 2.47291 23.3804 1.94463C23.4306 1.8676 23.449 1.77697 23.4372 1.68994H20.59C20.042 1.69002 19.5938 2.13838 19.5938 2.68627Z" fill="#FFB332"/>
<path d="M26.4959 5.49477H22.2834C21.7354 5.49477 21.2871 5.04648 21.2871 4.49852V0.99625C21.2871 0.448281 21.7354 0 22.2834 0H26.4959C27.0439 0 27.4922 0.448281 27.4922 0.99625V4.49852C27.4922 5.04648 27.0438 5.49477 26.4959 5.49477Z" fill="#FC90CE"/>
<path d="M23.4433 0H22.2834C21.7354 0 21.2871 0.448281 21.2871 0.99625V4.49852C21.2871 5.04648 21.7354 5.49477 22.2834 5.49477H23.4326C23.4355 5.41586 23.4139 5.33633 23.3655 5.26906C22.3464 3.85109 23.035 2.47281 23.3792 1.94453C23.4648 1.81328 23.4606 1.64219 23.3653 1.51789C22.8998 0.910781 23.1587 0.420469 23.3655 0.173672C23.4081 0.122891 23.4334 0.0626562 23.4433 0V0Z" fill="#F964B2"/>
<path d="M24.8012 1.68994H21.2871V4.49861C21.2871 5.04658 21.7354 5.49486 22.2834 5.49486H25.7975V2.68619C25.7975 2.1383 25.3492 1.68994 24.8012 1.68994Z" fill="#F964B2"/>
<path d="M23.3665 5.26916C22.3473 3.85119 23.0359 2.47291 23.3801 1.94463C23.4304 1.8676 23.4487 1.77697 23.4369 1.68994H21.2881V4.49861C21.2881 5.04658 21.7364 5.49486 22.2843 5.49486H23.4336C23.4365 5.41596 23.4148 5.33643 23.3665 5.26916Z" fill="#EA349C"/>
<path d="M12.4014 7.23597C12.0778 7.23597 11.8154 6.97363 11.8154 6.65004V5.23144C11.8154 4.90785 12.0778 4.64551 12.4014 4.64551C12.725 4.64551 12.9873 4.90785 12.9873 5.23144V6.65004C12.9873 6.97363 12.725 7.23597 12.4014 7.23597Z" fill="#9BD8F9"/>
<path d="M14.3955 7.23624C14.0719 7.23624 13.8096 6.9739 13.8096 6.6503V4.18335C13.8096 3.85976 14.0719 3.59741 14.3955 3.59741C14.7191 3.59741 14.9814 3.85976 14.9814 4.18335V6.6503C14.9814 6.9739 14.7191 7.23624 14.3955 7.23624Z" fill="#73C3F9"/>
<path d="M16.3906 7.23609C16.067 7.23609 15.8047 6.97375 15.8047 6.65016V3.13477C15.8047 2.81117 16.067 2.54883 16.3906 2.54883C16.7142 2.54883 16.9766 2.81117 16.9766 3.13477V6.65016C16.9766 6.97375 16.7142 7.23609 16.3906 7.23609Z" fill="#4FABF7"/>
<path d="M16.7707 19.1771C18.5479 19.1771 19.9887 17.7364 19.9887 15.9592C19.9887 14.1819 18.5479 12.7412 16.7707 12.7412C14.9935 12.7412 13.5527 14.1819 13.5527 15.9592C13.5527 17.7364 14.9935 19.1771 16.7707 19.1771Z" fill="#E9EFFF"/>
<path d="M35.9697 31.413V28.1333H26.4385V32.1269H35.4733C35.6439 31.8928 35.8095 31.6549 35.9697 31.413Z" fill="#E9EFFF"/>
<path d="M29.4024 29.1317C29.4024 28.616 29.8243 28.1942 30.3399 28.1942H35.9697V28.1333H26.4385V32.1269H29.4024V29.1317Z" fill="#D3DCFB"/>
<path d="M26.4385 32.127V36.1205H31.5532C33.0466 34.9883 34.3682 33.6418 35.4733 32.127H26.4385Z" fill="#D3DCFB"/>
<path d="M26.4385 32.127H29.4024V36.1205H26.4385V32.127Z" fill="#BEC8F7"/>
<path d="M31.5532 36.1202H26.4385V38.8888C28.2921 38.227 30.0136 37.2875 31.5532 36.1202Z" fill="#E9EFFF"/>
<path d="M29.4024 36.5672V36.1204H26.4385V38.889C27.6088 38.471 28.7263 37.9422 29.7787 37.3155C29.551 37.144 29.4024 36.8725 29.4024 36.5672Z" fill="#D3DCFB"/>
<path d="M36.7773 26.0645H5.11945C4.53141 26.0645 4.05469 26.5412 4.05469 27.1292C4.05469 27.7173 4.53141 28.194 5.11945 28.194H36.7773C37.3653 28.194 37.842 27.7173 37.842 27.1292C37.842 26.5412 37.3653 26.0645 36.7773 26.0645Z" fill="#3C58A0"/>
<path d="M14.0616 27.1292C14.0616 26.5412 14.5383 26.0645 15.1263 26.0645H5.11945C4.53141 26.0645 4.05469 26.5412 4.05469 27.1292C4.05469 27.7173 4.53141 28.194 5.11945 28.194H15.1263C14.5383 28.1941 14.0616 27.7173 14.0616 27.1292Z" fill="#2A428C"/>
<path d="M17.3092 21.6247C17.3092 21.9226 17.0677 22.1641 16.7698 22.1641C16.472 22.1641 16.2305 21.9226 16.2305 21.6247C16.2305 21.3268 16.472 21.0853 16.7698 21.0853C17.0677 21.0853 17.3092 21.3268 17.3092 21.6247Z" fill="#BEC8F7"/>
<path d="M5.66645 4.63916H3.87598C3.87598 6.26791 5.19637 7.58837 6.8252 7.58837C6.1852 7.58837 5.66645 6.26799 5.66645 4.63916Z" fill="#73C3F9"/>
<path d="M7.98395 4.63916C7.98395 6.26791 7.46512 7.58837 6.8252 7.58837C8.45402 7.58837 9.77441 6.26799 9.77441 4.63916H7.98395Z" fill="#73C3F9"/>
<path d="M7.98449 4.63916H5.66699C5.66699 6.26791 6.18582 7.58837 6.82574 7.58837C7.46566 7.58837 7.98449 6.26799 7.98449 4.63916Z" fill="#9BD8F9"/>
<path d="M6.8252 1.68994C7.4652 1.68994 7.98395 3.01033 7.98395 4.63916H9.77441C9.77441 3.01041 8.45402 1.68994 6.8252 1.68994Z" fill="#9BD8F9"/>
<path d="M5.66645 4.63916C5.66645 3.01033 6.18527 1.68994 6.8252 1.68994C5.19637 1.68994 3.87598 3.01033 3.87598 4.63916H5.66645Z" fill="#9BD8F9"/>
<path d="M6.82477 1.68994C6.18477 1.68994 5.66602 3.01033 5.66602 4.63916H7.98352C7.98352 3.01041 7.46477 1.68994 6.82477 1.68994Z" fill="#73C3F9"/>
<path d="M17.1354 16.7557L16.0601 14.6771C14.905 14.357 15.4709 13.0157 15.4709 13.0155C14.3413 13.515 13.5527 14.6447 13.5527 15.9593C13.5527 17.7365 14.9934 19.1772 16.7707 19.1772C17.3055 19.1772 17.8093 19.046 18.253 18.8153C16.4611 18.4728 17.1354 16.7557 17.1354 16.7557Z" fill="#D3DCFB"/>
<path d="M18.1088 15.7116L16.3026 14.6938C16.1132 14.587 15.8789 14.7238 15.8789 14.9413V16.9771C15.8789 17.1945 16.1131 17.3314 16.3026 17.2246L18.1088 16.2067C18.3016 16.098 18.3016 15.8203 18.1088 15.7116Z" fill="#FF4155"/>
<path d="M31.4014 10.761C31.2216 10.761 31.0758 10.6152 31.0758 10.4354V8.4182C31.0758 8.22289 30.9046 8.06828 30.711 8.09445C29.3425 8.27992 28.3007 9.49414 28.3901 10.9327C28.4733 12.2728 29.564 13.3635 30.9042 13.4466C31.0674 13.4568 31.2274 13.4516 31.3837 13.4338C29.8474 11.8768 31.4014 10.761 31.4014 10.761Z" fill="#FFB332"/>
<path d="M35.1495 19.0161H28.1584C27.6625 19.0161 27.2568 19.4218 27.2568 19.9177V20.8199C27.2568 21.3158 27.6625 21.7215 28.1584 21.7215H35.1495V19.0161Z" fill="#E9EFFF"/>
<path d="M30.1084 20.3688C30.1084 19.6248 30.7171 19.0161 31.4611 19.0161H28.1584C27.6625 19.0161 27.2568 19.4218 27.2568 19.9177V20.8199C27.2568 21.3158 27.6625 21.7215 28.1584 21.7215H31.4611C30.7171 21.7214 30.1084 21.1127 30.1084 20.3688Z" fill="#BEC8F7"/>
<path d="M35.1495 22.3074H28.1584C27.3382 22.3074 26.6709 21.6401 26.6709 20.8199V19.9177C26.6709 19.0974 27.3382 18.4302 28.1584 18.4302H35.1495C35.4731 18.4302 35.7354 18.6925 35.7354 19.0161C35.7354 19.3397 35.4731 19.6021 35.1495 19.6021H28.1584C27.9873 19.6021 27.8428 19.7466 27.8428 19.9177V20.8199C27.8428 20.991 27.9873 21.1356 28.1584 21.1356H35.1495C35.4731 21.1356 35.7354 21.3979 35.7354 21.7215C35.7354 22.0451 35.4731 22.3074 35.1495 22.3074Z" fill="#FFC839"/>
<path d="M29.9521 21.7215C29.9521 21.3979 30.2145 21.1356 30.5381 21.1356H28.1585C27.9873 21.1356 27.8428 20.991 27.8428 20.8199V19.9177C27.8428 19.7467 27.9873 19.6021 28.1585 19.6021H30.5381C30.2145 19.6021 29.9521 19.3397 29.9521 19.0161C29.9521 18.6925 30.2145 18.4302 30.5381 18.4302H28.1585C27.3382 18.4302 26.6709 19.0974 26.6709 19.9177V20.8199C26.6709 21.6401 27.3382 22.3074 28.1585 22.3074H30.5381C30.2145 22.3074 29.9521 22.0451 29.9521 21.7215Z" fill="#FFB332"/>
</g>
<defs>
<clipPath id="clip0">
<rect width="40" height="40" fill="white"/>
</clipPath>
</defs>
</svg>
