<svg width="40" height="40" viewBox="0 0 40 40" fill="none" xmlns="http://www.w3.org/2000/svg">
<g clip-path="url(#clip0)">
<path d="M33.5456 34.3825C37.003 30.9195 39.1409 26.139 39.1409 20.859C39.1409 10.2879 30.5713 1.71826 20.0002 1.71826C9.42891 1.71826 0.859375 10.2879 0.859375 20.859C0.859375 24.5391 1.89891 27.9761 3.69891 30.8939L33.5456 34.3825Z" fill="#FFDD40"/>
<path d="M6.38574 6.50305V9.39157H30.9737C32.3459 9.39157 33.4622 10.5079 33.4622 11.8801V32.092H33.7136C35.1656 32.092 36.3535 30.9041 36.3535 29.4521V6.50305H6.38574Z" fill="#73C3F9"/>
<path d="M12.6311 6.64235L12.7301 6.50305H6.38574V9.39157H12.6182C12.6081 9.28594 12.5662 9.18594 12.4975 9.10375C11.5921 8.02055 12.5334 6.76829 12.6167 6.6618C12.6218 6.6554 12.6265 6.64891 12.6311 6.64235Z" fill="#4FABF7"/>
<path d="M33.7136 0H9.02559C7.57363 0 6.38574 1.18797 6.38574 2.63992V4.37789H36.3535V2.63992C36.3535 1.18797 35.1656 0 33.7136 0Z" fill="#2A428C"/>
<path d="M14.1539 3.99258C13.9613 3.63398 14.124 3.31594 14.2429 3.15375C14.3065 3.0668 14.3402 2.96211 14.3402 2.8543V1.52867C14.3402 1.41969 14.3077 1.31164 14.2405 1.22586C13.9016 0.792812 14.0836 0.367812 14.225 0.150078C14.2551 0.10375 14.276 0.0528906 14.2886 0H9.02566C7.57379 0 6.38574 1.18797 6.38574 2.63992V4.37797H14.2C14.234 4.25086 14.2187 4.11305 14.1539 3.99258Z" fill="#1C2E7A"/>
<path d="M9.63519 3.04004C10.1052 3.04004 10.4862 2.65903 10.4862 2.18903C10.4862 1.71903 10.1052 1.33801 9.63519 1.33801C9.16519 1.33801 8.78418 1.71903 8.78418 2.18903C8.78418 2.65903 9.16519 3.04004 9.63519 3.04004Z" fill="#FF4155"/>
<path d="M11.9877 3.04004C12.4577 3.04004 12.8387 2.65903 12.8387 2.18903C12.8387 1.71903 12.4577 1.33801 11.9877 1.33801C11.5177 1.33801 11.1367 1.71903 11.1367 2.18903C11.1367 2.65903 11.5177 3.04004 11.9877 3.04004Z" fill="#FFDD40"/>
<path d="M14.3403 3.04004C14.8103 3.04004 15.1913 2.65903 15.1913 2.18903C15.1913 1.71903 14.8103 1.33801 14.3403 1.33801C13.8703 1.33801 13.4893 1.71903 13.4893 2.18903C13.4893 2.65903 13.8703 3.04004 14.3403 3.04004Z" fill="#38C674"/>
<path d="M15.0403 4.23706C15.0403 5.57206 13.958 6.65433 12.623 6.65433H36.3541V4.23706H15.0403Z" fill="#E9EFFF"/>
<path d="M6.38574 4.23706V6.65433H12.7739C14.1089 6.65433 15.1911 5.57206 15.1911 4.23706H6.38574Z" fill="#1E9EF4"/>
<path d="M26.5245 2.75677H17.9856C17.6721 2.75677 17.418 2.50263 17.418 2.18912C17.418 1.8756 17.6721 1.62146 17.9856 1.62146H26.5245C26.838 1.62146 27.0921 1.8756 27.0921 2.18912C27.0921 2.50263 26.838 2.75677 26.5245 2.75677Z" fill="#3C58A0"/>
<path d="M33.4609 2.75677H32.721C32.4075 2.75677 32.1533 2.50263 32.1533 2.18912C32.1533 1.8756 32.4075 1.62146 32.721 1.62146H33.4609C33.7744 1.62146 34.0286 1.8756 34.0286 2.18912C34.0286 2.50263 33.7744 2.75677 33.4609 2.75677Z" fill="#3C58A0"/>
<path d="M30.8896 2.75677H30.1497C29.8362 2.75677 29.582 2.50263 29.582 2.18912C29.582 1.8756 29.8362 1.62146 30.1497 1.62146H30.8896C31.2031 1.62146 31.4573 1.8756 31.4573 2.18912C31.4573 2.50263 31.2031 2.75677 30.8896 2.75677Z" fill="#3C58A0"/>
<path d="M3.64648 15.7434V30.8099C4.33305 31.9359 5.13281 32.9854 6.02961 33.9426L14.0352 39.0518C15.9125 39.667 17.9175 40.0001 20.0004 40.0001C25.3268 40.0001 30.1444 37.8237 33.6143 34.3126V15.7434H3.64648Z" fill="#9BD8F9"/>
<path d="M9.89398 15.8797L9.99086 15.7434H3.64648V30.8099C4.33305 31.9359 5.13273 32.9853 6.02961 33.9426L10.0361 36.4995C10.1121 36.1153 10.2895 35.8141 10.4297 35.6247C10.5134 35.5117 10.4775 35.3531 10.3566 35.2815C9.59773 34.8321 9.64195 33.7104 9.64641 33.6272C9.64664 33.6232 9.64672 33.6198 9.64672 33.6158V22.7433C9.64672 21.732 10.1218 21.2858 10.4485 21.0986C10.5769 21.025 10.6048 20.856 10.5081 20.744C9.88727 20.025 10.4745 19.3037 10.683 19.0872C10.7256 19.0429 10.75 18.9843 10.75 18.9229V18.0433C10.75 17.9499 10.6943 17.8661 10.6094 17.8276C9.2957 17.2317 9.79773 16.0721 9.8743 15.9129C9.87984 15.9012 9.88641 15.8904 9.89398 15.8797Z" fill="#73C3F9"/>
<path d="M30.9744 9.24036H6.28641C4.83445 9.24036 3.64648 10.4283 3.64648 11.8803V13.6183H33.6143V11.8803C33.6143 10.4282 32.4263 9.24036 30.9744 9.24036Z" fill="#2A428C"/>
<path d="M11.4898 13.3501C11.1502 12.8965 11.4227 12.4862 11.5471 12.3385C11.5823 12.2966 11.6009 12.2433 11.6009 12.1886V10.6712C11.6009 10.6148 11.581 10.5597 11.5437 10.5175C11.1513 10.0743 11.3149 9.64739 11.4626 9.41676C11.4974 9.36239 11.5076 9.29911 11.4958 9.24036H6.28641C4.83445 9.24036 3.64648 10.4283 3.64648 11.8803V13.6183H11.4997C11.5523 13.5358 11.5488 13.429 11.4898 13.3501Z" fill="#1C2E7A"/>
<path d="M7.74598 11.4293C7.74598 11.8993 7.36496 12.2803 6.89496 12.2803C6.42496 12.2803 6.04395 11.8993 6.04395 11.4293C6.04395 10.9593 6.42496 10.5782 6.89496 10.5782C7.36496 10.5782 7.74598 10.9593 7.74598 11.4293Z" fill="#FF4155"/>
<path d="M10.0995 11.4293C10.0995 11.8993 9.71847 12.2803 9.24847 12.2803C8.77847 12.2803 8.39746 11.8993 8.39746 11.4293C8.39746 10.9593 8.77847 10.5782 9.24847 10.5782C9.71847 10.5783 10.0995 10.9593 10.0995 11.4293Z" fill="#FFDD40"/>
<path d="M12.452 11.4293C12.452 11.8993 12.071 12.2803 11.601 12.2803C11.131 12.2803 10.75 11.8993 10.75 11.4293C10.75 10.9593 11.131 10.5782 11.601 10.5782C12.071 10.5783 12.452 10.9593 12.452 11.4293Z" fill="#38C674"/>
<path d="M12.3001 13.4773C12.3001 14.8123 11.2178 15.8946 9.88281 15.8946H33.6138V13.4773H12.3001Z" fill="#E9EFFF"/>
<path d="M3.64648 13.4773V15.8946H10.0347C11.3697 15.8946 12.452 14.8123 12.452 13.4773H3.64648Z" fill="#4FABF7"/>
<path d="M30.5712 20.9735H6.69023C6.23 20.9735 5.85352 21.35 5.85352 21.8102V33.7519C6.43805 34.393 7.06609 34.9936 7.73211 35.5504H31.408V21.8102C31.4079 21.35 31.0314 20.9735 30.5712 20.9735Z" fill="#E9EFFF"/>
<path d="M10.3569 35.2814C9.59805 34.8321 9.64227 33.7104 9.64672 33.6271C9.64695 33.6232 9.64703 33.6198 9.64703 33.6158V22.7432C9.64703 21.7319 10.1221 21.2857 10.4488 21.0985C10.5004 21.0689 10.5348 21.0238 10.5524 20.9734H6.69023C6.23008 20.9734 5.85352 21.3499 5.85352 21.8101V33.7517C6.43813 34.3928 7.06609 34.9935 7.73211 35.5503H10.4655C10.4942 35.45 10.453 35.3384 10.3569 35.2814Z" fill="#D3DCFB"/>
<path d="M15.9351 33.0543H13.8643V30.5028C13.8643 29.9309 14.3279 29.4673 14.8997 29.4673C15.4716 29.4673 15.9352 29.9309 15.9352 30.5028V33.0543H15.9351Z" fill="#FF4155"/>
<path d="M20.0767 33.0544H18.0059V31.4738C18.0059 30.9019 18.4695 30.4384 19.0412 30.4384C19.6131 30.4384 20.0767 30.9019 20.0767 31.4738V33.0544Z" fill="#FFDD40"/>
<path d="M24.2183 33.0544H22.1475V27.9526C22.1475 27.3807 22.6111 26.9171 23.1829 26.9171C23.7548 26.9171 24.2183 27.3807 24.2183 27.9526V33.0544Z" fill="#73C3F9"/>
<path d="M28.3599 33.0543H26.2891V26.0106C26.2891 25.4387 26.7527 24.9751 27.3245 24.9751C27.8964 24.9751 28.36 25.4387 28.36 26.0106V33.0543H28.3599Z" fill="#38C674"/>
<path d="M14.8996 31.7539C14.3278 31.7539 13.8643 31.2903 13.8643 30.7184V33.0544H15.9351V30.7184C15.935 31.2903 15.4714 31.7539 14.8996 31.7539Z" fill="#E80054"/>
<path d="M19.0413 31.7539C18.6029 31.7539 18.2291 31.481 18.078 31.0962C18.032 31.2133 18.0059 31.3404 18.0059 31.4739V33.0545H20.0767V31.4739C20.0767 31.3405 20.0505 31.2134 20.0046 31.0962C19.8536 31.481 19.4797 31.7539 19.0413 31.7539Z" fill="#FFB332"/>
<path d="M23.1829 31.7539C22.611 31.7539 22.1475 31.2903 22.1475 30.7185V33.0544H24.2183V30.7185C24.2182 31.2903 23.7547 31.7539 23.1829 31.7539Z" fill="#4FABF7"/>
<path d="M27.3245 31.7539C26.7527 31.7539 26.2891 31.2903 26.2891 30.7185V33.0544H28.3599V30.7185C28.36 31.2903 27.8964 31.7539 27.3245 31.7539Z" fill="#24B55E"/>
<path d="M11.2452 29.27H8.04715C7.73363 29.27 7.47949 29.0158 7.47949 28.7023C7.47949 28.3888 7.73363 28.1346 8.04715 28.1346H11.2452C11.5587 28.1346 11.8129 28.3888 11.8129 28.7023C11.8129 29.0158 11.5587 29.27 11.2452 29.27Z" fill="#BEC8F7"/>
<path d="M11.2452 27.0938H8.04715C7.73363 27.0938 7.47949 26.8397 7.47949 26.5262C7.47949 26.2126 7.73363 25.9585 8.04715 25.9585H11.2452C11.5587 25.9585 11.8129 26.2126 11.8129 26.5262C11.8129 26.8397 11.5587 27.0938 11.2452 27.0938Z" fill="#BEC8F7"/>
<path d="M9.56871 24.9178H8.04715C7.73363 24.9178 7.47949 24.6636 7.47949 24.3501C7.47949 24.0366 7.73363 23.7825 8.04715 23.7825H9.56871C9.88223 23.7825 10.1364 24.0366 10.1364 24.3501C10.1364 24.6636 9.88223 24.9178 9.56871 24.9178Z" fill="#167CC1"/>
<path d="M11.2452 31.4461H8.04715C7.73363 31.4461 7.47949 31.192 7.47949 30.8784C7.47949 30.5649 7.73363 30.3108 8.04715 30.3108H11.2452C11.5587 30.3108 11.8129 30.5649 11.8129 30.8784C11.8129 31.192 11.5587 31.4461 11.2452 31.4461Z" fill="#BEC8F7"/>
<path d="M11.2452 33.6221H8.04715C7.73363 33.6221 7.47949 33.368 7.47949 33.0545C7.47949 32.7409 7.73363 32.4868 8.04715 32.4868H11.2452C11.5587 32.4868 11.8129 32.741 11.8129 33.0545C11.8129 33.368 11.5587 33.6221 11.2452 33.6221Z" fill="#BEC8F7"/>
<path d="M19.0421 29.342C18.9992 29.342 18.9556 29.3371 18.912 29.3269L14.7703 28.3559C14.465 28.2844 14.2756 27.979 14.3471 27.6737C14.4187 27.3684 14.7242 27.1791 15.0294 27.2505L19.1711 28.2215C19.4764 28.293 19.6658 28.5984 19.5942 28.9037C19.5329 29.1655 19.2996 29.342 19.0421 29.342Z" fill="#FFB332"/>
<path d="M19.0406 29.3418C18.8798 29.3418 18.7201 29.274 18.6078 29.1418C18.4048 28.9029 18.4338 28.5447 18.6726 28.3416L22.8143 24.8204C23.0531 24.6173 23.4114 24.6463 23.6145 24.8852C23.8175 25.1241 23.7885 25.4824 23.5497 25.6854L19.408 29.2066C19.3013 29.2974 19.1706 29.3418 19.0406 29.3418Z" fill="#73C3F9"/>
<path d="M23.1824 25.8208C22.9691 25.8208 22.7646 25.6999 22.6681 25.4939C22.535 25.2101 22.6571 24.872 22.941 24.7389L27.0828 22.7969C27.3667 22.664 27.7046 22.7861 27.8377 23.07C27.9708 23.3538 27.8487 23.6919 27.5648 23.825L23.4231 25.7669C23.3452 25.8034 23.2632 25.8208 23.1824 25.8208Z" fill="#38C674"/>
<path d="M14.2816 39.1307H25.7192C27.7884 38.4838 29.7065 37.4948 31.4076 36.2303V35.3989H7.55273C9.49688 37.0649 11.7784 38.3481 14.2816 39.1307Z" fill="#FF4155"/>
<path d="M10.0248 37.1957C9.90828 36.476 10.2132 35.9171 10.4297 35.6246C10.4803 35.5563 10.4866 35.4713 10.4573 35.3989H7.55273C8.32562 36.0612 9.15258 36.6618 10.0248 37.1957Z" fill="#E80054"/>
<path d="M22.6051 17.4594H15.6953V19.4489H22.6051C23.1546 19.4489 23.5999 19.0035 23.5999 18.4541C23.5999 17.9047 23.1546 17.4594 22.6051 17.4594Z" fill="#E9EFFF"/>
<path d="M18.1947 18.4541C18.1947 17.9047 18.6401 17.4594 19.1895 17.4594H15.6953V19.4489H19.1895C18.64 19.4489 18.1947 19.0036 18.1947 18.4541Z" fill="#D3DCFB"/>
<path d="M15.7715 17.4594H14.6549C14.1055 17.4594 13.6602 17.9047 13.6602 18.4541C13.6602 19.0036 14.1055 19.4489 14.6549 19.4489H15.7715V17.4594Z" fill="#3C58A0"/>
<path d="M10.7495 19.0218H6.8948C6.58129 19.0218 6.32715 18.7676 6.32715 18.4541C6.32715 18.1405 6.58129 17.8865 6.8948 17.8865H10.7495C11.063 17.8865 11.3171 18.1406 11.3171 18.4541C11.3171 18.7677 11.063 19.0218 10.7495 19.0218Z" fill="#4FABF7"/>
<path d="M23.7852 11.9968H15.2464C14.9329 11.9968 14.6787 11.7426 14.6787 11.4291C14.6787 11.1156 14.9329 10.8615 15.2464 10.8615H23.7852C24.0987 10.8615 24.3529 11.1156 24.3529 11.4291C24.3529 11.7426 24.0987 11.9968 23.7852 11.9968Z" fill="#3C58A0"/>
<path d="M30.7216 11.9968H29.9817C29.6682 11.9968 29.4141 11.7426 29.4141 11.4291C29.4141 11.1156 29.6682 10.8615 29.9817 10.8615H30.7216C31.0352 10.8615 31.2893 11.1156 31.2893 11.4291C31.2893 11.7426 31.0352 11.9968 30.7216 11.9968Z" fill="#3C58A0"/>
<path d="M28.1484 11.9968H27.4085C27.095 11.9968 26.8408 11.7426 26.8408 11.4291C26.8408 11.1156 27.095 10.8615 27.4085 10.8615H28.1484C28.4619 10.8615 28.7161 11.1156 28.7161 11.4291C28.7161 11.7426 28.4619 11.9968 28.1484 11.9968Z" fill="#3C58A0"/>
<path d="M28.9565 33.6221H13.2659C12.9524 33.6221 12.6982 33.368 12.6982 33.0545C12.6982 32.7409 12.9524 32.4868 13.2659 32.4868H28.9565C29.27 32.4868 29.5241 32.741 29.5241 33.0545C29.5241 33.368 29.27 33.6221 28.9565 33.6221Z" fill="#D3DCFB"/>
<path d="M27.2815 37.8292H17.8089C17.4954 37.8292 17.2412 37.575 17.2412 37.2615C17.2412 36.948 17.4954 36.6938 17.8089 36.6938H27.2815C27.5951 36.6938 27.8492 36.948 27.8492 37.2615C27.8492 37.5751 27.5951 37.8292 27.2815 37.8292Z" fill="#FF7186"/>
<path d="M17.8078 37.8292H11.5891C11.2756 37.8292 11.0215 37.575 11.0215 37.2615C11.0215 36.948 11.2756 36.6938 11.5891 36.6938H17.8078C18.1213 36.6938 18.3755 36.948 18.3755 37.2615C18.3755 37.5751 18.1213 37.8292 17.8078 37.8292Z" fill="#E9EFFF"/>
<path d="M17.8089 38.4023C17.4954 38.4023 17.2412 38.1481 17.2412 37.8346V36.7066C17.2412 36.393 17.4954 36.1389 17.8089 36.1389C18.1224 36.1389 18.3765 36.3931 18.3765 36.7066V37.8346C18.3765 38.1482 18.1224 38.4023 17.8089 38.4023Z" fill="#E80054"/>
<path d="M14.8987 34.596C14.5852 34.596 14.3311 34.3418 14.3311 34.0283V33.3572C14.3311 33.0437 14.5852 32.7896 14.8987 32.7896C15.2122 32.7896 15.4664 33.0437 15.4664 33.3572V34.0283C15.4664 34.3418 15.2122 34.596 14.8987 34.596Z" fill="#BEC8F7"/>
<path d="M19.0413 34.596C18.7278 34.596 18.4736 34.3418 18.4736 34.0283V33.3572C18.4736 33.0437 18.7278 32.7896 19.0413 32.7896C19.3548 32.7896 19.6089 33.0437 19.6089 33.3572V34.0283C19.6089 34.3418 19.3548 34.596 19.0413 34.596Z" fill="#BEC8F7"/>
<path d="M23.1829 34.596C22.8694 34.596 22.6152 34.3418 22.6152 34.0283V33.3572C22.6152 33.0437 22.8694 32.7896 23.1829 32.7896C23.4964 32.7896 23.7505 33.0437 23.7505 33.3572V34.0283C23.7505 34.3418 23.4964 34.596 23.1829 34.596Z" fill="#BEC8F7"/>
<path d="M27.3245 34.596C27.011 34.596 26.7568 34.3418 26.7568 34.0283V33.3572C26.7568 33.0437 27.011 32.7896 27.3245 32.7896C27.638 32.7896 27.8921 33.0437 27.8921 33.3572V34.0283C27.8921 34.3418 27.638 34.596 27.3245 34.596Z" fill="#BEC8F7"/>
</g>
<defs>
<clipPath id="clip0">
<rect width="40" height="40" fill="white"/>
</clipPath>
</defs>
</svg>
