<svg width="11" height="14" viewBox="0 0 11 14" fill="none" xmlns="http://www.w3.org/2000/svg">
<path d="M1.86161 13.5V11.322H0.349609V10.062H1.86161V8.91H0.349609V7.47H1.86161V0.719999H6.28961C7.10561 0.719999 7.80161 0.923999 8.37761 1.332C8.95361 1.728 9.39161 2.238 9.69161 2.862C10.0036 3.486 10.1596 4.134 10.1596 4.806C10.1596 5.502 10.0156 6.168 9.72761 6.804C9.43961 7.428 9.01361 7.938 8.44961 8.334C7.89761 8.718 7.21361 8.91 6.39761 8.91H3.48161V10.062H6.30761V11.322H3.48161V13.5H1.86161ZM3.48161 7.47H6.30761C6.87161 7.47 7.31561 7.35 7.63961 7.11C7.96361 6.87 8.19161 6.546 8.32361 6.138C8.45561 5.73 8.52161 5.286 8.52161 4.806C8.52161 4.05 8.33561 3.42 7.96361 2.916C7.59161 2.412 6.99761 2.16 6.18161 2.16H3.48161V7.47Z" fill="black"/>
</svg>
