<svg width="40" height="40" viewBox="0 0 40 40" fill="none" xmlns="http://www.w3.org/2000/svg">
<g clip-path="url(#clip0)">
<path d="M20.0002 1.71851C9.42898 1.71851 0.859375 10.2881 0.859375 20.8593C0.859375 23.2991 1.3168 25.6319 2.14906 27.7778L30.205 37.0545C35.5742 33.6642 39.141 27.6787 39.141 20.8594C39.1409 10.2882 30.5713 1.71851 20.0002 1.71851Z" fill="#1C2E7A"/>
<path d="M29.5311 34.3027H12.7598V38.5815C14.9932 39.4951 17.4372 40 19.9995 40C23.7859 40 27.3152 38.9003 30.2861 37.0033V35.0578C30.2862 34.6425 29.9464 34.3027 29.5311 34.3027Z" fill="#FF9100"/>
<path d="M28.1999 34.4719C27.3188 34.8736 26.7236 35.6171 26.7236 36.4639C26.7236 37.2101 27.1859 37.8762 27.8986 38.299C27.9997 38.2531 28.0999 38.2058 28.2 38.1583V34.4719H28.1999Z" fill="#BEC8F7"/>
<path d="M27.8994 38.2991C27.1866 37.8763 26.7244 37.2102 26.7244 36.464C26.7244 35.478 27.5312 34.632 28.6569 34.3027H6.37695C8.21203 36.1622 10.4245 37.6477 12.8908 38.6351H27.1102C27.3762 38.5287 27.6395 38.417 27.8994 38.2991Z" fill="#E9EFFF"/>
<path d="M12.7895 34.3027H6.37695C7.9125 35.8587 9.7132 37.1516 11.7048 38.1111C10.5837 36.9089 11.1212 34.7523 12.7895 34.3027Z" fill="#BEC8F7"/>
<path d="M29.5309 0.501465H4.99129C3.40895 0.501465 2.11426 1.79615 2.11426 3.3785V27.6883C3.09684 30.26 4.61754 32.5654 6.53949 34.4666H29.5309C29.9461 34.4666 30.2859 34.8064 30.2859 35.2216V20.2968C29.7214 20.4137 29.137 20.4753 28.5385 20.4753C23.7933 20.4753 19.9329 16.6148 19.9329 11.8697C19.9329 7.12451 23.7933 3.26404 28.5385 3.26404C29.1371 3.26404 29.7214 3.32568 30.2859 3.44256V1.25654C30.2859 0.84123 29.9461 0.501465 29.5309 0.501465Z" fill="#FFB332"/>
<path d="M10.9888 32.1627V16.9772C10.9888 15.8536 11.6929 14.8871 12.6815 14.4954V0.501465H4.99129C3.40895 0.501465 2.11426 1.79615 2.11426 3.3785V27.6883C3.09684 30.26 4.61754 32.5654 6.53949 34.4666H12.3167C11.5243 34.0026 10.9888 33.1424 10.9888 32.1627Z" fill="#FF9100"/>
<path d="M12.6377 7.99878V11.8698H19.934C19.934 10.4783 20.2664 9.16307 20.8553 7.99878H12.6377Z" fill="#FFDD40"/>
<path d="M7.43859 0.501465H5.22461V33.0274C5.63859 33.5295 6.0782 34.0094 6.54039 34.4667H7.43859V0.501465Z" fill="#FFB332"/>
<path d="M12.3474 0H10.3093C10.0263 0 9.79688 0.229453 9.79688 0.512422V14.3737C9.79688 14.6633 10.147 14.8083 10.3517 14.6035L10.8945 14.0608C11.1341 13.8212 11.5226 13.8212 11.7623 14.0608L12.3051 14.6036C12.5099 14.8084 12.8599 14.6634 12.8599 14.3738V0.5125C12.8599 0.229453 12.6305 0 12.3474 0V0Z" fill="#FF4155"/>
<path d="M11.3284 9.55375C10.6242 9.55375 10.026 9.10719 9.79688 8.48242V14.374C9.79688 14.6636 10.147 14.8086 10.3517 14.6038L10.8945 14.0611C11.1341 13.8215 11.5227 13.8215 11.7623 14.0611L12.3051 14.6039C12.5098 14.8087 12.8599 14.6637 12.8599 14.3741V8.48242C12.6307 9.10711 12.0325 9.55375 11.3284 9.55375Z" fill="#E80054"/>
<path d="M34.7295 18.0662C38.1507 14.645 38.1507 9.09815 34.7295 5.67694C31.3083 2.25573 25.7614 2.25573 22.3402 5.67694C18.9189 9.09815 18.9189 14.645 22.3402 18.0662C25.7614 21.4874 31.3083 21.4874 34.7295 18.0662Z" fill="#4FABF7"/>
<path d="M33.0982 18.3922C32.007 18.3243 31.8524 17.402 31.8304 17.1383C31.8263 17.0884 31.8114 17.0404 31.7874 16.9965L25.9594 6.38128C25.9312 6.3298 25.8915 6.2848 25.8417 6.25378C25.1162 5.80167 25.3041 4.97222 25.4703 4.53597C25.5279 4.38464 25.4729 4.21839 25.3422 4.12269C25.2189 4.03245 25.149 3.92097 25.1125 3.80542C24.7893 3.94323 24.4708 4.10151 24.1588 4.28159C19.968 6.70113 18.5321 12.0598 20.9518 16.2505C23.3713 20.4412 28.7299 21.8771 32.9207 19.4575C33.145 19.328 33.361 19.1896 33.5693 19.0439C33.492 18.9344 33.4576 18.8141 33.4453 18.7065C33.4252 18.5315 33.2742 18.4032 33.0982 18.3922Z" fill="#1E9EF4"/>
<path d="M22.1837 17.9039C22.3321 17.8583 22.4779 17.7962 22.6181 17.7152L24.0761 16.8734L21.984 13.2498L20.526 14.0916C20.3843 14.1733 20.2562 14.2697 20.1416 14.3769C20.3335 15.0176 20.6018 15.6464 20.9507 16.2508C21.3035 16.8617 21.7189 17.4135 22.1837 17.9039Z" fill="#2A428C"/>
<path d="M21.2355 16.5346C21.1454 16.2789 21.2478 15.9902 21.482 15.8537C21.4845 15.8522 21.487 15.8508 21.4895 15.8493L22.1956 15.4416C22.6109 15.2019 23.142 15.3441 23.3818 15.7594L24.0376 16.8954L24.0761 16.8732L21.984 13.2495L20.526 14.0913C20.3842 14.1731 20.2562 14.2694 20.1416 14.3766C20.3335 15.0173 20.6018 15.6462 20.9508 16.2506C21.0869 16.4863 21.2325 16.7129 21.3865 16.9309C21.3329 16.7997 21.2824 16.6675 21.2355 16.5346Z" fill="#1C2E7A"/>
<path d="M31.1926 12.8971C30.8814 12.6561 30.8244 12.2085 31.0654 11.8973C31.8205 10.9218 31.0111 9.51895 29.7882 9.68528C29.3983 9.73832 29.0391 9.4652 28.986 9.0752C28.9332 8.68536 29.2061 8.3259 29.5961 8.27309C32.0804 7.9352 33.7277 10.7864 32.1923 12.7697C31.9507 13.0814 31.5034 13.1376 31.1926 12.8971Z" fill="#73C3F9"/>
<path d="M33.3097 13.9068C32.9729 13.7032 32.865 13.2651 33.0686 12.9283C34.5442 10.4879 32.7484 7.37708 29.8969 7.43474C29.5035 7.4427 29.178 7.1302 29.1701 6.73669C29.1622 6.34333 29.4747 6.01786 29.8681 6.00989C33.8405 5.92942 36.3442 10.2654 34.2881 13.6657C34.0839 14.0036 33.6452 14.1097 33.3097 13.9068Z" fill="#73C3F9"/>
<path d="M33.2132 19.9651C28.7494 22.5423 23.021 21.0073 20.4439 16.5436C17.8667 12.0798 19.4016 6.3514 23.8654 3.77421C28.3292 1.19702 34.0575 2.73194 36.6348 7.19577C39.212 11.6595 37.677 17.3879 33.2132 19.9651ZM24.4513 4.78905C20.5471 7.04319 19.2046 12.0534 21.4587 15.9577C23.7129 19.8619 28.723 21.2043 32.6273 18.9502C36.5315 16.6961 37.874 11.6859 35.6198 7.78171C33.3658 3.87749 28.3555 2.53499 24.4513 4.78905Z" fill="#73C3F9"/>
<path d="M33.4448 18.7067C33.4351 18.6213 33.3938 18.5474 33.3341 18.4925C33.1088 18.6554 32.8732 18.8083 32.6273 18.9502C28.7231 21.2043 23.713 19.8619 21.4588 15.9577C19.2047 12.0535 20.5471 7.04323 24.4513 4.78909C24.7835 4.59729 25.1238 4.43222 25.4697 4.29183C25.4452 4.2262 25.402 4.16683 25.3418 4.12276C25.0461 3.90636 25.055 3.56862 25.1049 3.34214C25.1173 3.28612 25.1155 3.22956 25.1019 3.17651C24.6816 3.343 24.2683 3.54159 23.8654 3.77417C19.4016 6.35135 17.8667 12.0797 20.4439 16.5435C23.021 21.0074 28.7494 22.5422 33.2132 19.965C33.5212 19.7872 33.8147 19.5939 34.0944 19.3875C34.0593 19.3598 34.019 19.3373 33.9739 19.3228C33.5853 19.1983 33.4701 18.926 33.4448 18.7067Z" fill="#4FABF7"/>
<path d="M23.1879 12.0566L21.9332 12.7809C21.7664 12.8772 21.7093 13.0905 21.8055 13.2573L23.9806 17.0246C24.077 17.1914 24.2902 17.2485 24.457 17.1523L25.7116 16.4279C25.8784 16.3316 25.9356 16.1184 25.8393 15.9515L23.6643 12.1842C23.568 12.0174 23.3547 11.9602 23.1879 12.0566Z" fill="#3C58A0"/>
<path d="M23.5746 15.0252L24.2484 14.6362C24.5317 14.4726 24.875 14.5091 25.1164 14.701L23.6633 12.1842C23.5671 12.0174 23.3537 11.9602 23.1869 12.0566L21.9322 12.7809C21.7654 12.8772 21.7083 13.0905 21.8046 13.2573L23.189 15.6552C23.2025 15.4025 23.3389 15.1612 23.5746 15.0252Z" fill="#2A428C"/>
<path d="M25.8144 6.65503L23.5818 11.2435C23.4068 11.5299 23.4022 11.8891 23.57 12.1797C24.2654 13.3842 25.061 14.7621 25.7564 15.9665C25.9242 16.2571 26.2375 16.4328 26.5729 16.4245L31.7028 16.8541L25.8144 6.65503Z" fill="#D3DCFB"/>
<path d="M25.1315 14.0193L25.9803 12.313C26.4868 11.2947 27.6915 10.9916 28.581 11.4469L25.8144 6.65503L23.5818 11.2435C23.4068 11.5299 23.4022 11.8891 23.57 12.1797C24.0191 12.9575 24.5097 13.8073 24.9884 14.6364C24.9667 14.4253 25.0142 14.2079 25.1315 14.0193Z" fill="#BEC8F7"/>
<path d="M31.8262 17.0685C31.4853 17.2653 31.0495 17.1486 30.8527 16.8077L25.3749 7.31977C25.1781 6.97891 25.2949 6.54313 25.6358 6.34633C25.9766 6.14953 26.4124 6.26633 26.6092 6.60719L32.0871 16.0952C32.2838 16.436 32.167 16.8718 31.8262 17.0685Z" fill="#E9EFFF"/>
<path d="M28.0528 10.5308C28.3149 10.3795 28.625 10.3883 28.8715 10.5257L26.6091 6.60715C26.4123 6.26629 25.9765 6.14957 25.6357 6.34629C25.2949 6.54309 25.1781 6.97887 25.3749 7.31973L27.639 11.2412C27.6419 10.9576 27.7895 10.6829 28.0528 10.5308Z" fill="#D3DCFB"/>
</g>
<defs>
<clipPath id="clip0">
<rect width="40" height="40" fill="white"/>
</clipPath>
</defs>
</svg>
