<svg width="40" height="40" viewBox="0 0 40 40" fill="none" xmlns="http://www.w3.org/2000/svg">
<path d="M9.36351 36.7737C11.5529 38.2399 14.0616 39.2657 16.7633 39.7259H23.237C25.9388 39.2657 28.4475 38.2399 30.6369 36.7737L37.197 29.271C38.4414 26.7319 39.1409 23.8774 39.1409 20.859C39.1409 10.2879 30.5713 1.71826 20.0002 1.71826C9.42898 1.71826 0.859375 10.2879 0.859375 20.859C0.859375 23.8773 1.55898 26.7319 2.80328 29.2709L9.36351 36.7737Z" fill="#FF4155"/>
<path d="M4.7227 32.3906H35.2778C36.0514 31.3673 36.7246 30.2641 37.2827 29.0951V14.2334C37.2827 12.9127 36.2082 11.8381 34.8875 11.8381H5.11301C3.7923 11.8381 2.71777 12.9126 2.71777 14.2334V29.0951C3.2759 30.264 3.94918 31.3673 4.7227 32.3906Z" fill="#167CC1"/>
<path d="M9.91324 22.1141C9.20035 20.4348 9.73715 18.7495 10.0932 17.938C10.2221 17.6441 10.1908 17.3031 10.0054 17.0412C9.17621 15.8691 9.52012 14.5117 9.78746 13.8263C9.88418 13.5784 9.87754 13.2979 9.74855 13.0651C9.54285 12.6935 9.61019 12.342 9.72551 12.0867C9.76183 12.0064 9.7859 11.9227 9.79988 11.8379H5.11301C3.7923 11.8379 2.71777 12.9123 2.71777 14.2331V29.0948C3.27582 30.2638 3.9491 31.367 4.72269 32.3903H11.5543C11.51 32.2292 11.4228 32.0788 11.2969 31.9574C8.41449 29.1769 10.8521 24.3259 9.91324 22.1141Z" fill="#0E62A8"/>
<path d="M4.26082 31.7524C4.41059 31.9683 4.56426 32.1812 4.72246 32.3906H35.2775C35.4358 32.1813 35.5894 31.9683 35.7392 31.7525V28.6885C34.0204 28.6477 32.1314 27.7172 29.9193 25.5051C25.2192 20.805 21.3429 29.974 13.51 20.4333C9.86238 15.9903 5.83395 16.7693 4.26074 17.3299V31.7524H4.26082Z" fill="#9BD8F9"/>
<path d="M9.91398 22.1143C9.20109 20.435 9.73789 18.7496 10.094 17.9381C10.1305 17.8547 10.1528 17.7675 10.1637 17.6793C7.64414 16.4436 5.35734 16.9393 4.26172 17.3298V31.7523C4.41148 31.9682 4.56508 32.1811 4.72336 32.3905H11.5549C11.5107 32.2294 11.4234 32.0791 11.2976 31.9577C8.41524 29.177 10.8529 24.326 9.91398 22.1143Z" fill="#73C3F9"/>
<path d="M34.8881 13.3813H5.11367C4.6518 13.3813 4.26172 13.7715 4.26172 14.2333V17.4701C5.83484 16.9095 9.86328 16.1305 13.511 20.5735C21.3438 30.1141 25.2201 20.9451 29.9203 25.6453C32.1324 27.8574 34.0215 28.7879 35.7402 28.8287V14.2333C35.7401 13.7714 35.3499 13.3813 34.8881 13.3813Z" fill="#E9EFFF"/>
<path d="M4.26172 14.2334V17.4702C5.35383 17.081 7.62921 16.5873 10.139 17.8077C10.2096 17.547 10.1647 17.2654 10.0062 17.0413C9.17695 15.8693 9.52085 14.5119 9.78819 13.8265C9.8439 13.6838 9.86405 13.5303 9.84757 13.3813H5.11375C4.65187 13.3814 4.26172 13.7715 4.26172 14.2334Z" fill="#9BD8F9"/>
<path d="M20.0001 39.9998C21.2538 39.9998 22.4788 39.8779 23.6652 39.6478C23.665 39.6457 23.6646 39.6438 23.6643 39.6418L23.2753 36.7393H16.7249L16.3359 39.6418C16.3357 39.6438 16.3353 39.6457 16.335 39.6477C17.5214 39.8779 18.7464 39.9998 20.0001 39.9998Z" fill="#D3DCFB"/>
<path d="M19.0861 39.8072C19.1568 38.9938 19.8378 38.3695 20.6543 38.3695H23.4938L23.2753 36.7393H16.7249L16.3359 39.6418C16.3357 39.6438 16.3353 39.6457 16.335 39.6477C17.2267 39.8207 18.1402 39.9324 19.0713 39.9773L19.0861 39.8072Z" fill="#BEC8F7"/>
<path d="M4.61816 32.2502C5.96621 34.0677 7.62879 35.6373 9.52527 36.8799H30.4768C32.3732 35.6373 34.0359 34.0677 35.3839 32.2502H4.61816Z" fill="#E9EFFF"/>
<path d="M9.5252 36.8798H11.6425C11.8013 36.5998 11.816 36.2405 11.6234 35.9334C10.9461 34.8533 11.2391 33.6663 11.5211 32.9771C11.6189 32.7379 11.6072 32.4764 11.5043 32.2502H4.61816C5.96621 34.0676 7.62879 35.6372 9.5252 36.8798Z" fill="#D3DCFB"/>
<path d="M20.0818 3.9589C15.6891 3.91468 12.0609 7.4971 12.0518 11.89C12.0456 14.8762 13.6863 17.4794 16.1165 18.8429C16.8467 19.2526 17.2936 20.0298 17.2936 20.8672V21.6208C17.2936 22.331 17.8694 22.9069 18.5797 22.9069H21.4204C22.1308 22.9069 22.7065 22.3311 22.7065 21.6208V20.8671C22.7065 20.026 23.1599 19.2503 23.8929 18.8377C26.3133 17.4754 27.9483 14.8821 27.9483 11.9067C27.9483 7.54437 24.4339 4.00273 20.0818 3.9589Z" fill="#FFDD40"/>
<path d="M19.4141 18.176C18.1715 16.7184 17.373 14.4447 17.3765 11.89C17.3818 8.07007 19.2072 4.86343 21.604 4.12093C21.1116 4.01999 20.6028 3.96414 20.0818 3.9589C15.6891 3.91468 12.0609 7.4971 12.0518 11.89C12.0456 14.8762 13.6863 17.4794 16.1165 18.8429C16.8467 19.2526 17.2937 20.0298 17.2937 20.8672V21.6208C17.2937 22.3311 17.8694 22.9069 18.5798 22.9069H19.4141V18.176Z" fill="#FFB332"/>
<path d="M20.9694 27.2443H19.0312C18.9631 27.2443 18.8969 27.2372 18.832 27.2261V27.7114C18.832 28.3566 19.3552 28.8797 20.0003 28.8797C20.6455 28.8797 21.1686 28.3566 21.1686 27.7114V27.2261C21.1038 27.2372 21.0375 27.2443 20.9694 27.2443Z" fill="#4FABF7"/>
<path d="M20.9699 25.0608H19.0316C18.3863 25.0608 17.8633 25.5838 17.8633 26.2291C17.8633 26.8743 18.3863 27.3974 19.0316 27.3974H20.9699C21.6151 27.3974 22.1382 26.8743 22.1382 26.2291C22.1382 25.5839 21.6151 25.0608 20.9699 25.0608Z" fill="#2A428C"/>
<path d="M20.0006 26.2291C20.0006 25.6174 20.4709 25.1164 21.0694 25.0658C21.0365 25.063 21.0034 25.0608 20.9698 25.0608H19.0316C18.3863 25.0608 17.8633 25.5838 17.8633 26.2291C17.8633 26.8743 18.3863 27.3974 19.0316 27.3974H20.9698C21.0034 27.3974 21.0366 27.3951 21.0694 27.3924C20.4709 27.3417 20.0006 26.8406 20.0006 26.2291Z" fill="#1C2E7A"/>
<path d="M19.0322 23.9641C18.7086 23.9641 18.4463 23.7019 18.4463 23.3782V18.1866C18.4463 17.8905 18.3048 17.6075 18.0679 17.4298C17.5374 17.0318 17.2207 16.3984 17.2207 15.7354V12.6714C17.2207 12.3477 17.483 12.0854 17.8066 12.0854C18.1302 12.0854 18.3926 12.3477 18.3926 12.6714V15.7354C18.3926 16.0315 18.5341 16.3145 18.771 16.4923C19.3014 16.8901 19.6181 17.5234 19.6181 18.1866V23.3782C19.6181 23.7019 19.3558 23.9641 19.0322 23.9641Z" fill="#FF9100"/>
<path d="M20.9678 23.9641C20.6442 23.9641 20.3818 23.7019 20.3818 23.3782V18.1866C20.3818 17.5235 20.6986 16.8901 21.229 16.4923C21.466 16.3145 21.6075 16.0315 21.6075 15.7354V12.6714C21.6075 12.3477 21.8698 12.0854 22.1934 12.0854C22.517 12.0854 22.7793 12.3477 22.7793 12.6714V15.7354C22.7793 16.3984 22.4626 17.0319 21.9321 17.4298C21.6951 17.6074 21.5537 17.8904 21.5537 18.1866V23.3782C21.5537 23.7019 21.2914 23.9641 20.9678 23.9641Z" fill="#FF9100"/>
<path d="M22.6241 13.9465H17.377C17.0534 13.9465 16.791 13.6843 16.791 13.3606C16.791 13.0369 17.0534 12.7747 17.377 12.7747H22.6241C22.9477 12.7747 23.2101 13.0369 23.2101 13.3606C23.2101 13.6842 22.9477 13.9465 22.6241 13.9465Z" fill="#FFB332"/>
<path d="M10.3806 12.4924H8.67969C8.35609 12.4924 8.09375 12.2302 8.09375 11.9065C8.09375 11.5828 8.35609 11.3206 8.67969 11.3206H10.3806C10.7041 11.3206 10.9665 11.5828 10.9665 11.9065C10.9665 12.2302 10.7041 12.4924 10.3806 12.4924Z" fill="#FFDD40"/>
<path d="M31.3209 12.4924H29.6201C29.2965 12.4924 29.0342 12.2302 29.0342 11.9065C29.0342 11.5828 29.2965 11.3206 29.6201 11.3206H31.3209C31.6445 11.3206 31.9068 11.5828 31.9068 11.9065C31.9068 12.2302 31.6445 12.4924 31.3209 12.4924Z" fill="#FFDD40"/>
<path d="M9.78499 16.1377C9.66116 15.8387 9.80311 15.496 10.1021 15.3722L10.8878 15.0467C11.1867 14.9229 11.5295 15.0647 11.6533 15.3638C11.7772 15.6628 11.6352 16.0055 11.3362 16.1294L10.5505 16.4548C10.2503 16.5791 9.90835 16.4355 9.78499 16.1377Z" fill="#FFB332"/>
<path d="M28.3465 8.44944C28.2227 8.15045 28.3646 7.80772 28.6636 7.68389L29.4039 7.37725C29.7028 7.2535 30.0456 7.3953 30.1694 7.69436C30.2932 7.99334 30.1513 8.33608 29.8523 8.45991L29.1121 8.76655C28.8119 8.89085 28.4699 8.74733 28.3465 8.44944Z" fill="#FFB332"/>
<path d="M23.4439 3.54699C23.1449 3.42316 23.003 3.08042 23.1268 2.78144L23.4334 2.04113C23.5573 1.74214 23.8999 1.59995 24.199 1.72409C24.498 1.84792 24.6399 2.19066 24.5161 2.48964L24.2094 3.22995C24.0856 3.52894 23.7426 3.67097 23.4439 3.54699Z" fill="#FFB332"/>
<path d="M15.7459 3.23L15.4393 2.48969C15.3155 2.1907 15.4574 1.84797 15.7564 1.72414C16.0554 1.60047 16.3981 1.74219 16.5219 2.04117L16.8286 2.78149C16.9524 3.08047 16.8105 3.4232 16.5115 3.54703C16.2113 3.67141 15.8693 3.52781 15.7459 3.23Z" fill="#FFB332"/>
<path d="M29.4044 16.4549L28.6187 16.1295C28.3197 16.0056 28.1778 15.6629 28.3016 15.3639C28.4254 15.0649 28.7683 14.9227 29.0671 15.0468L29.8528 15.3723C30.1518 15.4961 30.2938 15.8388 30.1699 16.1378C30.0457 16.4379 29.702 16.5785 29.4044 16.4549Z" fill="#FFB332"/>
<path d="M10.8423 8.76673L10.1021 8.46009C9.80311 8.33626 9.66116 7.99352 9.78499 7.69454C9.90881 7.39563 10.2516 7.25321 10.5505 7.37743L11.2908 7.68407C11.5898 7.8079 11.7317 8.15063 11.6079 8.44962C11.4838 8.74915 11.1405 8.89048 10.8423 8.76673Z" fill="#FFB332"/>
<path d="M11.5808 20.3259C11.3519 20.0971 11.352 19.726 11.5808 19.4972L12.7835 18.2946C13.0123 18.0659 13.3834 18.0658 13.6122 18.2947C13.841 18.5235 13.8409 18.8946 13.6121 19.1233L12.4094 20.326C12.1806 20.5547 11.8097 20.5548 11.5808 20.3259Z" fill="#FFDD40"/>
<path d="M26.3884 5.51883C26.1596 5.29 26.1596 4.91906 26.3884 4.69016L27.5911 3.4875C27.8199 3.25875 28.1909 3.25867 28.4197 3.48758C28.6485 3.71641 28.6485 4.08734 28.4197 4.31617L27.217 5.5189C26.9882 5.74765 26.6172 5.74765 26.3884 5.51883Z" fill="#FFDD40"/>
<path d="M20 2.87273C19.6764 2.87273 19.4141 2.61047 19.4141 2.2868V0.585938C19.4141 0.262266 19.6764 0 20 0C20.3236 0 20.5859 0.262266 20.5859 0.585938V2.2868C20.5859 2.61039 20.3236 2.87273 20 2.87273Z" fill="#FFDD40"/>
<path d="M27.5911 20.326L26.3884 19.1233C26.1596 18.8944 26.1596 18.5235 26.3884 18.2947C26.6172 18.0658 26.9883 18.0659 27.2171 18.2946L28.4197 19.4972C28.6486 19.7261 28.6486 20.0971 28.4197 20.3259C28.1909 20.5547 27.82 20.5548 27.5911 20.326Z" fill="#FFDD40"/>
<path d="M12.7845 5.51858L11.5818 4.31593C11.3529 4.0871 11.3529 3.71608 11.5818 3.48733C11.8107 3.25843 12.1815 3.25851 12.4105 3.48726L13.6132 4.68991C13.842 4.91874 13.842 5.28976 13.6133 5.51858C13.3843 5.74733 13.0134 5.74733 12.7845 5.51858Z" fill="#FFDD40"/>
<path d="M21.0008 34.8162C21.132 34.2613 20.7885 33.7052 20.2336 33.574C19.6787 33.4429 19.1226 33.7864 18.9914 34.3412C18.8602 34.8961 19.2037 35.4523 19.7586 35.5834C20.3135 35.7146 20.8696 35.3711 21.0008 34.8162Z" fill="#BEC8F7"/>
<path d="M21.5385 22.8005H18.4622C17.817 22.8005 17.2939 23.3236 17.2939 23.9688C17.2939 24.6141 17.817 25.1371 18.4622 25.1371H21.5385C22.1837 25.1371 22.7068 24.6141 22.7068 23.9688C22.7068 23.3236 22.1837 22.8005 21.5385 22.8005Z" fill="#3C58A0"/>
<path d="M20.0004 23.9688C20.0004 23.3236 20.5234 22.8005 21.1687 22.8005H18.4622C17.817 22.8005 17.2939 23.3236 17.2939 23.9688C17.2939 24.6141 17.817 25.1371 18.4622 25.1371H21.1687C20.5234 25.1372 20.0004 24.6141 20.0004 23.9688Z" fill="#2A428C"/>
<path d="M24.6351 8.17864C24.8021 7.47195 24.3646 6.76365 23.658 6.5966C22.9513 6.42955 22.243 6.86701 22.0759 7.5737C21.9089 8.28039 22.3463 8.98869 23.053 9.15574C23.7597 9.32279 24.468 8.88532 24.6351 8.17864Z" fill="#FCF2C8"/>
<path d="M21.5053 10.1636C21.8654 10.0143 22.0364 9.60132 21.8871 9.24115C21.7378 8.88098 21.3248 8.71004 20.9646 8.85933C20.6045 9.00862 20.4335 9.42161 20.5828 9.78178C20.7321 10.1419 21.1451 10.3129 21.5053 10.1636Z" fill="#FCF2C8"/>
</svg>
