<svg width="40" height="40" viewBox="0 0 40 40" fill="none" xmlns="http://www.w3.org/2000/svg">
<g clip-path="url(#clip0)">
<path d="M2.23004 27.9819C4.2527 33.0235 8.35801 37.0047 13.482 38.8605H26.519C31.6432 37.0047 35.7485 33.0234 37.7711 27.9817L38.482 15.8662C36.2856 7.71646 28.8442 1.71826 20.0005 1.71826C11.1562 1.71826 3.71441 7.71725 1.51855 15.8677L2.23004 27.9819Z" fill="#1C2E7A"/>
<path d="M20.0008 16.9905C19.674 16.9905 19.4092 16.7257 19.4092 16.3991V13.2495C19.4092 12.9228 19.674 12.658 20.0008 12.658C20.3274 12.658 20.5922 12.9228 20.5922 13.2495V16.3991C20.5923 16.7257 20.3275 16.9905 20.0008 16.9905Z" fill="#E9EFFF"/>
<path d="M28.4784 22.3199H25.3289C25.0022 22.3199 24.7373 22.0551 24.7373 21.7284C24.7373 21.4017 25.0021 21.137 25.3289 21.137H28.4784C28.8051 21.137 29.07 21.4018 29.07 21.7284C29.07 22.0551 28.8051 22.3199 28.4784 22.3199Z" fill="#E9EFFF"/>
<path d="M20.0008 30.7991C19.674 30.7991 19.4092 30.5343 19.4092 30.2076V27.058C19.4092 26.7314 19.674 26.4666 20.0008 26.4666C20.3274 26.4666 20.5922 26.7314 20.5922 27.058V30.2076C20.5923 30.5343 20.3275 30.7991 20.0008 30.7991Z" fill="#E9EFFF"/>
<path d="M14.6697 22.3199H11.5202C11.1935 22.3199 10.9287 22.0551 10.9287 21.7284C10.9287 21.4017 11.1936 21.137 11.5202 21.137H14.6697C14.9964 21.137 15.2612 21.4018 15.2612 21.7284C15.2612 22.0551 14.9964 22.3199 14.6697 22.3199Z" fill="#E9EFFF"/>
<path d="M19.9998 13.2494C23.4951 13.2494 26.3287 10.4158 26.3287 6.92046C26.3287 3.4251 23.4951 0.591553 19.9998 0.591553C16.5044 0.591553 13.6709 3.4251 13.6709 6.92046C13.6709 10.4158 16.5044 13.2494 19.9998 13.2494Z" fill="#F76EBB"/>
<path d="M24.4581 11.4121C24.3053 11.2737 24.2658 11.0804 24.2609 10.9378C24.2575 10.8399 24.17 10.7664 24.0726 10.7763C22.8623 10.8987 20.43 10.3324 19.8397 10.1887C19.7624 10.1699 19.7085 10.1007 19.7085 10.0211V3.6665C19.7085 3.61666 19.6863 3.56994 19.6493 3.5365C18.9755 2.92666 19.2053 2.3215 19.3715 2.04666C19.4196 1.96729 19.3918 1.86729 19.3157 1.81416C19.1269 1.68236 19.1498 1.48799 19.1948 1.35877C19.2217 1.28166 19.1927 1.19572 19.1225 1.15393C18.9021 1.0226 18.8145 0.863223 18.7966 0.70752C15.8769 1.26971 13.6709 3.83697 13.6709 6.9208C13.6709 10.4162 16.5045 13.2497 19.9998 13.2497C21.7391 13.2496 23.3141 12.5477 24.4581 11.4121Z" fill="#F24CA7"/>
<path d="M20.0005 27.0581C22.944 27.0581 25.3301 24.672 25.3301 21.7285C25.3301 18.7851 22.944 16.3989 20.0005 16.3989C17.057 16.3989 14.6709 18.7851 14.6709 21.7285C14.6709 24.672 17.057 27.0581 20.0005 27.0581Z" fill="#4FABF7"/>
<path d="M31.082 5.48448H28.6345C28.3078 5.48448 28.043 5.21964 28.043 4.893C28.043 4.56628 28.3078 4.30151 28.6345 4.30151H31.082C31.4087 4.30151 31.6736 4.56636 31.6736 4.893C31.6736 5.21964 31.4087 5.48448 31.082 5.48448Z" fill="#F76EBB"/>
<path d="M32.8898 7.51215H28.6345C28.3078 7.51215 28.043 7.2473 28.043 6.92066C28.043 6.59395 28.3078 6.3291 28.6345 6.3291H32.8898C33.2166 6.3291 33.4814 6.59395 33.4814 6.92066C33.4814 7.2473 33.2166 7.51215 32.8898 7.51215Z" fill="#3C58A0"/>
<path d="M32.8898 9.53941H28.6345C28.3078 9.53941 28.043 9.27457 28.043 8.94793C28.043 8.62121 28.3078 8.35645 28.6345 8.35645H32.8898C33.2166 8.35645 33.4814 8.62129 33.4814 8.94793C33.4814 9.27465 33.2166 9.53941 32.8898 9.53941Z" fill="#3C58A0"/>
<path d="M35.1279 31.0163H32.6804C32.3536 31.0163 32.0889 30.7515 32.0889 30.4247C32.0889 30.0981 32.3537 29.8333 32.6804 29.8333H35.1279C35.4545 29.8333 35.7193 30.0981 35.7193 30.4247C35.7194 30.7515 35.4546 31.0163 35.1279 31.0163Z" fill="#73C3F9"/>
<path d="M35.664 31.8608H32.6804C32.3537 31.8608 32.0889 32.1257 32.0889 32.4524C32.0889 32.7791 32.3537 33.0439 32.6804 33.0439H34.7621C35.0778 32.6619 35.3783 32.2669 35.664 31.8608Z" fill="#3C58A0"/>
<path d="M32.6804 33.8887C32.3537 33.8887 32.0889 34.1536 32.0889 34.4802C32.0889 34.8069 32.3537 35.0717 32.6804 35.0717H32.8203C33.2374 34.6952 33.6373 34.3002 34.02 33.8887H32.6804V33.8887Z" fill="#3C58A0"/>
<path d="M5.51172 9.56847H3.06414C2.73742 9.56847 2.47266 9.30362 2.47266 8.97698C2.47266 8.65034 2.7375 8.3855 3.06414 8.3855H5.51164C5.83836 8.3855 6.10313 8.65034 6.10313 8.97698C6.10313 9.30362 5.83836 9.56847 5.51172 9.56847Z" fill="#38C674"/>
<path d="M7.31945 11.5959H3.06414C2.73742 11.5959 2.47266 11.331 2.47266 11.0043C2.47266 10.6776 2.7375 10.4128 3.06414 10.4128H7.31945C7.64617 10.4128 7.91102 10.6777 7.91102 11.0043C7.91102 11.331 7.64617 11.5959 7.31945 11.5959Z" fill="#3C58A0"/>
<path d="M7.31945 13.6237H3.06414C2.73742 13.6237 2.47266 13.3589 2.47266 13.0322C2.47266 12.7055 2.7375 12.4407 3.06414 12.4407H7.31945C7.64617 12.4407 7.91102 12.7055 7.91102 13.0322C7.91102 13.359 7.64617 13.6237 7.31945 13.6237Z" fill="#3C58A0"/>
<path d="M9.55762 34.8561H7.11004C6.7834 34.8561 6.51855 34.5913 6.51855 34.2647C6.51855 33.9379 6.7834 33.6731 7.11004 33.6731H9.55754C9.88426 33.6731 10.149 33.9379 10.149 34.2647C10.1491 34.5914 9.88426 34.8561 9.55762 34.8561Z" fill="#FFC839"/>
<path d="M11.3659 35.7009H7.91406C8.43117 36.1226 8.97086 36.5174 9.53078 36.884H11.3659C11.6926 36.884 11.9574 36.6191 11.9574 36.2924C11.9574 35.9658 11.6926 35.7009 11.3659 35.7009Z" fill="#3C58A0"/>
<path d="M24.0365 10.6811C24.0234 10.679 24.0447 10.6828 23.9928 10.6747L23.9915 10.6754C23.5757 10.6154 22.9376 10.7614 22.3004 10.3899C22.0161 10.8179 21.6819 11.1537 21.3703 11.3958C20.9793 11.6993 20.4969 11.8642 20.0001 11.8642C19.5033 11.8642 19.0209 11.6993 18.63 11.3958C18.3185 11.1539 17.9844 10.8183 17.7003 10.3907C17.0827 10.7525 16.4746 10.6161 16.0442 10.6709C16.0441 10.6708 16.0439 10.6707 16.0439 10.6706C15.9927 10.6775 15.9865 10.6773 15.9636 10.6811L15.9674 10.6846C15.6777 10.7363 15.4142 10.8592 15.1904 11.0319C16.3512 12.3886 18.0746 13.2495 20 13.2495C21.9259 13.2495 23.6496 12.3882 24.8103 11.0311C24.5869 10.8581 24.3237 10.7351 24.0343 10.6832L24.0365 10.6811Z" fill="#E9EFFF"/>
<path d="M18.63 11.3957C18.3185 11.1538 17.9844 10.8183 17.7003 10.3906C17.0827 10.7525 16.4746 10.6161 16.0442 10.6709C16.0441 10.6708 16.0439 10.6706 16.0439 10.6705C15.9927 10.6774 15.9865 10.6773 15.9636 10.6811L15.9674 10.6845C15.6777 10.7362 15.4142 10.8591 15.1904 11.0319C15.5999 11.5104 16.0796 11.9268 16.6131 12.2659C16.8903 12.2121 17.2071 12.1613 17.5701 12.1172C18.1699 12.0443 18.625 11.8506 18.9701 11.6121C18.8511 11.5504 18.7368 11.4788 18.63 11.3957Z" fill="#BEC8F7"/>
<path d="M17.626 10.4321C17.9251 10.9158 18.2911 11.2903 18.6302 11.5536C19.0211 11.8572 19.5035 12.0221 20.0004 12.0221C20.4971 12.0221 20.9796 11.8571 21.3705 11.5536C21.7099 11.29 22.0761 10.9154 22.3754 10.4312C22.1999 10.3397 22.0238 10.2113 21.8518 10.0303L21.8526 10.0293C21.5614 9.72316 21.4879 9.4773 21.2743 9.10449C20.4883 9.51621 19.5345 9.5277 18.7265 9.10449C18.502 9.49637 18.434 9.72871 18.1482 10.0293L18.149 10.0303C17.9759 10.2125 17.8003 10.3409 17.626 10.4321Z" fill="#FCAD6D"/>
<path d="M19.8119 9.41035C19.4398 9.38496 19.0699 9.28434 18.7264 9.10449C18.5019 9.49637 18.4339 9.72871 18.1481 10.0293L18.1489 10.0303C17.9758 10.2124 17.8002 10.3409 17.626 10.4321C17.9251 10.9158 18.2911 11.2903 18.6302 11.5536C18.6976 11.606 18.7685 11.6526 18.841 11.6965C19.8068 11.1087 20.0003 10.1561 20.0003 10.1561C20.0003 10.1561 19.9189 9.83902 19.8119 9.41035Z" fill="#FD995B"/>
<path d="M19.4823 1.89318C17.9251 2.10537 17.777 2.98834 17.7763 3.31224C17.7761 3.38021 17.7385 3.44318 17.6774 3.47287C16.8673 3.86693 17.3041 5.76615 17.3041 5.76615C17.3854 5.77154 17.5075 5.84138 17.571 5.87216C17.5865 5.77537 17.6119 5.68013 17.6478 5.58802C17.6751 5.51787 17.7093 5.44693 17.7519 5.37998C17.826 5.26373 17.8597 5.12662 17.8497 4.98959C17.8205 4.59334 17.7977 3.84951 18.3207 3.6142C18.7637 3.41482 19.3072 3.53029 19.6539 3.64552C19.879 3.72037 20.1228 3.72037 20.3479 3.64552C20.6945 3.53029 21.238 3.41482 21.681 3.6142C22.2025 3.84888 22.1811 4.58896 22.1523 4.98623C22.1423 5.12435 22.1751 5.26287 22.2498 5.37998C22.2938 5.44912 22.3288 5.5224 22.3566 5.59482C22.391 5.68482 22.4156 5.77779 22.4308 5.87224C22.5108 5.83349 22.6621 5.75435 22.76 5.76818C22.7719 5.35287 22.8103 4.90521 22.8103 4.90521C23.2719 2.64482 21.159 1.66467 19.4823 1.89318Z" fill="#A05838"/>
<path d="M19.6529 3.64537C19.6711 3.65139 19.6895 3.65615 19.708 3.66123C19.7066 3.61326 19.6851 3.56842 19.6494 3.53607C18.9755 2.92623 19.2053 2.32107 19.3716 2.04623C19.398 2.00248 19.4008 1.95271 19.3858 1.90771C17.9187 2.14256 17.776 2.99498 17.7753 3.31209C17.7751 3.38006 17.7375 3.44303 17.6764 3.47271C16.8664 3.86678 17.3031 5.766 17.3031 5.766C17.3844 5.77139 17.5065 5.84123 17.57 5.87201C17.5855 5.77521 17.6109 5.67998 17.6468 5.58787C17.6741 5.51771 17.7083 5.44678 17.7509 5.37982C17.825 5.26357 17.8587 5.12646 17.8487 4.98943C17.8195 4.59318 17.7967 3.84936 18.3197 3.61404C18.7628 3.41467 19.3063 3.53014 19.6529 3.64537Z" fill="#823C26"/>
<path d="M22.8974 5.82204C22.7761 5.71086 22.5345 5.76719 22.4301 5.83532C22.453 5.97782 22.4543 6.1236 22.4345 6.26758L22.3112 7.1654C22.3112 7.23774 22.3089 7.30875 22.3047 7.37852C22.6053 7.46922 22.7546 7.19938 22.7798 7.01414C22.7905 6.93446 22.8083 6.85586 22.8328 6.77915C22.9128 6.52946 23.2013 6.10055 22.8974 5.82204Z" fill="#FD995B"/>
<path d="M17.1029 5.82204C17.2242 5.71086 17.4658 5.76719 17.5702 5.83532C17.5474 5.97782 17.546 6.1236 17.5658 6.26758L17.6891 7.1654C17.6891 7.23774 17.6913 7.30875 17.6956 7.37852C17.3949 7.46922 17.2456 7.19938 17.2205 7.01414C17.2096 6.93446 17.192 6.85586 17.1674 6.77915C17.0875 6.52946 16.799 6.10055 17.1029 5.82204Z" fill="#FD995B"/>
<path d="M22.3934 5.55794C22.3656 5.48551 22.3306 5.41223 22.2866 5.34309C22.2119 5.22598 22.1791 5.08747 22.1891 4.94934C22.2178 4.55208 22.2024 3.77512 21.6809 3.54044C21.2379 3.34106 20.6945 3.45653 20.3478 3.57176C20.1227 3.64661 19.8788 3.64661 19.6537 3.57176C19.3071 3.45653 18.7636 3.34106 18.3206 3.54044C17.7976 3.77575 17.7835 4.55653 17.8127 4.9527C17.8227 5.08973 17.789 5.22684 17.7149 5.34309C17.6723 5.41005 17.6381 5.48098 17.6108 5.55114C17.5222 5.7788 17.4963 6.02567 17.5295 6.26739L17.6528 7.16544C17.6528 8.45653 18.342 9.33403 18.9282 9.78927C19.2342 10.0269 19.6118 10.156 20.0007 10.156C20.3896 10.156 20.7673 10.0269 21.0732 9.78927C21.6595 9.33403 22.3486 8.45653 22.3486 7.16544L22.4719 6.26762C22.5049 6.02825 22.4799 5.7838 22.3934 5.55794Z" fill="#F9BA8F"/>
<path d="M20.1887 9.78927C19.7842 9.33403 19.3085 8.45653 19.3085 7.16544L19.2235 6.26739C19.2006 6.02567 19.2184 5.7788 19.2796 5.55114C19.2984 5.48098 19.322 5.41005 19.3514 5.34309C19.4025 5.22684 19.4258 5.08973 19.4188 4.9527C19.3999 4.57981 19.4076 3.86669 19.7094 3.58778C19.6908 3.5827 19.6721 3.57786 19.6537 3.57176C19.3071 3.45653 18.7636 3.34106 18.3206 3.54044C17.7976 3.77575 17.7835 4.55653 17.8127 4.9527C17.8227 5.08973 17.789 5.22684 17.7149 5.34309C17.6722 5.41005 17.6381 5.48098 17.6108 5.55114C17.5222 5.7788 17.4963 6.02567 17.5295 6.26739L17.6528 7.16544C17.6528 8.45653 18.342 9.33403 18.9282 9.78927C19.2342 10.0269 19.6118 10.156 20.0007 10.156C20.1887 10.156 20.3739 10.1252 20.5498 10.0672C20.4202 10.0051 20.2978 9.912 20.1887 9.78927Z" fill="#FCAD6D"/>
<path d="M20.0005 13.8409C16.1846 13.8409 13.0801 10.7364 13.0801 6.92047C13.0801 3.10453 16.1846 0 20.0005 0C23.8165 0 26.9209 3.10453 26.9209 6.92047C26.921 10.7364 23.8165 13.8409 20.0005 13.8409ZM20.0005 1.18305C16.8369 1.18305 14.2631 3.75688 14.2631 6.92047C14.2631 10.0841 16.837 12.6579 20.0005 12.6579C23.1641 12.6579 25.738 10.0841 25.738 6.92047C25.738 3.75688 23.1642 1.18305 20.0005 1.18305Z" fill="#FC90CE"/>
<path d="M25.0816 11.5841C24.3897 11.6147 24.2705 11.194 24.2616 10.9376C24.26 10.8899 24.2381 10.8482 24.205 10.8189C23.1565 11.949 21.6601 12.6579 20.0005 12.6579C16.8369 12.6579 14.2631 10.0841 14.2631 6.92052C14.2631 4.03044 16.4115 1.63388 19.1948 1.24083C19.1819 1.20536 19.1576 1.17419 19.1232 1.15372C18.5895 0.835752 18.833 0.35333 18.9662 0.156221C18.9832 0.131064 18.9916 0.102471 18.9941 0.0734863C15.6534 0.562393 13.0801 3.44638 13.0801 6.92052C13.0801 10.7365 16.1846 13.841 20.0005 13.841C22.0207 13.841 23.8413 12.9708 25.1077 11.5857C25.0991 11.5847 25.0905 11.5837 25.0816 11.5841Z" fill="#F76EBB"/>
<path d="M19.9998 30.2078C16.5044 30.2078 13.6709 33.0414 13.6709 36.5367C13.6709 37.4535 13.8674 38.3239 14.2181 39.1104C16.0423 39.6878 17.9845 40.0001 19.9998 40.0001C22.0151 40.0001 23.9572 39.6878 25.7816 39.1104C26.1322 38.3239 26.3288 37.4535 26.3288 36.5367C26.3287 33.0413 23.4952 30.2078 19.9998 30.2078Z" fill="#FFC839"/>
<path d="M19.7084 39.6368V33.2821C19.7084 33.2323 19.6862 33.1856 19.6493 33.1521C18.9754 32.5423 19.2052 31.9371 19.3714 31.6624C19.4195 31.583 19.3917 31.483 19.3156 31.4299C19.1268 31.2981 19.1497 31.1037 19.1947 30.9745C19.2216 30.8974 19.1926 30.8114 19.1225 30.7696C18.902 30.6383 18.8143 30.4789 18.7966 30.3232C15.8769 30.8854 13.6709 33.4527 13.6709 36.5365C13.6709 37.4533 13.8674 38.3237 14.2181 39.1103C16.0422 39.6874 17.9844 39.9997 19.9997 39.9997C20.2155 39.9997 20.4301 39.9948 20.6442 39.9878C20.2844 39.9107 19.9966 39.8425 19.8396 39.8043C19.7623 39.7854 19.7084 39.7163 19.7084 39.6368Z" fill="#FFB332"/>
<path d="M17.8857 39.8831C18.5804 39.9594 19.2857 40 20.0008 40C20.716 40 21.4217 39.9594 22.1165 39.883C22.0278 39.8162 21.9394 39.738 21.8522 39.6462L21.853 39.6452C21.5619 39.3391 21.4883 39.0933 21.2747 38.7205C20.4887 39.1322 19.5349 39.1437 18.7269 38.7205C18.5024 39.1123 18.4344 39.3447 18.1486 39.6452L18.1494 39.6462C18.062 39.7382 17.9739 39.8164 17.8857 39.8831Z" fill="#FCAD6D"/>
<path d="M17.8857 39.8829C18.5577 39.9568 19.2398 39.9965 19.9308 39.999C19.9828 39.8601 20.0008 39.7719 20.0008 39.7719C20.0008 39.7719 19.9194 39.4549 19.8125 39.0262C19.4404 39.0007 19.0704 38.9001 18.727 38.7202C18.5025 39.1121 18.4345 39.3444 18.1486 39.645L18.1495 39.646C18.062 39.738 17.9739 39.8162 17.8857 39.8829Z" fill="#FD995B"/>
<path d="M19.4823 31.5094C17.9251 31.7216 17.777 32.6045 17.7763 32.9285C17.7761 32.9964 17.7385 33.0593 17.6774 33.0891C16.8673 33.4831 17.3041 35.3823 17.3041 35.3823C17.3854 35.3878 17.5075 35.4576 17.571 35.4884C17.5865 35.3916 17.6119 35.2963 17.6478 35.2042C17.6751 35.1341 17.7093 35.0631 17.7519 34.9962C17.826 34.8799 17.8597 34.7429 17.8497 34.6058C17.8205 34.2095 17.7977 33.4657 18.3207 33.2304C18.7637 33.031 19.3072 33.1465 19.6539 33.2617C19.879 33.3366 20.1228 33.3366 20.3479 33.2617C20.6945 33.1465 21.238 33.031 21.681 33.2304C22.2025 33.4651 22.1811 34.2052 22.1523 34.6024C22.1423 34.7406 22.1751 34.8791 22.2498 34.9962C22.2938 35.0653 22.3288 35.1386 22.3566 35.211C22.391 35.301 22.4156 35.394 22.4308 35.4884C22.5108 35.4497 22.6621 35.3706 22.76 35.3844C22.7719 34.9691 22.8103 34.5214 22.8103 34.5214C23.2719 32.261 21.159 31.2809 19.4823 31.5094Z" fill="#A05838"/>
<path d="M19.6529 33.2615C19.6711 33.2675 19.6895 33.2723 19.708 33.2774C19.7066 33.2294 19.6851 33.1846 19.6494 33.1522C18.9755 32.5424 19.2053 31.9372 19.3716 31.6624C19.398 31.6187 19.4008 31.5689 19.3858 31.5239C17.9187 31.7588 17.776 32.6112 17.7753 32.9283C17.7751 32.9963 17.7375 33.0592 17.6764 33.0889C16.8664 33.483 17.3031 35.3822 17.3031 35.3822C17.3844 35.3876 17.5065 35.4574 17.57 35.4882C17.5855 35.3914 17.6109 35.2962 17.6468 35.2041C17.6741 35.1339 17.7083 35.063 17.7509 34.996C17.825 34.8798 17.8587 34.7428 17.8487 34.6056C17.8195 34.2094 17.7967 33.4656 18.3197 33.2303C18.7628 33.0308 19.3063 33.1463 19.6529 33.2615Z" fill="#823C26"/>
<path d="M22.8974 35.4382C22.7761 35.3271 22.5345 35.3834 22.4301 35.4515C22.453 35.594 22.4543 35.7398 22.4345 35.8838L22.3112 36.7816C22.3112 36.8539 22.3089 36.925 22.3047 36.9947C22.6053 37.0854 22.7546 36.8155 22.7798 36.6304C22.7905 36.5507 22.8083 36.4721 22.8328 36.3954C22.9128 36.1457 23.2013 35.7167 22.8974 35.4382Z" fill="#FD995B"/>
<path d="M17.1029 35.4382C17.2242 35.3271 17.4658 35.3834 17.5702 35.4515C17.5474 35.594 17.546 35.7398 17.5658 35.8838L17.6891 36.7816C17.6891 36.8539 17.6913 36.925 17.6956 36.9947C17.3949 37.0854 17.2456 36.8155 17.2205 36.6304C17.2096 36.5507 17.192 36.4721 17.1674 36.3954C17.0875 36.1457 16.799 35.7167 17.1029 35.4382Z" fill="#FD995B"/>
<path d="M22.3934 35.1741C22.3656 35.1017 22.3306 35.0284 22.2866 34.9592C22.2119 34.8421 22.1791 34.7036 22.1891 34.5655C22.2178 34.1682 22.2024 33.3913 21.6809 33.1566C21.2379 32.9573 20.6945 33.0727 20.3478 33.188C20.1227 33.2628 19.8788 33.2628 19.6537 33.188C19.3071 33.0727 18.7636 32.9573 18.3206 33.1566C17.7976 33.392 17.7835 34.1727 17.8127 34.5689C17.8227 34.7059 17.789 34.8431 17.7149 34.9593C17.6723 35.0263 17.6381 35.0972 17.6108 35.1674C17.5222 35.395 17.4963 35.6419 17.5295 35.8836L17.6528 36.7817C17.6528 38.0728 18.342 38.9503 18.9282 39.4055C19.2342 39.6431 19.6118 39.7722 20.0007 39.7722C20.3896 39.7722 20.7673 39.6431 21.0732 39.4055C21.6595 38.9503 22.3486 38.0728 22.3486 36.7817L22.4719 35.8838C22.5049 35.6444 22.4799 35.3999 22.3934 35.1741Z" fill="#F9BA8F"/>
<path d="M20.1887 39.4055C19.7842 38.9503 19.3085 38.0727 19.3085 36.7817L19.2235 35.8836C19.2006 35.6419 19.2184 35.395 19.2796 35.1674C19.2984 35.0972 19.322 35.0263 19.3514 34.9593C19.4025 34.8431 19.4258 34.7059 19.4188 34.5689C19.3999 34.196 19.4076 33.4829 19.7094 33.204C19.6908 33.1988 19.6721 33.1941 19.6537 33.188C19.3071 33.0727 18.7636 32.9573 18.3206 33.1566C17.7976 33.392 17.7835 34.1727 17.8127 34.5689C17.8227 34.7059 17.789 34.8431 17.7149 34.9593C17.6722 35.0263 17.6381 35.0972 17.6108 35.1674C17.5222 35.395 17.4963 35.6419 17.5295 35.8836L17.6528 36.7817C17.6528 38.0727 18.342 38.9503 18.9282 39.4055C19.2342 39.6431 19.6118 39.7722 20.0007 39.7722C20.1887 39.7722 20.3739 39.7414 20.5498 39.6834C20.4202 39.6213 20.2978 39.5282 20.1887 39.4055Z" fill="#FCAD6D"/>
<path d="M20.0005 29.6162C16.1846 29.6162 13.0801 32.7207 13.0801 36.5367C13.0801 37.3517 13.2221 38.1339 13.482 38.8607C13.9774 39.0402 14.4826 39.199 14.9961 39.3378C14.5302 38.5087 14.2631 37.5536 14.2631 36.5367C14.2631 33.3731 16.837 30.7993 20.0005 30.7993C23.1641 30.7993 25.738 33.3731 25.738 36.5367C25.738 37.5535 25.4709 38.5086 25.0051 39.3378C25.5185 39.199 26.0237 39.0402 26.5191 38.8608C26.7791 38.134 26.9211 37.3518 26.9211 36.5368C26.921 32.7207 23.8166 29.6162 20.0005 29.6162Z" fill="#FFE98D"/>
<path d="M14.2631 36.5367C14.2631 33.6466 16.4115 31.2501 19.1948 30.857C19.1819 30.8216 19.1576 30.7904 19.1232 30.7699C18.5895 30.452 18.833 29.9695 18.9662 29.7724C18.9832 29.7473 18.9916 29.7187 18.9941 29.6897C15.6534 30.1786 13.0801 33.0626 13.0801 36.5367C13.0801 37.3517 13.2221 38.134 13.482 38.8608C13.9774 39.0402 14.4826 39.1991 14.9961 39.3378C14.5302 38.5087 14.2631 37.5535 14.2631 36.5367Z" fill="#FFC839"/>
<path d="M28.4795 21.7286C28.4795 25.2239 31.3131 28.0575 34.8084 28.0575C36.0073 28.0575 37.1282 27.7239 38.0839 27.1449C38.7682 25.1759 39.1412 23.0613 39.1412 20.8593C39.1412 19.4431 38.9861 18.0634 38.6943 16.7349C37.6216 15.899 36.2737 15.3997 34.8085 15.3997C31.3131 15.3997 28.4795 18.2332 28.4795 21.7286Z" fill="#73C3F9"/>
<path d="M36.2133 25.3328C35.5111 25.2018 34.9052 25.0591 34.6483 24.9966C34.571 24.9778 34.5171 24.9087 34.5171 24.8291V18.4744C34.5171 18.4246 34.4949 18.3779 34.4579 18.3444C33.7841 17.7345 34.0138 17.1294 34.1801 16.8545C34.2282 16.7751 34.2004 16.6751 34.1243 16.622C33.9355 16.4902 33.9584 16.2959 34.0034 16.1666C34.0303 16.0895 34.0013 16.0036 33.9311 15.9618C33.7107 15.8305 33.623 15.6711 33.6052 15.5154C30.6855 16.0776 28.4795 18.6449 28.4795 21.7287C28.4795 25.2241 31.3131 28.0576 34.8084 28.0576C35.2915 28.0576 35.7613 28.0016 36.2133 27.8991V25.3328Z" fill="#4FABF7"/>
<path d="M37.108 25.198C36.8237 25.626 36.4895 25.9618 36.1779 26.2039C35.787 26.5075 35.3045 26.6723 34.8077 26.6723C34.3109 26.6723 33.8285 26.5074 33.4376 26.2039C33.1261 25.962 32.792 25.6264 32.5079 25.1988C31.8903 25.5607 31.2823 25.4242 30.8518 25.479C30.8517 25.4789 30.8516 25.4788 30.8516 25.4787C30.8003 25.4857 30.7941 25.4854 30.7713 25.4892L30.775 25.4927C30.4853 25.5444 30.2218 25.6673 29.998 25.84C31.1588 27.1967 32.8822 28.0576 34.8077 28.0576C36.0072 28.0576 37.1281 27.7233 38.0837 27.1434C38.274 26.5957 38.4399 26.0368 38.5806 25.4678C38.1766 25.4575 37.6423 25.5094 37.108 25.198Z" fill="#E9EFFF"/>
<path d="M33.4376 26.2038C33.1261 25.9619 32.792 25.6264 32.5079 25.1987C31.8903 25.5606 31.2823 25.4242 30.8518 25.479C30.8517 25.4789 30.8516 25.4787 30.8516 25.4787C30.8003 25.4856 30.7941 25.4854 30.7713 25.4892L30.775 25.4926C30.4853 25.5444 30.2218 25.6672 29.998 25.84C30.4075 26.3185 30.8871 26.7349 31.4207 27.074C31.6979 27.0202 32.0147 26.9694 32.3777 26.9253C32.9775 26.8524 33.4327 26.6587 33.7777 26.4202C33.6588 26.3585 33.5445 26.2869 33.4376 26.2038Z" fill="#BEC8F7"/>
<path d="M32.4336 25.2398C32.7327 25.7234 33.0987 26.0979 33.4378 26.3613C33.8287 26.6648 34.3111 26.8297 34.808 26.8297C35.3048 26.8297 35.7872 26.6648 36.1781 26.3613C36.5175 26.0977 36.8837 25.7229 37.1829 25.2388C37.0074 25.1473 36.8313 25.0189 36.6593 24.8379L36.6602 24.8369C36.369 24.5308 36.2954 24.2849 36.0818 23.9121C35.2959 24.3238 34.342 24.3353 33.5341 23.9121C33.3095 24.304 33.2416 24.5363 32.9557 24.8369L32.9566 24.8379C32.7835 25.0201 32.6079 25.1485 32.4336 25.2398Z" fill="#FCAD6D"/>
<path d="M34.6196 24.2182C34.2475 24.1927 33.8776 24.0922 33.5341 23.9124C33.3096 24.3042 33.2416 24.5366 32.9558 24.8371L32.9566 24.8381C32.7835 25.0202 32.6079 25.1488 32.4336 25.24C32.7327 25.7237 33.0987 26.0981 33.4378 26.3615C33.5052 26.4138 33.5762 26.4605 33.6486 26.5045C34.6144 25.9166 34.808 24.9641 34.808 24.9641C34.808 24.9641 34.7266 24.6469 34.6196 24.2182Z" fill="#FD995B"/>
<path d="M34.2899 16.7013C32.7327 16.9135 32.5846 17.7964 32.5839 18.1204C32.5838 18.1883 32.5461 18.2513 32.485 18.281C31.6749 18.675 32.1117 20.5743 32.1117 20.5743C32.1931 20.5797 32.3151 20.6495 32.3786 20.6803C32.3942 20.5835 32.4195 20.4882 32.4554 20.3961C32.4828 20.326 32.5169 20.255 32.5595 20.1881C32.6336 20.0718 32.6674 19.9348 32.6573 19.7977C32.6281 19.4014 32.6053 18.6576 33.1283 18.4223C33.5713 18.2229 34.1149 18.3384 34.4615 18.4536C34.6866 18.5285 34.9304 18.5285 35.1555 18.4536C35.5021 18.3384 36.0456 18.2229 36.4886 18.4223C37.0101 18.6569 36.9887 19.3971 36.9599 19.7943C36.9499 19.9325 36.9828 20.071 37.0574 20.1881C37.1015 20.2572 37.1365 20.3305 37.1642 20.4029C37.1988 20.4929 37.2233 20.5859 37.2385 20.6804C37.3185 20.6416 37.4698 20.5625 37.5677 20.5763C37.5796 20.161 37.618 19.7133 37.618 19.7133C38.0795 17.4529 35.9667 16.4728 34.2899 16.7013Z" fill="#A05838"/>
<path d="M34.4614 18.4535C34.4796 18.4595 34.498 18.4643 34.5165 18.4693C34.5151 18.4214 34.4936 18.3765 34.4579 18.3442C33.7841 17.7343 34.0138 17.1292 34.1801 16.8543C34.2066 16.8106 34.2093 16.7608 34.1944 16.7158C32.7274 16.9507 32.5846 17.8031 32.5839 18.1202C32.5838 18.1882 32.5461 18.2511 32.485 18.2808C31.6749 18.6749 32.1117 20.5741 32.1117 20.5741C32.1931 20.5796 32.3151 20.6494 32.3786 20.6801C32.3942 20.5833 32.4195 20.4881 32.4554 20.396C32.4827 20.3258 32.5169 20.2549 32.5595 20.1879C32.6336 20.0717 32.6674 19.9347 32.6573 19.7976C32.6281 19.4013 32.6053 18.6575 33.1283 18.4222C33.5713 18.2228 34.1148 18.3382 34.4614 18.4535Z" fill="#823C26"/>
<path d="M37.7059 20.6301C37.5847 20.519 37.343 20.5753 37.2386 20.6434C37.2615 20.7859 37.2628 20.9317 37.243 21.0757L37.1198 21.9735C37.1198 22.0458 37.1175 22.1169 37.1133 22.1866C37.4139 22.2773 37.5632 22.0074 37.5884 21.8222C37.5992 21.7426 37.6169 21.664 37.6415 21.5872C37.7213 21.3376 38.0098 20.9086 37.7059 20.6301Z" fill="#FD995B"/>
<path d="M31.9105 20.6301C32.0318 20.519 32.2734 20.5753 32.3779 20.6434C32.355 20.7859 32.3537 20.9317 32.3735 21.0757L32.4968 21.9735C32.4968 22.0458 32.4991 22.1169 32.5033 22.1866C32.2027 22.2773 32.0534 22.0074 32.0282 21.8222C32.0173 21.7426 31.9997 21.664 31.9751 21.5872C31.8951 21.3376 31.6066 20.9086 31.9105 20.6301Z" fill="#FD995B"/>
<path d="M37.201 20.3662C37.1733 20.2938 37.1383 20.2205 37.0942 20.1514C37.0195 20.0343 36.9867 19.8957 36.9967 19.7576C37.0255 19.3603 37.0101 18.5834 36.4886 18.3488C36.0455 18.1494 35.502 18.2649 35.1554 18.3801C34.9304 18.455 34.6864 18.455 34.4613 18.3801C34.1147 18.2649 33.5712 18.1495 33.1282 18.3488C32.6052 18.5841 32.5911 19.3648 32.6203 19.7611C32.6304 19.8981 32.5966 20.0352 32.5226 20.1514C32.4799 20.2184 32.4457 20.2893 32.4184 20.3595C32.3298 20.5871 32.304 20.834 32.3372 21.0757L32.4604 21.9738C32.4604 23.2649 33.1497 24.1424 33.7358 24.5976C34.0419 24.8353 34.4194 24.9643 34.8083 24.9643C35.1972 24.9643 35.5749 24.8353 35.8808 24.5976C36.4671 24.1424 37.1562 23.2649 37.1562 21.9738L37.2795 21.076C37.3124 20.8365 37.2875 20.5921 37.201 20.3662Z" fill="#F9BA8F"/>
<path d="M34.9973 24.5974C34.5927 24.1422 34.1171 23.2647 34.1171 21.9736L34.032 21.0755C34.0092 20.8338 34.027 20.5869 34.0881 20.3593C34.107 20.2891 34.1306 20.2182 34.16 20.1512C34.2111 20.035 34.2344 19.898 34.2274 19.7608C34.2085 19.388 34.2163 18.6748 34.518 18.3959C34.4994 18.3908 34.4807 18.386 34.4623 18.3798C34.1157 18.2646 33.5722 18.1492 33.1292 18.3485C32.6062 18.5838 32.5921 19.3645 32.6213 19.7608C32.6313 19.8978 32.5976 20.0349 32.5235 20.1512C32.4809 20.2181 32.4467 20.2891 32.4194 20.3592C32.3308 20.5869 32.3049 20.8337 32.3381 21.0755L32.4614 21.9735C32.4614 23.2646 33.1506 24.1421 33.7368 24.5973C34.0428 24.835 34.4204 24.964 34.8093 24.964C34.9973 24.964 35.1824 24.9333 35.3584 24.8752C35.2288 24.8133 35.1063 24.7201 34.9973 24.5974Z" fill="#FCAD6D"/>
<path d="M34.8082 27.466C31.6446 27.466 29.0707 24.8922 29.0707 21.7286C29.0707 18.565 31.6446 15.9912 34.8082 15.9912C36.3977 15.9912 37.838 16.6412 38.8781 17.6891C38.775 17.0709 38.6425 16.4629 38.4817 15.8662C37.4164 15.1963 36.1568 14.8081 34.8082 14.8081C30.9922 14.8081 27.8877 17.9126 27.8877 21.7286C27.8877 25.5445 30.9922 28.649 34.8082 28.649C35.8676 28.649 36.8721 28.4094 37.7707 27.982C38.0019 27.4056 38.2058 26.8154 38.3811 26.2129C37.4 26.9962 36.1582 27.466 34.8082 27.466Z" fill="#9BD8F9"/>
<path d="M34.8082 27.466C31.6446 27.466 29.0707 24.8922 29.0707 21.7286C29.0707 18.8385 31.2191 16.442 34.0024 16.0489C33.9895 16.0135 33.9652 15.9823 33.9308 15.9618C33.3971 15.6439 33.6406 15.1614 33.7737 14.9643C33.7907 14.9392 33.7992 14.9106 33.8017 14.8816C30.4611 15.3705 27.8877 18.2545 27.8877 21.7286C27.8877 25.5446 30.9922 28.6491 34.8082 28.6491C35.8677 28.6491 36.8721 28.4094 37.7707 27.9819C37.8284 27.8382 37.8844 27.6935 37.9386 27.5481C37.9388 27.5477 37.9389 27.5473 37.9391 27.5469C37.9934 27.4013 38.046 27.2548 38.0968 27.1075V27.1074C38.1985 26.813 38.2931 26.5153 38.3806 26.2146C38.3807 26.2142 38.3808 26.2139 38.3809 26.2135C37.4 26.9968 36.1581 27.466 34.8082 27.466Z" fill="#73C3F9"/>
<path d="M5.19211 15.3997C3.72688 15.3997 2.37898 15.899 1.30633 16.7348C1.01453 18.0633 0.859375 19.4431 0.859375 20.8593C0.859375 23.0613 1.23242 25.176 1.91672 27.145C2.87227 27.724 3.9932 28.0575 5.19211 28.0575C8.6875 28.0575 11.5211 25.2239 11.5211 21.7286C11.5211 18.2332 8.6875 15.3997 5.19211 15.3997Z" fill="#38C674"/>
<path d="M9.45312 25.7458C9.44969 25.6479 9.36219 25.5743 9.26477 25.5843C8.05453 25.7067 5.62219 25.1404 5.03195 24.9966C4.95461 24.9778 4.9007 24.9086 4.9007 24.829V18.4744C4.9007 18.4246 4.87852 18.3779 4.84156 18.3444C4.16773 17.7345 4.3975 17.1294 4.56375 16.8545C4.6118 16.7751 4.58398 16.6751 4.50789 16.622C4.31914 16.4902 4.34203 16.2959 4.38703 16.1666C4.41391 16.0895 4.38492 16.0036 4.31477 15.9618C4.0943 15.8305 4.00664 15.6711 3.98891 15.5154C2.99156 15.7074 2.07773 16.1337 1.30648 16.7343C1.01461 18.063 0.859375 19.443 0.859375 20.8594C0.859375 23.0614 1.23242 25.1761 1.91672 27.145C2.87227 27.7241 3.9932 28.0576 5.19211 28.0576C6.93141 28.0576 8.50641 27.3557 9.65039 26.2201C9.49758 26.0816 9.45813 25.8883 9.45312 25.7458Z" fill="#24B55E"/>
<path d="M9.22781 25.4892C9.21469 25.4871 9.23602 25.4909 9.18406 25.4828L9.18281 25.4835C8.76703 25.4235 8.12891 25.5695 7.49172 25.198C7.20742 25.626 6.8732 25.9618 6.56156 26.2039C6.17062 26.5075 5.6882 26.6723 5.19141 26.6723C4.69453 26.6723 4.21219 26.5074 3.82125 26.2039C3.50977 25.962 3.1757 25.6264 2.89156 25.1988C2.35672 25.5121 1.82937 25.452 1.41797 25.4658C1.55875 26.0355 1.72484 26.5951 1.91539 27.1434C2.87086 27.7233 3.99187 28.0576 5.19133 28.0576C7.11719 28.0576 8.84086 27.1963 10.0016 25.8392C9.7782 25.6662 9.515 25.5432 9.22562 25.4913L9.22781 25.4892Z" fill="#E9EFFF"/>
<path d="M2.89156 25.1987C2.35672 25.5121 1.82938 25.4519 1.41797 25.4658C1.55148 26.0062 1.70734 26.5379 1.8857 27.0591C2.14359 27.0109 2.43266 26.9653 2.76148 26.9254C3.36125 26.8525 3.81641 26.6588 4.16148 26.4203C4.04242 26.3586 3.9282 26.2869 3.82125 26.2039C3.50977 25.9619 3.1757 25.6265 2.89156 25.1987Z" fill="#BEC8F7"/>
<path d="M2.81738 25.2398C3.11652 25.7234 3.48246 26.0979 3.8216 26.3613C4.21254 26.6648 4.69496 26.8297 5.19176 26.8297C5.68855 26.8297 6.17098 26.6648 6.56191 26.3613C6.90129 26.0977 7.26746 25.7229 7.56676 25.2388C7.39129 25.1473 7.2152 25.0189 7.04316 24.8379L7.04402 24.8369C6.75285 24.5308 6.67926 24.2849 6.46566 23.9121C5.67973 24.3238 4.7259 24.3353 3.91793 23.9121C3.6934 24.304 3.62543 24.5363 3.33957 24.8369L3.34043 24.8379C3.16723 25.0201 2.99168 25.1485 2.81738 25.2398Z" fill="#FCAD6D"/>
<path d="M5.00332 24.2182C4.63121 24.1927 4.26129 24.0922 3.91785 23.9124C3.69332 24.3042 3.62535 24.5366 3.33949 24.8371L3.34035 24.8381C3.16723 25.0202 2.9916 25.1488 2.81738 25.24C3.11652 25.7237 3.48246 26.0981 3.8216 26.3615C3.88902 26.4138 3.95996 26.4605 4.03238 26.5045C4.99824 25.9166 5.19176 24.9641 5.19176 24.9641C5.19176 24.9641 5.11027 24.6469 5.00332 24.2182Z" fill="#FD995B"/>
<path d="M4.67373 16.7013C3.11638 16.9135 2.96841 17.7964 2.96771 18.1204C2.96755 18.1883 2.9299 18.2513 2.8688 18.281C2.05873 18.675 2.49552 20.5743 2.49552 20.5743C2.57685 20.5797 2.69888 20.6495 2.7624 20.6803C2.77795 20.5835 2.80334 20.4882 2.8392 20.3961C2.86654 20.326 2.90068 20.255 2.94334 20.1881C3.0174 20.0718 3.05115 19.9348 3.04107 19.7977C3.01193 19.4014 2.98912 18.6576 3.51209 18.4223C3.95513 18.2229 4.49865 18.3384 4.84521 18.4536C5.07029 18.5285 5.31412 18.5285 5.5392 18.4536C5.88584 18.3384 6.42927 18.2229 6.87232 18.4223C7.39381 18.6569 7.3724 19.3971 7.34365 19.7943C7.33365 19.9325 7.36646 20.071 7.44115 20.1881C7.48521 20.2572 7.52021 20.3305 7.54795 20.4029C7.5824 20.4929 7.60701 20.5859 7.62216 20.6804C7.70224 20.6416 7.85349 20.5625 7.95138 20.5763C7.96334 20.161 8.0017 19.7133 8.0017 19.7133C8.46326 17.4529 6.35052 16.4728 4.67373 16.7013Z" fill="#A05838"/>
<path d="M4.84526 18.4535C4.86346 18.4595 4.8819 18.4643 4.90034 18.4693C4.89893 18.4214 4.87745 18.3765 4.84174 18.3442C4.16791 17.7343 4.39768 17.1292 4.56393 16.8543C4.59042 16.8106 4.59315 16.7608 4.57815 16.7158C3.11112 16.9507 2.96838 17.8031 2.96768 18.1202C2.96752 18.1882 2.92987 18.2511 2.86877 18.2808C2.05877 18.6749 2.49549 20.5741 2.49549 20.5741C2.57682 20.5796 2.69885 20.6494 2.76237 20.6801C2.77791 20.5833 2.80331 20.4881 2.83916 20.396C2.86651 20.3258 2.90065 20.2549 2.94331 20.1879C3.01737 20.0717 3.05112 19.9347 3.04104 19.7976C3.0119 19.4013 2.98909 18.6575 3.51206 18.4222C3.95518 18.2228 4.4987 18.3382 4.84526 18.4535Z" fill="#823C26"/>
<path d="M8.08875 20.6301C7.9675 20.519 7.72586 20.5753 7.62141 20.6434C7.6443 20.7859 7.64562 20.9317 7.62586 21.0757L7.50258 21.9735C7.50258 22.0458 7.50031 22.1169 7.49609 22.1866C7.79672 22.2773 7.94601 22.0074 7.97117 21.8222C7.98203 21.7426 7.99969 21.664 8.0243 21.5872C8.10422 21.3376 8.39265 20.9086 8.08875 20.6301Z" fill="#FD995B"/>
<path d="M2.29525 20.6301C2.41658 20.519 2.65815 20.5753 2.7626 20.6434C2.73971 20.7859 2.73838 20.9317 2.75815 21.0757L2.88143 21.9735C2.88143 22.0458 2.88369 22.1169 2.88791 22.1866C2.58729 22.2773 2.43799 22.0074 2.41283 21.8222C2.40197 21.7426 2.38432 21.664 2.35979 21.5872C2.27986 21.3376 1.99143 20.9086 2.29525 20.6301Z" fill="#FD995B"/>
<path d="M7.58478 20.3662C7.55705 20.2938 7.52205 20.2205 7.47799 20.1514C7.4033 20.0343 7.37049 19.8957 7.38049 19.7576C7.40924 19.3603 7.39384 18.5834 6.87236 18.3488C6.42931 18.1494 5.8858 18.2649 5.53923 18.3801C5.31416 18.455 5.07017 18.455 4.84509 18.3801C4.49853 18.2649 3.95501 18.1495 3.51197 18.3488C2.989 18.5841 2.97493 19.3648 3.00408 19.7611C3.01415 19.8981 2.9804 20.0352 2.90634 20.1514C2.86368 20.2184 2.82947 20.2893 2.8022 20.3595C2.71361 20.5871 2.68775 20.834 2.72095 21.0757L2.84423 21.9738C2.84423 23.2649 3.53337 24.1424 4.11962 24.5976C4.42564 24.8353 4.80322 24.9643 5.19212 24.9643C5.58103 24.9643 5.95869 24.8353 6.26462 24.5976C6.85087 24.1424 7.54002 23.2649 7.54002 21.9738L7.6633 21.076C7.69627 20.8365 7.67134 20.5921 7.58478 20.3662Z" fill="#F9BA8F"/>
<path d="M5.38009 24.5974C4.97556 24.1422 4.49994 23.2647 4.49994 21.9736L4.41486 21.0755C4.39197 20.8338 4.40978 20.5869 4.47095 20.3593C4.48978 20.2891 4.51337 20.2182 4.54283 20.1512C4.59392 20.035 4.6172 19.898 4.61025 19.7608C4.59134 19.388 4.599 18.6748 4.9008 18.3959C4.8822 18.3908 4.86353 18.386 4.84509 18.3798C4.49853 18.2646 3.95501 18.1492 3.51197 18.3485C2.989 18.5838 2.97493 19.3645 3.00408 19.7608C3.01415 19.8978 2.9804 20.0349 2.90634 20.1512C2.86368 20.2181 2.82947 20.2891 2.8022 20.3592C2.71361 20.5869 2.68775 20.8337 2.72095 21.0755L2.84423 21.9735C2.84423 23.2646 3.53337 24.1421 4.11962 24.5973C4.42564 24.835 4.80322 24.964 5.19213 24.964C5.38009 24.964 5.56525 24.9333 5.74119 24.8752C5.61158 24.8133 5.48916 24.7201 5.38009 24.5974Z" fill="#FCAD6D"/>
<path d="M5.19207 14.8081C3.8434 14.8081 2.58387 15.1963 1.51855 15.8662C1.35777 16.4629 1.2252 17.0709 1.12207 17.6891C2.16215 16.6412 3.60246 15.9912 5.19199 15.9912C8.35559 15.9912 10.9294 18.565 10.9294 21.7286C10.9294 24.8922 8.35566 27.466 5.19199 27.466C3.84191 27.466 2.6002 26.9962 1.6191 26.2128C1.79434 26.8153 1.99824 27.4055 2.22949 27.9819C3.12809 28.4094 4.13254 28.649 5.19199 28.649C9.00793 28.649 12.1125 25.5444 12.1125 21.7285C12.1125 17.9126 9.00809 14.8081 5.19207 14.8081Z" fill="#49D88B"/>
<path d="M9.45215 25.7457C9.45051 25.698 9.42863 25.6563 9.39551 25.627C8.34699 26.757 6.85058 27.466 5.19105 27.466C3.84098 27.466 2.59926 26.9962 1.61816 26.2128C1.7934 26.8153 1.9973 27.4055 2.22855 27.982C3.12715 28.4094 4.1316 28.649 5.19105 28.649C7.21121 28.649 9.03191 27.7788 10.2982 26.3936C10.2896 26.3927 10.281 26.3917 10.2721 26.3921C9.58019 26.4227 9.46113 26.0021 9.45215 25.7457Z" fill="#38C674"/>
<path d="M4.3857 16.0487C4.37281 16.0132 4.34852 15.9821 4.31414 15.9616C3.78039 15.6436 4.02391 15.1612 4.15711 14.9641C4.17414 14.9389 4.18258 14.9103 4.185 14.8813C3.21641 15.0231 2.31312 15.3673 1.5175 15.8678C1.35672 16.4646 1.22406 17.0731 1.12109 17.6915C1.98242 16.8236 3.11766 16.2278 4.3857 16.0487Z" fill="#38C674"/>
<path d="M22.1212 26.618C20.1398 26.3754 20.5911 24.6012 20.5911 24.6012L18.9614 19.2408C17.2136 18.5637 18.1814 16.7229 18.1848 16.7163C16.1349 17.4587 14.6699 19.4223 14.6699 21.7285C14.6699 24.6719 17.056 27.0581 19.9995 27.0581C20.7538 27.0581 21.4709 26.9005 22.1212 26.618Z" fill="#1E9EF4"/>
<path d="M22.3872 21.2944C21.7495 20.6568 20.9017 20.3055 19.9998 20.3055C19.0979 20.3055 18.2501 20.6568 17.6124 21.2944C17.3813 21.5254 17.0068 21.5254 16.7758 21.2944C16.5448 21.0634 16.5448 20.6889 16.7758 20.4579C17.637 19.5968 18.7819 19.1226 19.9997 19.1226C21.2175 19.1226 22.3625 19.5968 23.2236 20.4579C23.4546 20.689 23.4546 21.0635 23.2236 21.2944C22.9927 21.5255 22.6182 21.5254 22.3872 21.2944Z" fill="#E9EFFF"/>
<path d="M20.9598 22.7335C20.4308 22.2045 19.57 22.2044 19.0411 22.7335C18.8101 22.9645 18.4355 22.9646 18.2045 22.7335C17.9735 22.5025 17.9735 22.1279 18.2045 21.897C19.1948 20.9067 20.8061 20.9067 21.7963 21.897C22.0273 22.128 22.0273 22.5025 21.7963 22.7335C21.5653 22.9645 21.1908 22.9645 20.9598 22.7335Z" fill="#E9EFFF"/>
<path d="M20.0001 24.8574C20.4495 24.8574 20.8137 24.4932 20.8137 24.0438C20.8137 23.5945 20.4495 23.2302 20.0001 23.2302C19.5508 23.2302 19.1865 23.5945 19.1865 24.0438C19.1865 24.4932 19.5508 24.8574 20.0001 24.8574Z" fill="#E9EFFF"/>
</g>
<defs>
<clipPath id="clip0">
<rect width="40" height="40" fill="white"/>
</clipPath>
</defs>
</svg>
