<svg width="40" height="40" viewBox="0 0 40 40" fill="none" xmlns="http://www.w3.org/2000/svg">
<path d="M33.973 33.939C37.1777 30.5168 39.1409 25.9176 39.1409 20.859C39.1409 10.2879 30.5713 1.71826 20.0002 1.71826C9.42891 1.71826 0.859375 10.2879 0.859375 20.859C0.859375 23.7519 1.50234 26.4942 2.65125 28.9527L33.973 33.939Z" fill="#73C3F9"/>
<path d="M31.7407 35.9745C32.5617 35.3358 33.3304 34.6328 34.0368 33.8711V23.6164H27.1421C26.7297 23.6164 26.3941 23.2809 26.3941 22.8684V12.9117C26.3941 12.4992 26.7297 12.1637 27.1421 12.1637H34.0368V3.23828C34.0368 1.44984 32.587 0 30.7986 0H5.85059C4.06215 0 2.6123 1.44984 2.6123 3.23828V28.8685C3.22809 30.2031 3.99293 31.4548 4.88543 32.6021L31.7407 35.9745Z" fill="#167CC1"/>
<path d="M15.4769 31.3074C15.4837 31.281 15.4856 31.2538 15.4823 31.2267L13.4268 14.3163C13.4208 14.2669 13.397 14.2219 13.3619 14.1865C12.7899 13.6089 13.102 12.9738 13.2491 12.7437C13.2868 12.6845 13.2946 12.6111 13.2683 12.5461L12.0105 9.44048C12.0029 9.42165 11.9924 9.40392 11.9796 9.38806C10.4288 7.44306 11.3972 5.73798 11.7151 5.27907C11.7629 5.21017 11.7617 5.12149 11.7225 5.04743C11.6142 4.84235 11.7192 4.6236 11.7752 4.53126C11.7954 4.49798 11.8053 4.45938 11.8053 4.42048V2.95962C11.8053 2.91118 11.7882 2.86431 11.7585 2.82603C11.612 2.63743 11.6684 2.44103 11.7304 2.32126C11.7687 2.24712 11.7635 2.15798 11.7134 2.09118C11.0311 1.18017 11.4383 0.446729 11.6736 0.146729C11.7074 0.103604 11.7218 0.0513379 11.7184 0.000244144H5.85059C4.06215 0.000166019 2.6123 1.45001 2.6123 3.23845V28.8687C3.22809 30.2033 3.99293 31.4549 4.88543 32.6023L15.198 33.8974C15.1726 32.5635 15.4222 31.5188 15.4769 31.3074Z" fill="#0E62A8"/>
<path d="M31.8297 23.6166H27.1416C26.7291 23.6166 26.3935 23.281 26.3935 22.8685V12.9119C26.3935 12.4994 26.7291 12.1638 27.1416 12.1638H31.8297C31.8297 8.17033 31.8297 5.29611 31.8297 4.99463H4.81836V32.5158C8.31758 37.0665 13.8158 40.0002 20.0001 40.0002C24.4655 40.0002 28.5736 38.471 31.8297 35.9078C31.8297 32.7078 31.8297 28.2022 31.8297 23.6166Z" fill="#E9EFFF"/>
<path d="M4.81836 32.5158C8.05719 36.7278 13.009 39.5526 18.6317 39.95C14.0082 37.4643 15.3409 31.8311 15.4764 31.3074C15.4832 31.281 15.4851 31.2538 15.4818 31.2267L13.4263 14.3163C13.4203 14.2669 13.3965 14.2219 13.3614 14.1865C12.7894 13.6089 13.1015 12.9738 13.2486 12.7437C13.2863 12.6846 13.2941 12.6111 13.2678 12.5461L12.01 9.44049C12.0023 9.42166 11.9919 9.40393 11.9791 9.38807C10.4283 7.44307 11.3967 5.73799 11.7146 5.27908C11.7623 5.21018 11.7612 5.1215 11.722 5.04744C11.7127 5.02986 11.7055 5.01229 11.6992 4.99463H4.81836V32.5158Z" fill="#D3DCFB"/>
<path d="M16.4296 29.8654C16.0957 29.8408 15.7624 29.9128 15.4638 30.0642C14.9168 30.3418 13.9523 30.741 12.9361 30.7218L12.0518 32.7624C11.8653 33.1927 12.001 33.6948 12.3788 33.9726C12.787 34.2727 13.3679 34.1378 13.5998 33.6874C14.8837 31.1945 17.3169 29.935 17.3169 29.935L17.226 29.8579C16.9282 29.8871 16.6507 29.8817 16.4296 29.8654Z" fill="#FF7186"/>
<path d="M18.9101 28.3949C14.5669 28.3949 15.833 26.053 10.3505 27.8944L10.3276 27.9455C10.3276 27.9455 10.0159 29.6489 11.5165 30.4535C12.9615 31.2283 14.6622 30.5586 15.4646 30.1514C15.7632 29.9999 16.0965 29.9279 16.4305 29.9526C17.2655 30.0142 18.9033 29.9246 19.4133 28.3798C19.2511 28.3894 19.0839 28.3949 18.9101 28.3949Z" fill="#E80054"/>
<path d="M10.3505 27.8943L10.3276 27.9454C10.3276 27.9454 10.0159 29.6488 11.5164 30.4535C12.6607 31.0671 13.9651 30.7746 14.8569 30.4242C12.7004 29.52 14.2275 27.2716 14.2275 27.2716L14.2159 27.2265C13.4157 27.1116 12.3175 27.2337 10.3505 27.8943Z" fill="#CC0053"/>
<path d="M28.5647 7.43066H24.4092V9.41496H28.5647C29.1127 9.41496 29.5568 8.97074 29.5568 8.42277C29.5568 7.87481 29.1127 7.43066 28.5647 7.43066Z" fill="#D3DCFB"/>
<path d="M24.4905 7.43066H23.0918C22.5438 7.43066 22.0996 7.87488 22.0996 8.42285C22.0996 8.97082 22.5438 9.41504 23.0918 9.41504H24.4905V7.43066Z" fill="#3C58A0"/>
<path d="M30.7989 2.20679H5.85105C5.28355 2.20679 4.81934 2.67108 4.81934 3.2385V5.15803H31.8307V3.2385C31.8306 2.67108 31.3663 2.20679 30.7989 2.20679Z" fill="#2A428C"/>
<path d="M11.7748 4.531C11.7949 4.49771 11.8048 4.45912 11.8048 4.42021V2.95936C11.8048 2.91092 11.7878 2.86404 11.758 2.82576C11.6116 2.63717 11.668 2.44076 11.7299 2.321C11.7485 2.28498 11.7565 2.24537 11.7544 2.20654H5.85016C5.28266 2.20654 4.81836 2.67084 4.81836 3.23826V5.15779H11.7506C11.7502 5.12006 11.7405 5.08201 11.7221 5.04717C11.6138 4.84209 11.7188 4.62334 11.7748 4.531Z" fill="#1C2E7A"/>
<path d="M8.16488 3.68233C8.16488 4.12616 7.80512 4.48593 7.36129 4.48593C6.91746 4.48593 6.55762 4.12616 6.55762 3.68233C6.55762 3.23851 6.91738 2.87866 7.36129 2.87866C7.80512 2.87866 8.16488 3.23851 8.16488 3.68233Z" fill="#FF4155"/>
<path d="M9.58289 4.48585C10.0267 4.48585 10.3865 4.12607 10.3865 3.68226C10.3865 3.23844 10.0267 2.87866 9.58289 2.87866C9.13908 2.87866 8.7793 3.23844 8.7793 3.68226C8.7793 4.12607 9.13908 4.48585 9.58289 4.48585Z" fill="#FFDD40"/>
<path d="M11.8046 4.48585C12.2484 4.48585 12.6082 4.12607 12.6082 3.68226C12.6082 3.23844 12.2484 2.87866 11.8046 2.87866C11.3608 2.87866 11.001 3.23844 11.001 3.68226C11.001 4.12607 11.3608 4.48585 11.8046 4.48585Z" fill="#38C674"/>
<path d="M23.3113 4.29527H15.2477C14.9092 4.29527 14.6348 4.02082 14.6348 3.6823C14.6348 3.34379 14.9092 3.06934 15.2477 3.06934H23.3113C23.6498 3.06934 23.9242 3.34379 23.9242 3.6823C23.9242 4.0209 23.6498 4.29527 23.3113 4.29527Z" fill="#3C58A0"/>
<path d="M29.8615 4.29527H29.1628C28.8243 4.29527 28.5498 4.02082 28.5498 3.6823C28.5498 3.34379 28.8243 3.06934 29.1628 3.06934H29.8615C30.2 3.06934 30.4745 3.34379 30.4745 3.6823C30.4745 4.0209 30.2 4.29527 29.8615 4.29527Z" fill="#3C58A0"/>
<path d="M27.4328 4.29527H26.7341C26.3955 4.29527 26.1211 4.02082 26.1211 3.6823C26.1211 3.34379 26.3955 3.06934 26.7341 3.06934H27.4328C27.7713 3.06934 28.0458 3.34379 28.0458 3.6823C28.0458 4.0209 27.7713 4.29527 27.4328 4.29527Z" fill="#3C58A0"/>
<path d="M27.1417 23.6163C26.7286 23.6163 26.3937 23.2814 26.3937 22.8683V15.854C25.8694 15.5901 25.3104 15.563 24.9365 15.5861C24.6901 15.6013 24.4539 15.4773 24.335 15.2609C24.0815 14.7995 23.4671 14.0257 22.0628 13.5348C20.4324 12.965 19.1592 13.4667 18.587 13.7819C18.3839 13.8937 18.1382 13.8845 17.9424 13.7604C17.4922 13.4754 16.5849 13.0538 15.3884 13.2754C13.9117 13.549 13.2536 14.3378 12.9925 14.7836C12.8807 14.9748 12.6799 15.0954 12.4585 15.1008C11.7278 15.1185 10.3992 15.2909 9.3412 16.6662C8.36268 17.9383 8.5094 19.4062 8.64401 20.0607C8.68682 20.2687 8.62089 20.4848 8.46995 20.6344C7.96057 21.1389 6.93659 22.5001 7.51456 24.9008C8.06659 27.194 10.3271 27.9453 10.3271 27.9453C15.8361 26.0897 14.5603 28.4383 18.9096 28.4383C22.0607 28.4383 23.2483 26.8021 23.6635 25.9006C23.8007 25.6027 24.1443 25.4633 24.4536 25.5724C26.2858 26.2183 27.0705 25.1038 27.3291 24.5755C27.4028 24.4249 27.5302 24.3078 27.6883 24.2518C27.9267 24.1672 28.2942 23.9869 28.6189 23.6163H27.1417Z" fill="#FF7186"/>
<path d="M19.6662 23.1278L19.4246 21.926C15.3779 22.1851 15.3328 18.5557 15.3328 18.5557L12.9251 14.8765C12.8089 15.0127 12.6412 15.0965 12.4585 15.1009C11.7278 15.1186 10.3992 15.291 9.3412 16.6663C8.36269 17.9385 8.50948 19.4063 8.64401 20.0608C8.68683 20.2688 8.62089 20.4849 8.46995 20.6344C7.96058 21.139 6.93659 22.5001 7.51456 24.9009C8.06651 27.194 10.3271 27.9454 10.3271 27.9454C15.8361 26.0897 14.5603 28.4383 18.9097 28.4383C19.7874 28.4383 20.5125 28.3111 21.1112 28.1084C18.011 26.5669 19.6662 23.1278 19.6662 23.1278Z" fill="#FF4155"/>
<path d="M23.7337 25.7853C23.8973 25.5691 24.1881 25.4789 24.4539 25.5727C24.6315 25.6353 24.7991 25.681 24.9574 25.7126C24.928 25.2172 24.7352 23.7975 23.5121 22.8188C21.8195 21.4642 19.5218 21.9066 19.4248 21.9263C19.093 21.993 18.878 22.3161 18.9448 22.648C19.0115 22.9798 19.3342 23.1949 19.6666 23.1281C19.6847 23.1243 21.4953 22.775 22.7462 23.7759C23.5915 24.4524 23.7155 25.4881 23.7337 25.7853Z" fill="#E80054"/>
<path d="M10.3884 24.8294C10.5788 24.6208 10.7943 24.2464 10.7393 23.6477C10.6955 23.17 10.4837 22.7059 10.1429 22.3411C9.71558 21.8834 8.95285 20.9776 8.64684 20.051C8.64395 20.0422 8.6402 20.034 8.63691 20.0254C8.63926 20.0373 8.6416 20.0495 8.64394 20.0608C8.68676 20.2688 8.62082 20.4849 8.46988 20.6345C8.30941 20.7934 8.09785 21.0377 7.90137 21.3725C8.29871 22.088 8.82027 22.7209 9.24707 23.1778C9.40309 23.3448 9.49949 23.5515 9.51855 23.7597C9.52918 23.8759 9.51582 23.9669 9.48285 24.0031C9.43777 24.0524 9.28434 24.1101 8.99988 24.1101C8.66137 24.1101 8.38691 24.3845 8.38691 24.723C8.38691 25.0616 8.66137 25.336 8.99988 25.336C9.61457 25.3359 10.0817 25.1655 10.3884 24.8294Z" fill="#E80054"/>
<path d="M14.9044 18.7311C15.2429 18.7311 15.5174 18.4567 15.5174 18.1181C15.5174 16.0067 13.9775 14.6597 13.4176 14.2397C13.2182 14.4383 13.0823 14.6312 12.9929 14.7838C12.8895 14.9604 12.7101 15.0756 12.5088 15.0965C12.5249 15.1094 12.5418 15.1215 12.5593 15.133C12.5767 15.1443 14.2915 16.2747 14.2915 18.1182C14.2915 18.4567 14.5659 18.7311 14.9044 18.7311Z" fill="#E80054"/>
<path d="M24.7183 15.6219C24.7606 15.6136 24.801 15.601 24.8393 15.5849C24.6295 15.5668 24.438 15.449 24.3349 15.2612C24.2388 15.0863 24.0903 14.8664 23.867 14.634C23.4388 14.8344 22.8656 15.2066 22.4009 15.8788C22.2083 16.1572 22.278 16.539 22.5564 16.7315C22.6628 16.8051 22.7842 16.8404 22.9045 16.8404C23.0989 16.8404 23.2902 16.748 23.4091 16.576C23.9484 15.7961 24.6764 15.6308 24.7183 15.6219Z" fill="#E80054"/>
<path d="M19.615 16.2477C19.637 16.2477 19.6592 16.2466 19.6815 16.2441C20.018 16.2078 20.2615 15.9055 20.2252 15.569C20.1235 14.6267 19.7096 13.909 19.362 13.457C19.0369 13.556 18.7743 13.6789 18.5871 13.782C18.4093 13.88 18.1987 13.885 18.0176 13.8015C18.0331 13.818 18.0496 13.8339 18.0673 13.8489C18.0754 13.8558 18.8824 14.5514 19.0064 15.7005C19.0402 16.0147 19.3059 16.2477 19.615 16.2477Z" fill="#E80054"/>
<path d="M16.4432 17.5272C15.0456 17.5272 14.2065 16.8837 14.163 16.8497C13.8969 16.6406 13.8505 16.2552 14.0597 15.989C14.2676 15.7243 14.6497 15.677 14.9158 15.882C14.9617 15.9162 15.8371 16.5481 17.303 16.1957C17.6321 16.1172 17.963 16.3194 18.0421 16.6485C18.1212 16.9776 17.9184 17.3086 17.5893 17.3877C17.1752 17.4872 16.7917 17.5272 16.4432 17.5272Z" fill="#E80054"/>
<path d="M21.5228 23.0962C21.3182 23.0962 21.1182 22.9939 21.0021 22.8075C20.044 21.271 20.9809 19.9089 21.0212 19.8517C21.2163 19.5749 21.5987 19.5088 21.8754 19.7039C22.1504 19.8978 22.2175 20.2771 22.0264 20.5534C21.9716 20.6352 21.5319 21.3404 22.0423 22.1589C22.2214 22.4462 22.1337 22.8242 21.8465 23.0033C21.7456 23.0662 21.6335 23.0962 21.5228 23.0962Z" fill="#E80054"/>
<path d="M12.8256 12.3802L11.6694 10.638H9.5827C9.24418 10.638 8.96973 10.3636 8.96973 10.0251C8.96973 9.68656 9.24418 9.41211 9.5827 9.41211H11.9983C12.2037 9.41211 12.3954 9.515 12.509 9.68617L13.8471 11.7023C14.0343 11.9843 13.9574 12.3648 13.6753 12.552C13.3943 12.7384 13.0136 12.6634 12.8256 12.3802Z" fill="#BEC8F7"/>
<path d="M25.5278 32.2049H23.1122C22.9068 32.2049 22.7151 32.102 22.6015 31.9309L21.2634 29.9149C21.0763 29.6328 21.1531 29.2524 21.4352 29.0653C21.7173 28.878 22.0976 28.9549 22.2848 29.237L23.441 30.9791H25.5277C25.8662 30.9791 26.1407 31.2534 26.1407 31.592C26.1408 31.9306 25.8663 32.2049 25.5278 32.2049Z" fill="#BEC8F7"/>
<path d="M36.5183 23.7392H27.1421C26.6633 23.7392 26.2715 23.3474 26.2715 22.8686V12.9119C26.2715 12.4331 26.6633 12.0413 27.1421 12.0413H36.5183C36.9971 12.0413 37.3889 12.4331 37.3889 12.9119V22.8686C37.3889 23.3474 36.9971 23.7392 36.5183 23.7392Z" fill="#FFDD40"/>
<path d="M30.32 21.7841V13.9964C30.32 12.9211 31.1998 12.0413 32.2752 12.0413H27.1421C26.6633 12.0413 26.2715 12.4331 26.2715 12.9119V22.8686C26.2715 23.3474 26.6633 23.7392 27.1421 23.7392H32.2752C31.1998 23.7392 30.32 22.8594 30.32 21.7841Z" fill="#FFB332"/>
<path d="M32.7024 16.1107H28.4206C28.0821 16.1107 27.8076 15.8363 27.8076 15.4977C27.8076 15.1592 28.0821 14.8848 28.4206 14.8848H32.7024C33.0409 14.8848 33.3153 15.1591 33.3153 15.4977C33.3153 15.8363 33.0408 16.1107 32.7024 16.1107Z" fill="#FCF2C8"/>
<path d="M35.2653 18.503H28.4206C28.0821 18.503 27.8076 18.2287 27.8076 17.8901C27.8076 17.5516 28.0821 17.2771 28.4206 17.2771H35.2653C35.6038 17.2771 35.8782 17.5515 35.8782 17.8901C35.8782 18.2287 35.6038 18.503 35.2653 18.503Z" fill="#FF9100"/>
<path d="M35.2653 20.8949H28.4206C28.0821 20.8949 27.8076 20.6205 27.8076 20.2819C27.8076 19.9433 28.0821 19.6689 28.4206 19.6689H35.2653C35.6038 19.6689 35.8782 19.9433 35.8782 20.2819C35.8782 20.6205 35.6038 20.8949 35.2653 20.8949Z" fill="#FF9100"/>
</svg>
