<svg width="40" height="40" viewBox="0 0 40 40" fill="none" xmlns="http://www.w3.org/2000/svg">
<g clip-path="url(#clip0)">
<path d="M12.5336 37.2395C15.0509 38.4576 17.8754 39.1408 20.8595 39.1408C28.5377 39.1408 35.1587 34.6191 38.2082 28.0938L39.4148 24.7132C39.7967 23.2054 40.0003 21.6265 40.0003 19.9999C40.0003 9.42874 31.4307 0.859131 20.8595 0.859131C10.2883 0.859131 1.71875 9.42874 1.71875 19.9999C1.71875 21.7666 1.9593 23.4768 2.40726 25.101L12.5336 37.2395Z" fill="#1C2E7A"/>
<path d="M19.8063 21.3169H4.61336C3.83664 21.3169 3.20117 21.9524 3.20117 22.7291V26.4622L4.72211 29.0839H29.2387V22.6293C26.273 23.5555 22.4002 23.2244 19.8063 21.3169Z" fill="#E9EFFF"/>
<path d="M9.88969 25.2004C9.88969 23.0646 11.6372 21.3171 13.773 21.3169H4.61336C3.83664 21.3169 3.20117 21.9524 3.20117 22.7291V26.4622L4.72211 29.0839H13.7732C11.6373 29.0839 9.88969 27.3363 9.88969 25.2004Z" fill="#BEC8F7"/>
<path d="M15.9203 15.1316H2.80078V19.7212H18.0995C16.9547 18.3696 16.2283 16.7825 15.9203 15.1316Z" fill="#E9EFFF"/>
<path d="M9.01477 17.4264C9.01477 16.159 10.0422 15.1316 11.3096 15.1316H2.80078V19.7212H11.3096C10.0422 19.7212 9.01477 18.6938 9.01477 17.4264Z" fill="#BEC8F7"/>
<path d="M30.6807 30.6399H4.94629C6.5266 32.9986 8.61754 34.986 11.0607 36.4449H30.657C31.1113 36.1736 31.5537 35.8847 31.9825 35.5779C32.0534 35.4099 32.0928 35.2257 32.0928 35.0327V32.0521C32.0929 31.2754 31.4575 30.6399 30.6807 30.6399Z" fill="#E9EFFF"/>
<path d="M13.971 35.9282C11.599 34.3443 12.7371 30.6399 15.5893 30.6399H4.94629C6.5266 32.9986 8.61754 34.986 11.0608 36.4449H15.6218C15.0608 36.4449 14.5098 36.2848 14.0418 35.9753C14.0182 35.9597 13.9946 35.944 13.971 35.9282Z" fill="#BEC8F7"/>
<path d="M29.3285 28.2891H4.61418C4.27371 28.2891 3.99676 28.012 3.99676 27.6717V22.7289C3.99676 22.3885 4.27371 22.1115 4.61418 22.1115H20.7448C21.1837 22.1115 21.5396 21.7556 21.5396 21.3167C21.5396 20.8778 21.1837 20.522 20.7448 20.522H4.61418C3.3973 20.522 2.40723 21.512 2.40723 22.7289V25.101C2.8752 26.7975 3.57027 28.3998 4.45871 29.8725C4.51012 29.8761 4.56184 29.8786 4.61418 29.8786H29.3285C29.7674 29.8786 30.1232 29.5227 30.1232 29.0838C30.1232 28.6449 29.7674 28.2891 29.3285 28.2891Z" fill="#FC90CE"/>
<path d="M10.4349 29.0838C10.4349 28.6449 10.7907 28.2891 11.2297 28.2891H4.61418C4.27371 28.2891 3.99676 28.0121 3.99676 27.6717V22.7289C3.99676 22.3885 4.27371 22.1115 4.61418 22.1115H11.3084C10.8694 22.1115 10.5136 21.7556 10.5136 21.3167C10.5136 20.8778 10.8694 20.522 11.3084 20.522H4.61418C3.39731 20.522 2.40723 21.512 2.40723 22.7289V25.101C2.8752 26.7975 3.57027 28.3998 4.45871 29.8725C4.51012 29.8761 4.56184 29.8786 4.61418 29.8786H11.2297C10.7907 29.8786 10.4349 29.5227 10.4349 29.0838Z" fill="#EA349C"/>
<path d="M30.6812 29.845H4.44238C4.77184 30.3932 5.12738 30.9238 5.5084 31.4345H30.6812C31.0217 31.4345 31.2986 31.7115 31.2986 32.0518V35.0326C31.2986 35.3729 31.0217 35.6499 30.6812 35.6499H9.83762C10.6879 36.2498 11.5889 36.7824 12.5334 37.2394H29.1854C30.5125 36.5973 31.7535 35.8058 32.8882 34.8879V32.0518C32.8882 30.8349 31.8981 29.845 30.6812 29.845Z" fill="#4FABF7"/>
<path d="M12.7635 30.6397C12.7635 30.2008 13.1192 29.845 13.5581 29.845H4.44141C4.77086 30.3932 5.12641 30.9238 5.50742 31.4345H13.5581C13.1193 31.4344 12.7635 31.0786 12.7635 30.6397Z" fill="#1E9EF4"/>
<path d="M13.5582 37.2392C13.1193 37.239 12.7637 36.8833 12.7637 36.4444C12.7637 36.0055 13.1194 35.6498 13.5582 35.6497H9.83691C10.6872 36.2496 11.5882 36.7822 12.5328 37.2392H13.5582Z" fill="#1E9EF4"/>
<path d="M17.3177 8.97974H2.26305C1.45562 8.97974 0.794922 9.61521 0.794922 10.3919V12.1572C0.794922 12.9339 1.45562 13.5693 2.26305 13.5693H16.3052C16.2603 12.0004 16.598 10.4233 17.3177 8.97974Z" fill="#E9EFFF"/>
<path d="M8.16133 11.2743C8.16133 10.0071 9.18852 8.97973 10.4558 8.97949H2.26305C1.45555 8.97949 0.794922 9.61496 0.794922 10.3917V12.1569C0.794922 12.9336 1.45562 13.5691 2.26305 13.5691H10.4559C9.18867 13.569 8.16133 12.5417 8.16133 11.2743Z" fill="#BEC8F7"/>
<path d="M16.7282 15.9262H2.64145C2.20246 15.9262 1.84668 15.5703 1.84668 15.1314C1.84668 14.6925 2.20246 14.3367 2.64145 14.3367H16.7282C17.1671 14.3367 17.5229 14.6925 17.5229 15.1314C17.5229 15.5703 17.1672 15.9262 16.7282 15.9262Z" fill="#FF4155"/>
<path d="M8.88816 15.1314C8.88816 14.6925 9.24402 14.3367 9.68293 14.3367H2.64145C2.20254 14.3367 1.84668 14.6925 1.84668 15.1314C1.84668 15.5703 2.20254 15.9262 2.64145 15.9262H9.68293C9.24394 15.9262 8.88816 15.5703 8.88816 15.1314Z" fill="#E80054"/>
<path d="M19.1023 20.5158H2.64145C2.20246 20.5158 1.84668 20.1599 1.84668 19.721C1.84668 19.2821 2.20246 18.9263 2.64145 18.9263H19.1023C19.5412 18.9263 19.8971 19.2821 19.8971 19.721C19.8971 20.1599 19.5412 20.5158 19.1023 20.5158Z" fill="#FF4155"/>
<path d="M8.88816 19.721C8.88816 19.2821 9.24402 18.9263 9.68293 18.9263H2.64145C2.20254 18.9263 1.84668 19.2821 1.84668 19.721C1.84668 20.1599 2.20254 20.5158 2.64145 20.5158H9.68293C9.24394 20.5157 8.88816 20.1599 8.88816 19.721Z" fill="#E80054"/>
<path d="M16.4127 14.364H2.20695C0.99 14.364 0 13.3739 0 12.157V10.3918C0 9.17489 0.99 8.18481 2.20695 8.18481H17.2342C17.6732 8.18481 18.029 8.54067 18.029 8.97958C18.029 9.41849 17.6731 9.77435 17.2342 9.77435H2.20695C1.86656 9.77435 1.58961 10.0514 1.58961 10.3918V12.157C1.58961 12.4974 1.86656 12.7744 2.20695 12.7744H16.4127C16.8516 12.7744 17.2075 13.1303 17.2075 13.5692C17.2075 14.0081 16.8516 14.364 16.4127 14.364Z" fill="#FFDD40"/>
<path d="M8.02063 13.5692C8.02063 13.1303 8.37641 12.7744 8.81539 12.7744H2.20695C1.86656 12.7744 1.58961 12.4974 1.58961 12.157V10.3918C1.58961 10.0514 1.86656 9.77435 2.20695 9.77435H8.77516C8.33617 9.77435 7.98039 9.41849 7.98039 8.97958C7.98039 8.54067 8.33625 8.18481 8.77516 8.18481H2.20695C0.99 8.18474 0 9.17482 0 10.3918V12.157C0 13.374 0.99 14.364 2.20695 14.364H8.81539C8.37641 14.364 8.02063 14.0081 8.02063 13.5692Z" fill="#FFB332"/>
<path d="M25.7736 23.3939C31.3122 23.3939 35.8022 18.904 35.8022 13.3654C35.8022 7.82683 31.3122 3.33691 25.7736 3.33691C20.235 3.33691 15.7451 7.82683 15.7451 13.3654C15.7451 18.904 20.235 23.3939 25.7736 23.3939Z" fill="#9BD8F9"/>
<path d="M32.6223 20.4754C32.0266 20.3272 31.8384 19.8562 31.779 19.5706C31.7534 19.4476 31.6596 19.3476 31.5358 19.3258C31.0946 19.2484 30.9628 18.9328 30.9252 18.7161C30.9027 18.5874 30.8 18.4879 30.6715 18.4643C26.789 17.7526 27.0786 14.4271 27.1557 13.8678C27.1632 13.8132 27.1561 13.758 27.1353 13.7069L26.783 12.839C26.7441 12.7433 26.6607 12.6719 26.5598 12.65C24.1158 12.1176 24.4053 10.0154 24.4831 9.61764C24.492 9.57225 24.4905 9.52576 24.4791 9.48092L24.2345 8.5124C24.2063 8.40084 24.1201 8.31131 24.0083 8.28436C23.1163 8.06959 23.0866 7.26967 23.1355 6.85326C23.1521 6.71248 23.0702 6.58147 22.9399 6.52553C22.5496 6.35803 22.5252 6.02662 22.5687 5.78725C22.5959 5.63725 22.5078 5.48943 22.364 5.43873C21.7703 5.22951 21.7405 4.69154 21.779 4.37873C21.7876 4.30865 21.7711 4.24053 21.7365 4.18311C20.6282 4.67006 19.5899 5.36686 18.6824 6.27436C14.766 10.1908 14.766 16.5404 18.6824 20.4569C22.5659 24.3404 28.8417 24.3722 32.7654 20.5539C32.7268 20.5173 32.6785 20.4894 32.6223 20.4754Z" fill="#73C3F9"/>
<path d="M25.7736 21.2261C30.1148 21.2261 33.634 17.7068 33.634 13.3656C33.634 9.02438 30.1148 5.50513 25.7736 5.50513C21.4323 5.50513 17.9131 9.02438 17.9131 13.3656C17.9131 17.7068 21.4323 21.2261 25.7736 21.2261Z" fill="#4FABF7"/>
<path d="M28.4914 16.1686C26.5687 15.7939 27.3364 14.0313 27.3364 14.0313C26.1629 13.7752 26.6685 12.614 26.6685 12.614L25.638 11.0458C24.3092 11.1832 24.4396 9.95068 24.4396 9.95068C22.2108 9.53248 23.0793 6.6385 23.0793 6.6385L22.4973 6.21826C21.6707 6.59709 20.8961 7.12646 20.2154 7.80717C17.1457 10.8769 17.1457 15.8539 20.2154 18.9236C23.1293 21.8375 27.7614 21.985 30.8498 19.3669V18.5641C28.1997 18.564 28.4914 16.1686 28.4914 16.1686Z" fill="#1E9EF4"/>
<path d="M34.531 22.1234C34.8206 21.8338 35.1926 21.6783 35.5715 21.6535L33.545 19.627C33.1279 19.2099 32.4516 19.2099 32.0345 19.627C31.6174 20.0441 31.6174 20.7204 32.0345 21.1375L34.061 23.164C34.0858 22.785 34.2414 22.413 34.531 22.1234Z" fill="#E9EFFF"/>
<path d="M36.7139 22.0112C36.0806 21.3778 35.0537 21.3778 34.4203 22.0112C33.787 22.6445 33.787 23.6714 34.4203 24.3047L38.2091 28.0935C38.712 27.0172 39.1184 25.8869 39.4156 24.7129L36.7139 22.0112Z" fill="#FF4155"/>
<path d="M36.7553 24.3525C37.2813 23.8264 38.0597 23.7093 38.7002 23.9974L36.7139 22.0112C36.0806 21.3778 35.0537 21.3778 34.4203 22.0112C33.787 22.6445 33.787 23.6714 34.4203 24.3047L36.3893 26.2737C36.1146 25.6379 36.2357 24.872 36.7553 24.3525Z" fill="#E80054"/>
<path d="M31.19 12.5351C30.2857 11.3486 29.0797 10.5531 27.7713 10.1492C28.1221 10.5964 28.3321 11.1592 28.3321 11.7704C28.3321 13.2218 27.1514 14.4025 25.7 14.4025C24.2486 14.4025 23.0679 13.2217 23.0679 11.7704C23.0679 11.1581 23.2786 10.5946 23.6305 10.147C22.3224 10.5497 21.116 11.345 20.21 12.535C19.8701 12.9814 19.8701 13.6028 20.21 14.0492C22.9538 17.6527 28.453 17.6404 31.1901 14.0492C31.53 13.6031 31.53 12.9813 31.19 12.5351Z" fill="#E9EFFF"/>
<path d="M28.4907 16.1685C26.5687 15.7936 27.3362 14.0313 27.3362 14.0313C27.2636 14.0155 27.1976 13.9962 27.1374 13.9738C26.7238 14.2445 26.2303 14.4025 25.7002 14.4025C24.2488 14.4025 23.0681 13.2218 23.0681 11.7704C23.0681 11.1582 23.2787 10.5946 23.6306 10.147C22.3224 10.5496 21.116 11.345 20.21 12.535C19.8701 12.9814 19.8701 13.6028 20.21 14.0492C22.2161 16.684 25.6952 17.3853 28.4907 16.1685Z" fill="#BEC8F7"/>
<path d="M23.3712 10.2332C23.0795 10.6743 22.9092 11.2025 22.9092 11.7709C22.9092 13.3124 24.1588 14.562 25.7002 14.562C27.2417 14.562 28.4913 13.3124 28.4913 11.7709C28.4913 11.2035 28.3215 10.676 28.0307 10.2354C26.5297 9.70652 24.8732 9.70496 23.3712 10.2332Z" fill="#3C58A0"/>
<path d="M25.6991 14.5613C26.3104 14.5613 26.8752 14.3644 27.3349 14.0311C26.1618 13.7749 26.6673 12.6139 26.6673 12.6139L25.6368 11.0457C24.3187 11.1819 24.4363 9.9711 24.4384 9.95142C24.0766 10.017 23.7191 10.1099 23.3702 10.2326C23.0784 10.6736 22.9082 11.202 22.9082 11.7702C22.908 13.3117 24.1577 14.5613 25.6991 14.5613Z" fill="#1C2E7A"/>
<path d="M27.7706 11.6717C27.8698 11.0597 27.4541 10.4833 26.8422 10.3841C26.2303 10.2849 25.6538 10.7005 25.5546 11.3124C25.4554 11.9243 25.8711 12.5008 26.483 12.6C27.0949 12.6992 27.6714 12.2836 27.7706 11.6717Z" fill="#4B6BB2"/>
<path d="M19.7964 19.3432C16.4926 16.0393 16.4921 10.6918 19.7964 7.3876C23.0925 4.0915 28.4557 4.0915 31.7519 7.3876C35.048 10.6837 35.048 16.047 31.7519 19.3432C28.4558 22.6393 23.0926 22.6394 19.7964 19.3432ZM18.507 13.3654C18.507 19.8239 26.3655 23.0514 30.9128 18.5041C33.7462 15.6706 33.7462 11.0602 30.9128 8.22681C26.3728 3.68682 18.507 6.89431 18.507 13.3654Z" fill="#73C3F9"/>
<path d="M31.5361 19.3256C31.095 19.2482 30.9632 18.9326 30.9255 18.7159C30.9154 18.6577 30.8883 18.6061 30.8504 18.5641C26.294 23.021 18.507 19.7947 18.507 13.3654C18.507 10.0992 20.5111 7.66532 23.0798 6.63852C23.0454 6.59001 22.9981 6.55001 22.9404 6.52532C22.5501 6.35782 22.5258 6.02642 22.5692 5.78704C22.5838 5.70657 22.5644 5.62728 22.5218 5.56274C21.5302 5.97454 20.6015 6.58243 19.7964 7.38759C16.4921 10.6919 16.4926 16.0394 19.7964 19.3432C23.0718 22.6185 28.3876 22.6385 31.6888 19.4048C31.6474 19.3647 31.5954 19.3361 31.5361 19.3256Z" fill="#4FABF7"/>
</g>
<defs>
<clipPath id="clip0">
<rect width="40" height="40" fill="white"/>
</clipPath>
</defs>
</svg>
