<svg width="40" height="40" viewBox="0 0 40 40" fill="none" xmlns="http://www.w3.org/2000/svg">
<g clip-path="url(#clip0)">
<path d="M20.0002 1.71826C9.42898 1.71826 0.859375 10.2879 0.859375 20.859C0.859375 24.402 1.82312 27.7193 3.50109 30.5654L27.4958 38.4758C34.3416 35.5593 39.1409 28.7698 39.1409 20.859C39.1409 10.2879 30.5713 1.71826 20.0002 1.71826Z" fill="#FF4155"/>
<path d="M19.8386 4.1653C19.8386 3.38796 19.9343 2.63265 20.1135 1.90991H7.06934C5.07051 1.90991 3.44434 3.53608 3.44434 5.53491V30.4687C4.27191 31.8917 5.2777 33.1983 6.43098 34.3578L24.5655 39.4499C25.6124 39.1934 26.6261 38.8521 27.5975 38.4315V13.5427C22.4268 13.5427 19.8386 9.33608 19.8386 4.1653Z" fill="#167CC1"/>
<path d="M12.4421 36.0457L12.2577 6.71507C12.2575 6.67398 12.2423 6.63452 12.2168 6.60234C11.7702 6.03835 12.0488 5.64968 12.2236 5.48585C12.2808 5.43226 12.2943 5.34609 12.2584 5.2764C12.0527 4.87577 12.3265 4.62241 12.4418 4.53851C12.4735 4.51546 12.4959 4.4821 12.5068 4.44444L12.822 3.35343C12.8389 3.29476 12.8254 3.23062 12.7844 3.18522C12.2449 2.58718 12.6179 2.15976 12.8257 1.99038C12.8522 1.96874 12.8707 1.94054 12.8811 1.90991H7.06934C5.07051 1.90991 3.44434 3.53608 3.44434 5.53491V30.4688C4.27215 31.8921 5.27863 33.1986 6.43246 34.3582L12.4421 36.0457Z" fill="#024788"/>
<path d="M5.69922 33.5792C9.20468 37.518 14.3117 39.9999 19.9996 39.9999C21.8538 39.9999 23.6461 39.7353 25.3417 39.2434V13.2678C23.7724 12.8789 23.9765 12.0938 22.8294 11.0251H5.69922V33.5792Z" fill="#E9EFFF"/>
<path d="M5.69922 11.0251V33.5792C7.50617 35.6095 9.73836 37.2525 12.2569 38.368V11.0251H5.69922Z" fill="#D3DCFB"/>
<path d="M12.8507 4.50785H12.4888C12.1428 4.50785 11.8623 4.22738 11.8623 3.88137C11.8623 3.53535 12.1428 3.25488 12.4888 3.25488H12.8507C13.1968 3.25488 13.4772 3.53535 13.4772 3.88137C13.4772 4.22738 13.1967 4.50785 12.8507 4.50785Z" fill="#1E92D3"/>
<path d="M20.0854 4.50785H14.9888C14.6428 4.50785 14.3623 4.22738 14.3623 3.88137C14.3623 3.53535 14.6428 3.25488 14.9888 3.25488H20.0854C20.4315 3.25488 20.7119 3.53535 20.7119 3.88137C20.7119 4.22738 20.4315 4.50785 20.0854 4.50785Z" fill="#1E92D3"/>
<path d="M20.0247 6.02537H11.4701C10.9188 6.02537 10.4678 5.57428 10.4678 5.02303C10.4678 4.54943 10.0839 4.16553 9.61027 4.16553H7.0698C6.3134 4.16553 5.7002 4.77873 5.7002 5.53522V11.2475H23.0763C21.5411 9.9146 20.4422 8.09202 20.0247 6.02537Z" fill="#9BD8F9"/>
<path d="M11.4701 6.02537C10.9188 6.02537 10.4678 5.57428 10.4678 5.02303C10.4678 4.54943 10.0839 4.16553 9.61027 4.16553H7.0698C6.3134 4.16553 5.7002 4.77873 5.7002 5.53513V11.2474H12.2578V6.02537H11.4701Z" fill="#73C3F9"/>
<path d="M6.32613 34.2501V5.53475C6.32613 5.1249 6.65949 4.79154 7.06934 4.79154H9.60981C9.73715 4.79154 9.84083 4.89514 9.84083 5.02256C9.84083 5.92068 10.5715 6.65139 11.4697 6.65139H20.4419C20.7879 6.65139 21.0683 6.37092 21.0683 6.0249C21.0683 5.67889 20.7879 5.39842 20.4419 5.39842H11.4697C11.2659 5.39842 11.0938 5.22631 11.0938 5.02256C11.0938 4.20428 10.4281 3.53857 9.60981 3.53857H7.06934C5.96863 3.53857 5.07324 4.43404 5.07324 5.53475V32.8388C5.46762 33.3297 5.88598 33.8005 6.32613 34.2501Z" fill="#1E92D3"/>
<path d="M25.9688 12.8501C25.9688 12.5041 25.6883 12.2236 25.3423 12.2236C24.9963 12.2236 24.7158 12.5041 24.7158 12.8501V39.4139C25.1393 39.3065 25.557 39.1846 25.9688 39.0495V12.8501Z" fill="#1E92D3"/>
<path d="M6.32613 34.2504V5.53507C6.32613 5.12522 6.65949 4.79187 7.06934 4.79187H9.6098C9.73715 4.79187 9.84082 4.89546 9.84082 5.02288C9.84082 5.92101 10.5715 6.65171 11.4696 6.65171H12.2449C12.2379 6.63413 12.2286 6.61749 12.2167 6.60241C11.7701 6.03843 12.0487 5.64976 12.2236 5.48593C12.2491 5.46202 12.2644 5.43124 12.272 5.39866H11.4696C11.2658 5.39866 11.0937 5.22655 11.0937 5.0228C11.0937 4.20452 10.428 3.53882 9.60973 3.53882H7.06934C5.96863 3.53882 5.07324 4.43429 5.07324 5.53499V32.8391C5.46762 33.3301 5.88598 33.8009 6.32613 34.2504Z" fill="#167CC1"/>
<path d="M20.7166 7.78589H12.2832V9.98151H21.778C21.8255 9.98151 21.872 9.97745 21.9178 9.97167C21.4258 9.3048 21.0199 8.57065 20.7166 7.78589Z" fill="#E9EFFF"/>
<path d="M12.3662 7.78589H11.1339C10.5276 7.78589 10.0361 8.27737 10.0361 8.8837C10.0361 9.49003 10.5276 9.98151 11.1339 9.98151H12.3662V7.78589Z" fill="#3C58A0"/>
<path d="M8.62348 6.5098H7.76027C7.41426 6.5098 7.13379 6.22934 7.13379 5.88332C7.13379 5.5373 7.41426 5.25684 7.76027 5.25684H8.62348C8.96949 5.25684 9.24996 5.5373 9.24996 5.88332C9.24996 6.22934 8.96941 6.5098 8.62348 6.5098Z" fill="#E9EFFF"/>
<path d="M34.0958 4.57812H32.664C32.2857 4.57812 31.978 4.27039 31.978 3.89211V2.46039C31.978 0.757969 30.7762 0.189609 30.0094 0H19.4204C18.9892 0 18.6396 0.349609 18.6396 0.780781V24.8413C18.6396 25.2726 18.9893 25.6221 19.4204 25.6221H35.7754C36.2066 25.6221 36.5561 25.2726 36.5561 24.8413V6.26367C36.097 4.61648 34.119 4.57836 34.0958 4.57812Z" fill="#FFDD40"/>
<path d="M18.6396 0.780781V24.8413C18.6396 25.2726 18.9893 25.6221 19.4204 25.6221H29.4201C29.388 25.5498 29.3443 25.4823 29.2895 25.4234C26.9315 22.8936 28.1168 20.6766 28.9299 19.6629C29.1579 19.3787 29.1343 18.9692 28.8728 18.7155C28.2868 18.1468 28.5343 17.3109 28.6114 17.0963C28.6219 17.067 28.634 17.0391 28.6483 17.0115L29.1992 15.9431C29.2506 15.8435 29.2774 15.7331 29.2774 15.621V15.1564C29.2774 14.9233 29.1482 14.7158 28.9511 14.5912C28.7717 14.4777 28.716 14.2876 28.703 14.1351C28.6887 13.9672 28.6193 13.8088 28.4974 13.6924L28.3071 13.5107C28.1964 13.4051 28.1232 13.2662 28.0987 13.1152L27.6539 10.3786C27.6217 10.1798 27.5041 10.0065 27.335 9.89727C26.8197 9.56437 26.7674 9.07141 26.8212 8.70203C26.865 8.40109 26.7158 8.10828 26.4442 7.97164C23.0652 6.27141 24.5691 1.57328 25.0463 0.313984C25.0847 0.2125 25.0986 0.105156 25.0887 0H19.4206C18.9892 0 18.6396 0.349609 18.6396 0.780781Z" fill="#FFB332"/>
<path d="M35.7502 3.86727L32.6885 0.805625C32.1727 0.289766 31.473 0 30.7436 0H29.3848C29.3848 0 31.8829 0.0380468 31.8829 2.46039V3.89211C31.8829 4.32336 32.2325 4.67289 32.6637 4.67289H34.0955C34.0955 4.67289 36.5559 4.69312 36.5559 6.99922V5.81227C36.5558 5.08273 36.266 4.38312 35.7502 3.86727Z" fill="#FFC839"/>
<path d="M17.7345 33.9473H13.3087C12.5277 33.9473 11.8887 34.5862 11.8887 35.3673C11.8887 36.1483 12.5277 36.7873 13.3087 36.7873H17.7345C18.5155 36.7873 19.1545 36.1483 19.1545 35.3673C19.1545 34.5862 18.5155 33.9473 17.7345 33.9473Z" fill="#38C674"/>
<path d="M15.3501 35.3675C15.3501 34.5865 15.9891 33.9475 16.7701 33.9475H13.3087C12.5277 33.9475 11.8887 34.5865 11.8887 35.3675C11.8887 36.1485 12.5277 36.7875 13.3087 36.7875H16.7701C15.9891 36.7875 15.3501 36.1485 15.3501 35.3675Z" fill="#24B55E"/>
<path d="M16.0932 15.9465H12.3884C11.7656 15.9465 11.2607 15.4416 11.2607 14.8188C11.2607 14.196 11.7656 13.6912 12.3884 13.6912H16.0932C16.716 13.6912 17.2208 14.196 17.2208 14.8188C17.2208 15.4416 16.716 15.9465 16.0932 15.9465Z" fill="#FF4155"/>
<path d="M16.5963 18.6455H8.70168C8.35566 18.6455 8.0752 18.3651 8.0752 18.0191C8.0752 17.673 8.35566 17.3926 8.70168 17.3926H16.5963C16.9423 17.3926 17.2228 17.673 17.2228 18.0191C17.2228 18.3651 16.9423 18.6455 16.5963 18.6455Z" fill="#BEC8F7"/>
<path d="M16.5963 21.2046H8.70168C8.35566 21.2046 8.0752 20.9242 8.0752 20.5781C8.0752 20.2321 8.35566 19.9517 8.70168 19.9517H16.5963C16.9423 19.9517 17.2228 20.2321 17.2228 20.5781C17.2228 20.9242 16.9423 21.2046 16.5963 21.2046Z" fill="#BEC8F7"/>
<path d="M16.5963 23.7635H8.70168C8.35566 23.7635 8.0752 23.483 8.0752 23.137C8.0752 22.791 8.35566 22.5105 8.70168 22.5105H16.5963C16.9423 22.5105 17.2228 22.791 17.2228 23.137C17.2228 23.483 16.9423 23.7635 16.5963 23.7635Z" fill="#BEC8F7"/>
<path d="M16.5963 26.3225H8.70168C8.35566 26.3225 8.0752 26.0421 8.0752 25.6961C8.0752 25.35 8.35566 25.0696 8.70168 25.0696H16.5963C16.9423 25.0696 17.2228 25.35 17.2228 25.6961C17.2228 26.0421 16.9423 26.3225 16.5963 26.3225Z" fill="#BEC8F7"/>
<path d="M22.3423 28.8814H8.70168C8.35566 28.8814 8.0752 28.6009 8.0752 28.2549C8.0752 27.9089 8.35566 27.6284 8.70168 27.6284H22.3423C22.6883 27.6284 22.9688 27.9089 22.9688 28.2549C22.9688 28.6009 22.6883 28.8814 22.3423 28.8814Z" fill="#BEC8F7"/>
<path d="M22.3423 31.4407H8.70168C8.35566 31.4407 8.0752 31.1602 8.0752 30.8142C8.0752 30.4682 8.35566 30.1877 8.70168 30.1877H22.3423C22.6883 30.1877 22.9688 30.4682 22.9688 30.8142C22.9688 31.1602 22.6883 31.4407 22.3423 31.4407Z" fill="#BEC8F7"/>
<path d="M31.5658 17.7557C33.7599 15.5616 33.7599 12.0043 31.5658 9.81018C29.3717 7.61607 25.8144 7.61607 23.6202 9.81018C21.4261 12.0043 21.4261 15.5616 23.6203 17.7557C25.8144 19.9499 29.3717 19.9499 31.5658 17.7557Z" fill="#E9EFFF"/>
<path d="M28.9509 14.5913C28.7714 14.4779 28.7157 14.2877 28.7027 14.1352C28.6884 13.9673 28.619 13.8089 28.4971 13.6926L28.3068 13.5108C28.1961 13.4052 28.123 13.2663 28.0984 13.1153L27.6537 10.3787C27.6214 10.18 27.5038 10.0066 27.3347 9.89741C26.8194 9.56452 26.7671 9.07155 26.8209 8.70218C26.8455 8.53366 26.8094 8.36765 26.7252 8.23022C24.0362 8.64944 21.9785 10.9751 21.9785 13.7816C21.9785 16.885 24.4943 19.4008 27.5977 19.4008C28.1127 19.4008 28.6111 19.3301 29.085 19.2004C29.0801 19.023 29.0091 18.848 28.8725 18.7155C28.2866 18.1469 28.534 17.3109 28.6111 17.0963C28.6216 17.0671 28.6337 17.0392 28.648 17.0116L29.1989 15.9432C29.2503 15.8436 29.2771 15.7332 29.2771 15.6211V15.1565C29.277 14.9234 29.1479 14.7159 28.9509 14.5913Z" fill="#BEC8F7"/>
<path d="M27.5972 14.3095C27.2512 14.3095 26.9707 14.029 26.9707 13.683V10.6612C26.9707 10.3151 27.2512 10.0347 27.5972 10.0347C27.9432 10.0347 28.2237 10.3151 28.2237 10.6612V13.683C28.2237 14.0291 27.9432 14.3095 27.5972 14.3095Z" fill="#4FABF7"/>
<path d="M27.5976 14.7532C27.4373 14.7532 27.277 14.6921 27.1546 14.5698L25.3554 12.7706C25.1107 12.5259 25.1107 12.1293 25.3554 11.8846C25.6 11.64 25.9967 11.64 26.2413 11.8846L27.5976 13.2409L28.9538 11.8846C29.1985 11.64 29.5952 11.64 29.8398 11.8846C30.0845 12.1293 30.0845 12.5259 29.8398 12.7706L28.0405 14.5698C27.9183 14.6921 27.758 14.7532 27.5976 14.7532Z" fill="#4FABF7"/>
<path d="M29.5985 17.0448H25.5952C25.2492 17.0448 24.9688 16.7643 24.9688 16.4183V15.2241C24.9688 14.8781 25.2492 14.5977 25.5952 14.5977C25.9413 14.5977 26.2217 14.8781 26.2217 15.2241V15.7918H28.972V15.2241C28.972 14.8781 29.2525 14.5977 29.5985 14.5977C29.9445 14.5977 30.225 14.8781 30.225 15.2241V16.4183C30.225 16.7643 29.9445 17.0448 29.5985 17.0448Z" fill="#4FABF7"/>
<path d="M34.47 2.58703L32.6886 0.805625C32.1727 0.289766 31.4731 0 30.7436 0H29.3848C29.3848 0 31.8829 0.0380468 31.8829 2.46039V3.89219C31.8829 4.32344 32.2325 4.67297 32.6637 4.67297H33.5657C32.7324 2.70359 34.47 2.58703 34.47 2.58703Z" fill="#FFB332"/>
</g>
<defs>
<clipPath id="clip0">
<rect width="40" height="40" fill="white"/>
</clipPath>
</defs>
</svg>
