<svg width="40" height="40" viewBox="0 0 40 40" fill="none" xmlns="http://www.w3.org/2000/svg">
<path d="M33.8516 33.1521C37.0965 29.7226 39.087 25.0939 39.087 19.9999C39.087 9.42862 30.5173 0.858887 19.9461 0.858887C9.37484 0.858887 0.805176 9.42855 0.805176 19.9999C0.805176 25.0465 2.75917 29.6359 5.95067 33.0556L33.8516 33.1521Z" fill="#1C2E7A"/>
<path d="M29.7176 30.023C29.6273 29.9548 29.5314 29.8941 29.4386 29.8355C28.8429 29.4592 28.776 29.2951 29.0453 28.5499C29.157 28.2406 29.2725 27.9208 29.2071 27.5805C29.0918 26.981 28.5522 26.7381 28.0303 26.5032C27.4857 26.2582 27.3099 26.166 27.0313 25.8232C26.7418 25.4671 26.4821 25.2524 25.8756 25.2498C25.0766 25.2464 24.1995 25.6454 23.8152 25.1449C23.6269 24.8994 23.6604 24.5445 23.6959 24.1686C23.8096 22.9631 23.4991 22.2897 23.4234 21.2467C23.3244 19.8817 23.8041 18.5013 24.7016 17.4769C23.2223 16.9461 21.6294 16.653 19.9681 16.646C18.7276 16.6408 17.5237 16.7953 16.3756 17.0895C16.2364 17.3384 16.115 17.5987 16.0282 17.873C15.7589 18.7229 15.8873 19.6005 16.3631 20.1632C16.9085 20.8082 17.8842 21.0791 18.0287 21.7812C18.1104 22.1784 17.8909 22.5674 17.6586 22.9795C17.4236 23.3959 17.1807 23.8264 17.213 24.3203C17.2547 24.9579 17.7182 25.3881 18.1664 25.8039C19.2408 26.8011 18.9258 26.9375 19.1237 27.4723C19.3537 28.0937 20.083 28.3123 20.3168 28.7883C20.817 29.8071 18.8927 31.9642 15.71 32.2899C15.2179 32.3387 14.7087 32.3773 14.3298 32.7027C13.9397 33.0373 14.0836 33.213 13.1086 33.4958C12.8673 33.5658 12.6177 33.6382 12.3886 33.7661C11.2986 34.3752 11.2911 36.2004 12.3776 36.8178C13.0522 37.2011 14.0117 37.1982 14.1896 37.8025C14.242 37.9806 14.2224 38.1 14.2317 38.2728C16.0364 38.8366 17.9557 39.1407 19.9462 39.1407C22.5477 39.1407 25.0277 38.6207 27.2889 37.6805C27.3082 37.0414 27.0374 36.4371 26.8951 35.8519C26.7617 35.3033 26.7787 34.553 27.2654 34.2436C27.5647 34.0532 27.9757 34.0692 28.3795 34.0002C29.2773 33.847 30.0538 33.2352 30.3579 32.4417C30.6851 31.5873 30.4099 30.5474 29.7176 30.023Z" fill="#73C3F9"/>
<path d="M21.031 35.6681C18.9714 34.8851 18.8087 33.3554 18.9984 32.2749C19.0628 31.9078 18.9767 31.5443 18.7792 31.2554C17.9911 31.7604 16.9461 32.1636 15.71 32.2901C15.2179 32.3388 14.7087 32.3775 14.3298 32.7028C13.9398 33.0375 14.0836 33.2131 13.1086 33.4959C12.8672 33.5659 12.6177 33.6383 12.3886 33.7662C11.2986 34.3753 11.2911 36.2005 12.3776 36.8179C13.0522 37.2012 14.0117 37.1983 14.1895 37.8026C14.2419 37.9807 14.2223 38.1002 14.2317 38.273C16.0363 38.8368 17.9556 39.1408 19.9461 39.1408C20.9309 39.1408 21.8981 39.0661 22.8428 38.9224C22.8321 37.7171 22.9515 36.3982 21.031 35.6681Z" fill="#4FABF7"/>
<path d="M19.3061 27.4044C19.2417 27.2305 19.2363 27.0406 19.1911 26.8608C18.9323 25.8315 17.4763 25.3665 17.4073 24.3076C17.3476 23.3941 18.4039 22.6383 18.2194 21.7418C18.0537 20.937 17.0423 20.6646 16.5116 20.0371C16.0338 19.4721 15.9902 18.6373 16.2137 17.9319C16.3151 17.6121 16.4634 17.3127 16.6365 17.0256C10.3989 18.4976 5.74423 24.0866 5.71595 30.7777C5.71275 31.5256 5.76876 32.2599 5.87728 32.9771C8.16979 35.4611 11.1116 37.3361 14.4336 38.3336C14.4331 38.3286 14.432 38.3237 14.4315 38.3187C14.4133 38.1277 14.4305 37.9312 14.3763 37.7472C14.1614 37.017 13.1354 37.024 12.4735 36.6479C11.5194 36.1058 11.5254 34.4715 12.4833 33.9364C12.986 33.6556 13.6367 33.6553 14.0628 33.2682C14.2045 33.1394 14.3111 32.9753 14.4564 32.8505C14.7972 32.558 15.2826 32.5296 15.7293 32.4839C17.4107 32.3118 19.1202 31.6331 20.1392 30.2846C20.4827 29.8302 20.7424 29.2134 20.4914 28.702C20.2302 28.1702 19.5119 27.9603 19.3061 27.4044Z" fill="#4FABF7"/>
<path d="M18.1132 30.743C13.5777 29.1376 16.9999 24.206 14.3954 22.8032C12.4438 21.7521 12.5815 19.6914 12.8504 18.524C8.60573 20.9617 5.73814 25.5308 5.71595 30.778C5.71275 31.526 5.76876 32.2603 5.87728 32.9774C8.16979 35.4615 11.1116 37.3365 14.4336 38.3339C14.433 38.3289 14.4319 38.324 14.4315 38.319C14.4133 38.1281 14.4305 37.9316 14.3762 37.7476C14.1613 37.0174 13.1353 37.0244 12.4735 36.6483C11.5194 36.1062 11.5254 34.4719 12.4833 33.9367C12.9859 33.6559 13.6367 33.6557 14.0628 33.2685C14.2045 33.1398 14.3112 32.9756 14.4564 32.8509C14.7972 32.5584 15.2825 32.5299 15.7293 32.4842C16.8372 32.3709 17.9559 32.0357 18.8827 31.4359C18.7318 31.1214 18.463 30.8668 18.1132 30.743Z" fill="#1E9EF4"/>
<path d="M24.5055 17.4071C23.609 18.4643 23.1285 19.8759 23.229 21.2608C23.2936 22.1525 23.5826 23.0298 23.5215 23.9218C23.4899 24.3819 23.3797 24.8978 23.6607 25.2637C24.2911 26.0847 25.7807 25.0264 26.603 25.6551C26.7826 25.7924 26.9005 25.9943 27.0612 26.1533C27.6597 26.7455 28.8566 26.7905 29.0156 27.6173C29.1349 28.2375 28.5077 28.8743 28.7574 29.4544C28.906 29.7997 29.3002 29.9516 29.5999 30.1785C30.2464 30.668 30.4659 31.6146 30.1758 32.3719C29.8858 33.1291 29.1463 33.6713 28.347 33.8078C27.9438 33.8767 27.5061 33.8594 27.1609 34.0788C26.597 34.4374 26.5478 35.2485 26.7058 35.898C26.8566 36.5178 27.1383 37.1312 27.0895 37.7621C29.7032 36.7099 32.0308 35.0979 33.9245 33.0741C34.0368 32.3648 34.097 31.638 34.1001 30.8976C34.1265 24.6476 30.1087 19.3243 24.5055 17.4071Z" fill="#4FABF7"/>
<path d="M31.4803 25.1079C31.7494 23.9855 31.0577 22.8575 29.9353 22.5884C28.8129 22.3194 27.6849 23.0112 27.4159 24.1336C27.1468 25.256 27.8386 26.384 28.9609 26.653C30.0833 26.9221 31.2113 26.2303 31.4803 25.1079Z" fill="#FFDD40"/>
<path d="M30.1597 26.591C29.0561 26.0877 29.7237 25.1445 29.7237 25.1445L29.3632 24.1541C28.3293 23.9445 28.35 23.184 28.4304 22.803C27.8041 23.1619 27.3807 23.8352 27.3775 24.6088C27.3725 25.7635 28.3047 26.7036 29.4594 26.7084C29.705 26.7094 29.9406 26.6678 30.1597 26.591Z" fill="#FFB332"/>
<path d="M28.9416 24.8732C28.8005 24.5823 28.922 24.2321 29.213 24.091L32.4932 22.5003L32.5112 18.247C32.5125 17.9236 32.7758 17.6626 33.0991 17.6639C33.4225 17.6654 33.6835 17.9286 33.6822 18.2519L33.6626 22.8703C33.6617 23.0937 33.5337 23.2971 33.3326 23.3946L29.724 25.1446C29.433 25.2857 29.0827 25.1643 28.9416 24.8732Z" fill="#E9EFFF"/>
<path d="M11.1605 26.4925C12.2367 26.0733 12.7694 24.8611 12.3502 23.7848C11.931 22.7086 10.7188 22.176 9.64253 22.5951C8.5663 23.0143 8.03366 24.2266 8.45283 25.3028C8.872 26.379 10.0843 26.9117 11.1605 26.4925Z" fill="#49D88B"/>
<path d="M11.2583 26.4439C10.2277 25.9833 10.7434 25.0118 10.7434 25.0118L10.6069 24.3397C9.5261 23.6756 10.1699 22.4594 10.1699 22.4594C9.12766 22.574 8.31461 23.4547 8.31008 24.5283C8.30516 25.683 9.23735 26.623 10.392 26.6279C10.7008 26.6292 10.994 26.563 11.2583 26.4439Z" fill="#38C674"/>
<path d="M10.1411 25.0616L6.54731 23.2812C6.34708 23.182 6.22075 22.9776 6.22168 22.7541L6.24122 18.1358C6.24262 17.8124 6.50583 17.5514 6.82918 17.5527C7.15254 17.5541 7.41356 17.8173 7.41223 18.1407L7.39426 22.394L10.6609 24.0123C10.9507 24.1559 11.0692 24.5072 10.9257 24.7969C10.7823 25.0861 10.4314 25.2055 10.1411 25.0616Z" fill="#E9EFFF"/>
<path d="M16.1759 13.0642L15.2564 13.0603C14.933 13.059 14.672 12.7957 14.6733 12.4723C14.6747 12.149 14.938 11.888 15.2613 11.8893L16.1808 11.8932C16.5041 11.8945 16.7652 12.1578 16.7638 12.4812C16.7625 12.8045 16.4992 13.0655 16.1759 13.0642Z" fill="#3C58A0"/>
<path d="M19.0211 13.0762L18.1016 13.0723C17.7782 13.0709 17.5172 12.8077 17.5186 12.4843C17.5199 12.1609 17.7832 11.8999 18.1065 11.9013L19.026 11.9052C19.3493 11.9066 19.6104 12.1698 19.609 12.4931C19.6076 12.8165 19.3444 13.0775 19.0211 13.0762Z" fill="#3C58A0"/>
<path d="M21.8648 13.088L20.9454 13.0841C20.622 13.0827 20.361 12.8196 20.3623 12.4961C20.3636 12.1727 20.6269 11.9118 20.9503 11.9131L21.8698 11.917C22.1932 11.9184 22.4542 12.1816 22.4529 12.505C22.4514 12.8284 22.1882 13.0894 21.8648 13.088Z" fill="#3C58A0"/>
<path d="M24.7101 13.1L23.7906 13.0961C23.4672 13.0947 23.2062 12.8315 23.2075 12.5081C23.2089 12.1847 23.4721 11.9237 23.7955 11.9251L24.715 11.929C25.0383 11.9303 25.2993 12.1936 25.298 12.5169C25.2968 12.8404 25.0335 13.1014 24.7101 13.1Z" fill="#3C58A0"/>
<path d="M37.5739 16.9817C40.02 14.5356 40.02 10.5696 37.5739 8.12353C35.1278 5.67742 31.1618 5.67742 28.7157 8.12353C26.2696 10.5696 26.2696 14.5356 28.7157 16.9817C31.1618 19.4278 35.1278 19.4278 37.5739 16.9817Z" fill="#FFC839"/>
<path d="M37.5445 17.0144C37.3939 16.8769 37.3556 16.6854 37.3513 16.5442C37.3484 16.4473 37.262 16.3742 37.1656 16.3835C35.9671 16.4997 33.5619 15.9289 32.9783 15.7841C32.9019 15.7651 32.8488 15.6965 32.8491 15.6177L32.8756 9.32771C32.8759 9.27834 32.8541 9.23201 32.8176 9.19873C32.1531 8.59232 32.3831 7.99427 32.5488 7.72294C32.5967 7.64451 32.5696 7.54544 32.4945 7.49255C32.3082 7.3613 32.3317 7.16904 32.3767 7.04123C32.4036 6.96498 32.3753 6.87982 32.306 6.83818C32.0884 6.70724 32.0023 6.54912 31.9853 6.3949C29.093 6.93912 26.8987 9.47107 26.8858 12.5235C26.8712 15.9833 29.6641 18.7999 33.1238 18.8145C34.8455 18.8219 36.4074 18.1337 37.5445 17.0144Z" fill="#FFB332"/>
<path d="M37.1296 16.2896C37.1167 16.2874 37.1378 16.2912 37.0864 16.283L37.0851 16.2837C36.6739 16.2226 36.0416 16.3643 35.4124 15.994C35.1292 16.4165 34.7969 16.7475 34.4875 16.9857C34.0993 17.2846 33.6211 17.4457 33.1293 17.4437C32.6375 17.4416 32.1607 17.2764 31.775 16.9743C31.4677 16.7336 31.1385 16.4001 30.8589 15.9756C30.2461 16.3312 29.6449 16.1936 29.2186 16.2461C29.2185 16.246 29.2184 16.2458 29.2183 16.2457C29.1675 16.2524 29.1614 16.2521 29.1388 16.2558L29.1425 16.2593C28.8556 16.3093 28.5943 16.4297 28.3721 16.5998C29.5154 17.9475 31.2176 18.8068 33.1234 18.8149C35.0296 18.8229 36.7394 17.9776 37.8941 16.6391C37.6736 16.467 37.4136 16.3441 37.1274 16.2915L37.1296 16.2896Z" fill="#E9EFFF"/>
<path d="M31.775 16.9743C31.4677 16.7336 31.1385 16.4001 30.8589 15.9756C30.2461 16.3312 29.6449 16.1936 29.2186 16.2461C29.2185 16.246 29.2184 16.2458 29.2183 16.2457C29.1675 16.2524 29.1614 16.2521 29.1388 16.2558L29.1425 16.2593C28.8556 16.3093 28.5943 16.4297 28.3721 16.5998C28.7754 17.0751 29.2484 17.4893 29.7751 17.8273C30.0497 17.7752 30.3636 17.7262 30.723 17.684C31.317 17.6144 31.7683 17.4246 32.1108 17.19C31.9932 17.1283 31.8805 17.057 31.775 16.9743Z" fill="#BEC8F7"/>
<path d="M30.7856 16.0163C31.0797 16.4963 31.4403 16.8685 31.7749 17.1306C32.1606 17.4327 32.6374 17.598 33.1292 17.6C33.621 17.6021 34.0992 17.4409 34.4874 17.142C34.8245 16.8826 35.1885 16.5132 35.4867 16.0352C35.3134 15.9439 35.1396 15.8161 34.9702 15.6362L34.971 15.6352C34.6841 15.331 34.6123 15.0873 34.4024 14.7174C33.6228 15.1216 32.6785 15.1291 31.8806 14.7068C31.6567 15.0937 31.5885 15.3234 31.3042 15.6198L31.3051 15.6208C31.1328 15.8003 30.9585 15.9267 30.7856 16.0163Z" fill="#FCAD6D"/>
<path d="M32.9537 15.0141C32.5855 14.9874 32.2198 14.8863 31.8805 14.7068C31.6566 15.0937 31.5884 15.3234 31.3042 15.6198L31.305 15.6208C31.1329 15.8003 30.9585 15.9268 30.7856 16.0163C31.0797 16.4963 31.4403 16.8685 31.7749 17.1306C31.8414 17.1827 31.9115 17.2291 31.983 17.273C32.9414 16.6951 33.137 15.753 33.137 15.753C33.137 15.753 33.0578 15.4389 32.9537 15.0141Z" fill="#FD995B"/>
<path d="M32.6577 7.57201C31.1153 7.77552 30.9652 8.64888 30.9631 8.96951C30.9628 9.03677 30.9252 9.09888 30.8646 9.1281C30.0612 9.51474 30.4855 11.3965 30.4855 11.3965C30.566 11.4022 30.6864 11.4718 30.7492 11.5025C30.7649 11.4068 30.7905 11.3125 30.8263 11.2215C30.8537 11.1522 30.8878 11.0822 30.9303 11.0161C31.0042 10.9013 31.0381 10.7658 31.0287 10.63C31.0015 10.2377 30.982 9.50138 31.5007 9.2706C31.9401 9.07513 32.4776 9.19169 32.8202 9.30716C33.0427 9.38216 33.284 9.38325 33.5071 9.31005C33.8506 9.1974 34.3892 9.08544 34.8268 9.28458C35.3421 9.51904 35.3178 10.2515 35.2876 10.6446C35.2771 10.7812 35.309 10.9185 35.3824 11.0347C35.4258 11.1033 35.4601 11.1761 35.4873 11.2479C35.521 11.3371 35.5449 11.4292 35.5595 11.5227C35.6389 11.4847 35.789 11.407 35.8858 11.4211C35.8994 11.01 35.9392 10.5671 35.9392 10.5671C36.4055 8.33185 34.3184 7.35287 32.6577 7.57201Z" fill="#A05838"/>
<path d="M32.8202 9.30719C32.8382 9.31329 32.8564 9.31805 32.8746 9.32313C32.8734 9.27563 32.8524 9.23118 32.8171 9.19899C32.1527 8.59259 32.3827 7.99454 32.5484 7.72321C32.5748 7.68001 32.5777 7.63071 32.5631 7.58618C31.11 7.81251 30.9651 8.65563 30.9631 8.96954C30.9628 9.0368 30.9252 9.09891 30.8646 9.12813C30.0612 9.51477 30.4855 11.3965 30.4855 11.3965C30.566 11.4022 30.6865 11.4718 30.7492 11.5025C30.7649 11.4068 30.7905 11.3126 30.8263 11.2216C30.8537 11.1522 30.8878 11.0822 30.9303 11.0161C31.0042 10.9013 31.0381 10.7658 31.0287 10.6301C31.0015 10.2377 30.9821 9.50141 31.5007 9.27063C31.9401 9.07508 32.4776 9.19165 32.8202 9.30719Z" fill="#823C26"/>
<path d="M36.0229 11.4753C35.9033 11.3647 35.6639 11.4195 35.5602 11.4864C35.5823 11.6276 35.583 11.7719 35.5628 11.9143L35.437 12.8025C35.4367 12.8742 35.4341 12.9445 35.4297 13.0135C35.7269 13.1045 35.8758 12.838 35.9015 12.6548C35.9125 12.576 35.9304 12.4982 35.955 12.4225C36.0352 12.1756 36.3226 11.7522 36.0229 11.4753Z" fill="#FD995B"/>
<path d="M30.2874 11.451C30.4079 11.3414 30.6469 11.3982 30.75 11.466C30.7267 11.607 30.7248 11.7513 30.7438 11.8939L30.8621 12.7831C30.8618 12.8548 30.8637 12.9251 30.8676 12.9942C30.5697 13.0827 30.423 12.8149 30.3989 12.6315C30.3885 12.5525 30.3713 12.4747 30.3473 12.3987C30.2692 12.1511 29.9854 11.7253 30.2874 11.451Z" fill="#FD995B"/>
<path d="M35.524 11.2115C35.4969 11.1398 35.4626 11.0671 35.4193 10.9984C35.3458 10.8822 35.314 10.7449 35.3244 10.6083C35.3546 10.2151 35.3426 9.44608 34.8273 9.21163C34.3896 9.01249 33.8512 9.12444 33.5076 9.23702C33.2845 9.31014 33.0431 9.30913 32.8206 9.23413C32.478 9.11858 31.9406 9.0021 31.5012 9.19757C30.9825 9.42835 30.9654 10.2011 30.9925 10.5933C31.0019 10.729 30.9679 10.8646 30.8942 10.9794C30.8517 11.0455 30.8175 11.1155 30.7902 11.1848C30.7015 11.4098 30.675 11.654 30.7068 11.8934L30.825 12.7829C30.8197 14.0608 31.4982 14.9322 32.0765 15.3854C32.3784 15.6219 32.7517 15.7512 33.1366 15.7528C33.5215 15.7544 33.8959 15.6283 34.1997 15.3944C34.7819 14.9462 35.4677 14.0805 35.4731 12.8026L35.5989 11.9144C35.6324 11.6776 35.6088 11.4355 35.524 11.2115Z" fill="#F9BA8F"/>
<path d="M33.324 15.3907C32.9255 14.9384 32.4585 14.0678 32.4639 12.7899L32.3834 11.9007C32.3618 11.6613 32.3804 11.417 32.4419 11.1919C32.4608 11.1225 32.4845 11.0525 32.514 10.9863C32.5651 10.8714 32.5887 10.7358 32.5823 10.6001C32.5651 10.231 32.5758 9.52511 32.8756 9.25034C32.8572 9.24519 32.8387 9.24034 32.8206 9.23425C32.478 9.1187 31.9405 9.00222 31.5012 9.19769C30.9825 9.42847 30.9654 10.2012 30.9926 10.5935C31.0019 10.7292 30.968 10.8647 30.8942 10.9795C30.8516 11.0456 30.8175 11.1157 30.7902 11.185C30.7015 11.4099 30.675 11.6542 30.7068 11.8935L30.825 12.783C30.8197 14.0609 31.4982 14.9324 32.0765 15.3855C32.3784 15.622 32.7517 15.7513 33.1366 15.7529C33.3227 15.7537 33.5061 15.724 33.6805 15.6673C33.5522 15.6053 33.4315 15.5126 33.324 15.3907Z" fill="#FCAD6D"/>
<path d="M33.122 19.4003C29.3448 19.3844 26.2849 16.2984 26.3008 12.5213C26.3168 8.74414 29.4027 5.6842 33.1799 5.70014C36.957 5.71607 40.0169 8.80203 40.001 12.5792C39.985 16.3563 36.8991 19.4162 33.122 19.4003ZM33.1749 6.87108C30.0434 6.85788 27.485 9.39469 27.4718 12.5262C27.4586 15.6576 29.9954 18.2161 33.1269 18.2293C36.2583 18.2425 38.8167 15.7057 38.8299 12.5742C38.8432 9.44273 36.3063 6.88436 33.1749 6.87108Z" fill="#FFE98D"/>
<path d="M38.1608 17.1877C37.4758 17.215 37.3596 16.7982 37.3518 16.5443C37.3504 16.4971 37.3289 16.4556 37.2963 16.4265C36.2537 17.5407 34.7696 18.2362 33.1269 18.2293C29.9955 18.216 27.4586 15.6576 27.4718 12.5262C27.4839 9.66545 29.6204 7.30224 32.3771 6.92481C32.3645 6.88966 32.3405 6.85872 32.3066 6.83833C31.7796 6.52137 32.0227 6.04488 32.1553 5.85035C32.1723 5.82551 32.1808 5.79723 32.1833 5.76855C28.8746 6.23848 26.3154 9.0824 26.3008 12.5213C26.2849 16.2984 29.3448 19.3843 33.122 19.4003C35.1216 19.4087 36.9274 18.555 38.1866 17.1892C38.1781 17.1883 38.1696 17.1874 38.1608 17.1877Z" fill="#FFC839"/>
<path d="M11.2775 16.8676C13.7236 14.4214 13.7236 10.4555 11.2775 8.00939C8.83136 5.56328 4.86542 5.56328 2.41931 8.00939C-0.0268001 10.4555 -0.0267996 14.4214 2.41931 16.8676C4.86542 19.3137 8.83136 19.3137 11.2775 16.8676Z" fill="#38C674"/>
<path d="M11.2447 16.9035C11.094 16.7659 11.0558 16.5744 11.0515 16.4332C11.0485 16.3364 10.9622 16.2632 10.8657 16.2725C9.66724 16.3887 7.26201 15.8179 6.67834 15.6732C6.60193 15.6542 6.54881 15.5855 6.54912 15.5067L6.57568 9.21683C6.57592 9.16745 6.55412 9.12112 6.51763 9.08784C5.85318 8.48144 6.0831 7.88339 6.24889 7.61206C6.29678 7.53362 6.26967 7.43456 6.19459 7.38167C6.00834 7.25042 6.03178 7.05815 6.07685 6.93034C6.10373 6.85409 6.07545 6.76894 6.00615 6.72722C5.78849 6.59628 5.7024 6.43815 5.68545 6.28394C2.79318 6.82839 0.598885 9.36026 0.585995 12.4127C0.571385 15.8725 3.36428 18.6891 6.82404 18.7037C8.5456 18.711 10.1076 18.0228 11.2447 16.9035Z" fill="#24B55E"/>
<path d="M10.8298 16.1783C10.8168 16.1761 10.8379 16.18 10.7865 16.1718L10.7852 16.1725C10.3739 16.1113 9.74171 16.2531 9.11249 15.8828C8.82929 16.3053 8.49703 16.6363 8.18757 16.8745C7.79937 17.1733 7.32117 17.3345 6.82937 17.3325C6.33757 17.3303 5.86078 17.1651 5.47515 16.863C5.16789 16.6223 4.83859 16.2888 4.55914 15.8643C3.94633 16.2199 3.34508 16.0823 2.91875 16.1347C2.91867 16.1346 2.91851 16.1345 2.91851 16.1344C2.86773 16.1411 2.86164 16.1408 2.83898 16.1445L2.84273 16.1479C2.55578 16.1979 2.29445 16.3184 2.07227 16.4885C3.21555 17.8361 4.91781 18.6955 6.82359 18.7036C8.72984 18.7116 10.4396 17.8663 11.5942 16.5278C11.3737 16.3557 11.1137 16.2328 10.8275 16.1802L10.8298 16.1783Z" fill="#E9EFFF"/>
<path d="M5.47516 16.8631C5.16789 16.6224 4.83859 16.2889 4.55914 15.8644C3.94633 16.22 3.34508 16.0824 2.91875 16.1348C2.91867 16.1348 2.91852 16.1346 2.91852 16.1345C2.86773 16.1412 2.86164 16.1409 2.83898 16.1446L2.84273 16.1481C2.55578 16.1981 2.29445 16.3185 2.07227 16.4886C2.47555 16.9639 2.94859 17.3781 3.47531 17.7161C3.74992 17.664 4.06375 17.615 4.4232 17.5728C5.01719 17.5032 5.46852 17.3134 5.81102 17.0788C5.69344 17.0171 5.58063 16.9458 5.47516 16.8631Z" fill="#BEC8F7"/>
<path d="M4.48584 15.905C4.7799 16.385 5.14053 16.7572 5.47514 17.0193C5.86084 17.3214 6.33764 17.4867 6.82944 17.4888C7.32123 17.4909 7.79944 17.3296 8.18764 17.0308C8.52467 16.7714 8.88866 16.402 9.18694 15.924C9.01358 15.8327 8.83983 15.7049 8.67038 15.525L8.67124 15.524C8.38428 15.2198 8.31248 14.9761 8.10256 14.6062C7.32295 15.0104 6.37873 15.0178 5.58076 14.5956C5.35686 14.9825 5.28858 15.2122 5.00443 15.5086L5.00529 15.5096C4.83311 15.6889 4.65873 15.8154 4.48584 15.905Z" fill="#FCAD6D"/>
<path d="M6.65389 14.9029C6.28569 14.8762 5.91998 14.7751 5.58069 14.5956C5.35678 14.9825 5.28858 15.2122 5.00436 15.5085L5.00522 15.5096C4.83311 15.6891 4.65873 15.8156 4.48584 15.9052C4.7799 16.3852 5.14053 16.7574 5.47514 17.0195C5.54162 17.0716 5.6117 17.118 5.68319 17.1618C6.64162 16.584 6.83717 15.6419 6.83717 15.6419C6.83717 15.6419 6.75795 15.3277 6.65389 14.9029Z" fill="#FD995B"/>
<path d="M6.35783 7.46092C4.81549 7.66444 4.66533 8.5378 4.6633 8.85842C4.66283 8.92569 4.62533 8.9878 4.56479 9.01702C3.76135 9.40366 4.18572 11.2854 4.18572 11.2854C4.26619 11.2911 4.38666 11.3607 4.4494 11.3914C4.46518 11.2957 4.49072 11.2015 4.52658 11.1105C4.55393 11.0411 4.58799 10.9711 4.63057 10.905C4.7044 10.7902 4.73838 10.6547 4.729 10.519C4.70182 10.1266 4.68236 9.3903 5.20104 9.15952C5.64041 8.96405 6.17791 9.08061 6.52049 9.19608C6.74299 9.27108 6.98432 9.27217 7.20744 9.19897C7.55096 9.08631 8.08947 8.97436 8.52721 9.1735C9.04244 9.40795 9.01815 10.1404 8.98799 10.5335C8.97752 10.6701 9.0094 10.8074 9.08283 10.9237C9.12619 10.9922 9.16049 11.065 9.18768 11.1368C9.22143 11.226 9.24533 11.3181 9.25994 11.4117C9.33932 11.3737 9.4894 11.296 9.58619 11.3101C9.59979 10.899 9.63963 10.4561 9.63963 10.4561C10.1057 8.22077 8.01854 7.24178 6.35783 7.46092Z" fill="#A05838"/>
<path d="M6.52083 9.19611C6.53879 9.20221 6.55708 9.20697 6.57528 9.21205C6.57403 9.16455 6.55301 9.1201 6.51778 9.08791C5.85332 8.4815 6.08325 7.88346 6.24903 7.61213C6.27543 7.56893 6.27832 7.51963 6.26372 7.4751C4.81059 7.70143 4.66574 8.54455 4.66379 8.85846C4.66332 8.92572 4.62582 8.98783 4.56528 9.01705C3.76184 9.40369 4.18621 11.2854 4.18621 11.2854C4.26668 11.2911 4.38715 11.3607 4.44988 11.3914C4.46567 11.2957 4.49121 11.2015 4.52707 11.1105C4.55442 11.0411 4.58848 10.9711 4.63106 10.905C4.70488 10.7903 4.73887 10.6547 4.72949 10.519C4.70231 10.1267 4.68285 9.39033 5.20153 9.15955C5.64075 8.964 6.17817 9.08057 6.52083 9.19611Z" fill="#823C26"/>
<path d="M9.72357 11.3641C9.60396 11.2535 9.36459 11.3083 9.26092 11.3752C9.28295 11.5164 9.28365 11.6607 9.26349 11.8031L9.13771 12.6913C9.1374 12.763 9.13482 12.8332 9.13037 12.9023C9.42756 12.9933 9.57646 12.7268 9.60216 12.5436C9.61318 12.4647 9.63107 12.387 9.65568 12.3113C9.73591 12.0644 10.0233 11.641 9.72357 11.3641Z" fill="#FD995B"/>
<path d="M3.98715 11.3398C4.1077 11.2302 4.34661 11.287 4.44973 11.3548C4.42645 11.4958 4.42458 11.6401 4.44356 11.7827L4.56184 12.6719C4.56153 12.7436 4.56348 12.8139 4.56739 12.883C4.2695 12.9715 4.12278 12.7037 4.09864 12.5203C4.08825 12.4413 4.07106 12.3635 4.04708 12.2875C3.96887 12.0399 3.68512 11.6141 3.98715 11.3398Z" fill="#FD995B"/>
<path d="M9.22479 11.1006C9.19761 11.0288 9.16331 10.9561 9.11995 10.8875C9.04659 10.7712 9.01464 10.6339 9.02511 10.4973C9.05526 10.1042 9.04323 9.33512 8.528 9.10067C8.09026 8.90153 7.5519 9.01348 7.20831 9.12606C6.98518 9.19918 6.7437 9.19817 6.52128 9.12317C6.1787 9.00762 5.64128 8.89114 5.2019 9.0866C4.68323 9.31731 4.66612 10.09 4.69323 10.4824C4.70261 10.6181 4.6687 10.7536 4.59487 10.8684C4.55237 10.9345 4.51823 11.0046 4.49089 11.0739C4.40222 11.2988 4.37565 11.5431 4.40745 11.7825L4.52573 12.6719C4.52034 13.9498 5.19886 14.8213 5.77722 15.2744C6.07909 15.5109 6.45237 15.6402 6.83729 15.6418C7.22229 15.6435 7.59659 15.5173 7.90042 15.2834C8.48261 14.8353 9.16847 13.9695 9.17386 12.6916L9.29964 11.8034C9.33323 11.5666 9.30956 11.3245 9.22479 11.1006Z" fill="#F9BA8F"/>
<path d="M7.02471 15.2793C6.6262 14.8271 6.15917 13.9564 6.16456 12.6786L6.08409 11.7893C6.06245 11.55 6.08112 11.3057 6.14261 11.0806C6.16159 11.0112 6.18518 10.9411 6.21464 10.875C6.26573 10.7601 6.28932 10.6245 6.283 10.4889C6.26589 10.1197 6.27643 9.41378 6.57636 9.13902C6.55792 9.13386 6.53948 9.12902 6.52128 9.12292C6.1787 9.00738 5.64128 8.89089 5.2019 9.08636C4.68323 9.31706 4.66612 10.0898 4.69323 10.4821C4.70261 10.6178 4.6687 10.7534 4.59487 10.8682C4.55237 10.9343 4.51823 11.0043 4.49089 11.0736C4.40222 11.2986 4.37565 11.5428 4.40745 11.7822L4.52573 12.6717C4.52034 13.9496 5.19886 14.8211 5.77722 15.2742C6.07909 15.5107 6.45237 15.64 6.83729 15.6416C7.02339 15.6424 7.20682 15.6127 7.38112 15.556C7.253 15.494 7.13222 15.4013 7.02471 15.2793Z" fill="#FCAD6D"/>
<path d="M6.82168 19.2893C3.04455 19.2734 -0.0153873 16.1874 0.000550258 12.4103C0.0164878 8.63318 3.10244 5.57316 6.87957 5.58917C10.6567 5.60511 13.7166 8.69107 13.7007 12.4682C13.6847 16.2453 10.5988 19.3053 6.82168 19.2893ZM6.87457 6.76012C3.74315 6.74691 1.18478 9.28373 1.17149 12.4152C1.15821 15.5467 3.6951 18.1051 6.82661 18.1183C9.95803 18.1315 12.5164 15.5947 12.5296 12.4632C12.5429 9.33177 10.0061 6.77332 6.87457 6.76012Z" fill="#49D88B"/>
<path d="M11.8606 17.0767C11.1756 17.1041 11.0594 16.6872 11.0516 16.4334C11.0502 16.3861 11.0287 16.3447 10.9961 16.3155C9.9535 17.4297 8.46935 18.1252 6.82668 18.1183C3.69526 18.1051 1.15837 15.5466 1.17157 12.4152C1.18368 9.55457 3.32018 7.19127 6.07684 6.81385C6.06426 6.77869 6.04027 6.74776 6.00637 6.72736C5.47941 6.41041 5.72246 5.93392 5.85504 5.73939C5.87199 5.71455 5.88051 5.68626 5.88301 5.65759C2.57432 6.12752 0.0150816 8.97152 0.000550258 12.4103C-0.0153873 16.1874 3.04455 19.2734 6.82168 19.2893C8.8213 19.2978 10.6271 18.444 11.8863 17.0783C11.8779 17.0773 11.8694 17.0764 11.8606 17.0767Z" fill="#38C674"/>
</svg>
