<svg width="40" height="40" viewBox="0 0 40 40" fill="none" xmlns="http://www.w3.org/2000/svg">
<path d="M19.1409 1.71826C12.9819 1.71826 7.50312 4.62795 4.00195 9.14693L7.67906 36.1899C10.8742 38.5826 14.842 39.9999 19.1409 39.9999C29.7121 39.9999 38.2817 31.4303 38.2817 20.8591C38.2817 10.2879 29.7121 1.71826 19.1409 1.71826Z" fill="#1C2E7A"/>
<path d="M30.0967 18.03C29.9018 18.1875 29.7015 18.3368 29.4967 18.4785V33.092C29.4967 33.4864 29.1757 33.8075 28.7813 33.8075H5.04541C5.87158 34.7064 6.78252 35.526 7.76572 36.2537H10.9491C11.3871 36.2537 11.7917 36.4934 11.9963 36.8807C12.3427 37.5367 13.0315 37.9839 13.825 37.9839C14.6185 37.9839 15.3074 37.5367 15.6538 36.8807C15.8583 36.4934 16.263 36.2537 16.701 36.2537H29.2392C30.6768 36.2537 31.8531 35.0774 31.8531 33.6398V19.6336L30.181 17.9617L30.0967 18.03Z" fill="#FFB332"/>
<path d="M7.76572 36.2539H10.9491C11.3871 36.2539 11.7917 36.4936 11.9963 36.8809C12.3428 37.5369 13.0316 37.984 13.8251 37.984C14.6185 37.984 15.3074 37.5368 15.6538 36.8809C13.0265 36.4814 13.8251 33.8789 13.8251 33.8789L12.7805 33.8076H5.04541C5.87158 34.7065 6.78244 35.5261 7.76572 36.2539Z" fill="#FF9100"/>
<path d="M28.7775 31.4245C23.9779 29.4373 18.5451 29.5622 13.8252 31.7992V33.8789H28.7814C29.2457 33.8789 29.6221 33.5025 29.6221 33.0382V30.8565C29.6221 31.2921 29.18 31.5911 28.7775 31.4245Z" fill="#D3DCFB"/>
<path d="M2.51123 30.3416C3.24209 31.6205 4.1167 32.8064 5.11225 33.8786H13.8255V31.7989C10.2669 30.1123 6.30326 29.627 2.51123 30.3416Z" fill="#BEC8F7"/>
<path d="M6.93982 30.244L6.79021 30.0429C5.35998 29.976 3.92373 30.0754 2.51123 30.3416C3.24209 31.6206 4.1167 32.8065 5.11225 33.8787H8.68529C5.79467 32.7558 6.93982 30.244 6.93982 30.244Z" fill="#A8B7EF"/>
<path d="M13.8252 11.7549V31.9923C18.5452 29.7553 23.9779 29.6304 28.7776 31.6175C29.1801 31.7842 29.6222 31.4852 29.6222 31.0496V18.39C23.5657 22.7186 14.9715 19.1492 13.8252 11.7549Z" fill="#E9EFFF"/>
<path d="M4.0682 9.06058C1.51969 12.3118 0 16.4079 0 20.8593C0 24.3817 0.9525 27.6811 2.61242 30.5161C6.37359 29.8293 10.2983 30.3211 13.825 31.9925V10.7428C10.7511 9.28597 7.37492 8.72582 4.0682 9.06058Z" fill="#D3DCFB"/>
<path d="M5.50211 27.0887V13.1723C5.50211 11.2777 6.77391 9.66643 8.5057 9.148C7.03469 8.9405 5.54453 8.91104 4.06812 9.0605C1.51969 12.3117 0 16.4078 0 20.8592C0 24.3816 0.9525 27.681 2.61242 30.516C4.04141 30.255 5.49398 30.1647 6.9393 30.2441C6.06016 29.4728 5.50211 28.3431 5.50211 27.0887Z" fill="#BEC8F7"/>
<path d="M11.7497 15.1264C8.22277 13.9936 4.50996 13.9102 0.956289 14.8744C0.808242 15.3246 0.676445 15.7822 0.561523 16.2465C4.10277 15.129 7.84184 15.138 11.3809 16.2746C11.6975 16.3763 12.0374 16.2024 12.1393 15.8849C12.2412 15.5677 12.0668 15.2282 11.7497 15.1264Z" fill="#A8B7EF"/>
<path d="M11.7491 17.5637C8.00246 16.3605 4.04605 16.3412 0.293477 17.5041C0.222773 17.9039 0.165586 18.3082 0.120117 18.7161C0.23168 18.7486 0.353711 18.7493 0.472695 18.7112C4.04004 17.5655 7.81184 17.5658 11.3804 18.7118C11.697 18.8135 12.0369 18.6396 12.1389 18.3221C12.2406 18.005 12.0661 17.6655 11.7491 17.5637Z" fill="#A8B7EF"/>
<path d="M11.7491 20.0009C7.93938 18.7773 3.9125 18.777 0.103906 20.0002C0.0740625 20.0098 0.0459375 20.0221 0.0188281 20.0357C0.0071875 20.3088 0 20.5832 0 20.8592C0 20.9414 0.00203125 21.0231 0.003125 21.1051C0.142344 21.1798 0.310391 21.2005 0.472656 21.1483C4.04 20.0027 7.81188 20.003 11.3804 21.1491C11.6969 21.2508 12.0369 21.0769 12.1388 20.7594C12.2406 20.4423 12.0662 20.1027 11.7491 20.0009Z" fill="#A8B7EF"/>
<path d="M15.5115 20.7594C15.4096 20.4424 15.5841 20.1029 15.9012 20.0009C16.3707 19.8501 16.8525 19.7158 17.3331 19.6019C17.6573 19.5252 17.9821 19.7256 18.0589 20.0496C18.1357 20.3736 17.9352 20.6986 17.6113 20.7754C17.1611 20.8821 16.7098 21.0078 16.27 21.149C15.9543 21.2505 15.6138 21.0778 15.5115 20.7594Z" fill="#BEC8F7"/>
<path d="M11.7496 22.4382C7.93979 21.2147 3.91299 21.2144 0.104316 22.4376C0.0915039 22.4417 0.0792383 22.4468 0.0668945 22.4517C0.0989258 22.8403 0.142754 23.2256 0.197598 23.6072C0.287129 23.621 0.380957 23.6153 0.473066 23.5857C4.04041 22.4401 7.81221 22.4404 11.3808 23.5863C11.6974 23.6881 12.0373 23.5142 12.1392 23.1967C12.241 22.8796 12.0666 22.5401 11.7496 22.4382Z" fill="#A8B7EF"/>
<path d="M15.5105 23.1967C15.4087 22.8797 15.5831 22.5402 15.9002 22.4383C19.7101 21.2148 23.7369 21.2145 27.5454 22.4377C27.8624 22.5395 28.0369 22.8791 27.9351 23.1961C27.8333 23.5132 27.4936 23.6878 27.1766 23.5858C23.6094 22.4402 19.8375 22.4403 16.2689 23.5864C15.953 23.688 15.6126 23.5148 15.5105 23.1967Z" fill="#BEC8F7"/>
<path d="M11.7488 24.8757C8.03869 23.684 4.12268 23.6531 0.402832 24.7821C0.485332 25.1782 0.580645 25.5696 0.687207 25.9564C4.19096 24.8788 7.88314 24.9007 11.3801 26.0239C11.6967 26.1256 12.0366 25.9517 12.1385 25.6342C12.2403 25.3171 12.0659 24.9775 11.7488 24.8757Z" fill="#A8B7EF"/>
<path d="M15.5105 25.6341C15.4087 25.317 15.5831 24.9775 15.9002 24.8756C19.71 23.652 23.7368 23.6518 27.5454 24.8749C27.8624 24.9767 28.0369 25.3163 27.9351 25.6334C27.8333 25.9506 27.4936 26.1248 27.1766 26.0231C23.6094 24.8775 19.8375 24.8777 16.2689 26.0238C15.9531 26.1253 15.6127 25.9524 15.5105 25.6341Z" fill="#BEC8F7"/>
<path d="M11.7491 27.3129C8.24391 26.1873 4.55516 26.0979 1.02148 27.0432C1.15234 27.4268 1.2957 27.8046 1.44984 28.1767C4.72375 27.3245 8.13602 27.4192 11.3803 28.4609C11.6969 28.5627 12.0368 28.3888 12.1388 28.0712C12.2405 27.7542 12.0661 27.4147 11.7491 27.3129Z" fill="#A8B7EF"/>
<path d="M15.5105 28.0713C15.4087 27.7543 15.5831 27.4148 15.9002 27.3129C19.7101 26.0895 23.7369 26.0892 27.5454 27.3123C27.8624 27.4141 28.0369 27.7537 27.9351 28.0707C27.8333 28.3877 27.4936 28.5622 27.1766 28.4604C23.6094 27.3148 19.8375 27.315 16.2689 28.461C15.953 28.5627 15.6126 28.3895 15.5105 28.0713Z" fill="#BEC8F7"/>
<path d="M23.7748 20.3817C29.4031 20.3817 33.9657 15.8191 33.9657 10.1909C33.9657 4.5626 29.4031 0 23.7748 0C18.1466 0 13.584 4.5626 13.584 10.1909C13.584 15.8191 18.1466 20.3817 23.7748 20.3817Z" fill="#9BD8F9"/>
<path d="M30.7343 17.4157C30.129 17.2652 29.9378 16.7866 29.8773 16.4963C29.8513 16.3713 29.756 16.2697 29.6302 16.2476C29.1819 16.1689 29.048 15.8482 29.0097 15.628C28.9869 15.4972 28.8825 15.396 28.7519 15.3721C24.8066 14.649 25.1009 11.2696 25.1793 10.7012C25.1869 10.6456 25.1797 10.5896 25.1586 10.5377L24.8005 9.65571C24.7611 9.55844 24.6763 9.48594 24.5737 9.46367C22.0902 8.92274 22.3844 6.78649 22.4635 6.38227C22.4726 6.3361 22.471 6.28891 22.4594 6.24329L22.2108 5.25907C22.1821 5.14571 22.0946 5.05469 21.9809 5.02735C21.0744 4.80907 21.0442 3.99626 21.094 3.57305C21.1109 3.43001 21.0276 3.2968 20.8953 3.24001C20.4987 3.06977 20.4739 2.73306 20.518 2.48977C20.5457 2.33735 20.4562 2.18712 20.3101 2.13563C19.7068 1.92306 19.6765 1.37634 19.7155 1.05845C19.7243 0.987275 19.7075 0.917978 19.6723 0.859619C18.5462 1.35446 17.491 2.06251 16.5688 2.9847C12.589 6.96454 12.589 13.417 16.5688 17.3968C20.5152 21.3432 26.8926 21.3755 30.8797 17.4954C30.8405 17.4584 30.7915 17.43 30.7343 17.4157Z" fill="#73C3F9"/>
<path d="M23.7744 18.1787C28.1859 18.1787 31.7621 14.6025 31.7621 10.191C31.7621 5.77948 28.1859 2.20325 23.7744 2.20325C19.3629 2.20325 15.7866 5.77948 15.7866 10.191C15.7866 14.6025 19.3629 18.1787 23.7744 18.1787Z" fill="#4FABF7"/>
<path d="M29.0097 15.628C28.9869 15.4972 28.8825 15.3961 28.752 15.3722C24.8066 14.649 25.1009 11.2697 25.1793 10.7012C25.1869 10.6457 25.1797 10.5897 25.1586 10.5378L24.8005 9.65575C24.7611 9.55849 24.6763 9.48599 24.5737 9.46372C22.0902 8.92278 22.3844 6.78653 22.4635 6.38231C22.4726 6.33614 22.471 6.28896 22.4594 6.24333L22.2108 5.25911C22.1821 5.14575 22.0946 5.05474 21.9809 5.02739C21.0744 4.80911 21.0442 3.9963 21.0941 3.5731C21.1109 3.43005 21.0276 3.29685 20.8953 3.24005C20.6939 3.15364 20.5887 3.02419 20.5393 2.88599C19.664 3.27341 18.844 3.82536 18.1267 4.54271C15.0072 7.66208 15.0072 12.7197 18.1267 15.8391C21.1769 18.8893 26.0797 18.9565 29.2121 16.0418C29.0855 15.9139 29.0316 15.7544 29.0097 15.628Z" fill="#1E9EF4"/>
<path d="M17.7003 16.2656C14.3431 12.9082 14.3424 7.47415 17.7003 4.11634C21.0497 0.766885 26.4999 0.766885 29.8493 4.11634C33.1988 7.46579 33.1988 12.9159 29.8493 16.2656C26.4999 19.615 21.0499 19.6151 17.7003 16.2656ZM16.39 10.1909C16.39 16.7541 24.3757 20.0338 28.9967 15.4127C31.876 12.5334 31.876 7.84845 28.9967 4.96915C24.3831 0.355713 16.39 3.61509 16.39 10.1909Z" fill="#73C3F9"/>
<path d="M29.6302 16.2477C29.1819 16.169 29.048 15.8483 29.0097 15.6281C28.9994 15.569 28.9718 15.5165 28.9333 15.474C24.3032 20.0029 16.3901 16.7244 16.3901 10.1911C16.3901 6.87201 18.4266 4.39873 21.0369 3.35537C21.0019 3.30607 20.9538 3.26544 20.8952 3.24029C20.4986 3.07005 20.4738 2.73334 20.518 2.49005C20.5328 2.40826 20.5131 2.32771 20.4698 2.26208C19.4622 2.68052 18.5184 3.29833 17.7002 4.11646C14.3425 7.47419 14.343 12.9083 17.7002 16.2657C21.0286 19.594 26.4305 19.6144 29.7851 16.3283C29.7433 16.2874 29.6905 16.2583 29.6302 16.2477Z" fill="#4FABF7"/>
<path d="M32.6741 19.0906C32.9684 18.7963 33.3463 18.6382 33.7314 18.613L31.6721 16.5537C31.2483 16.1299 30.5611 16.1299 30.1372 16.5537C29.7134 16.9775 29.7134 17.6647 30.1372 18.0886L32.1965 20.1479C32.2217 19.7629 32.3798 19.3849 32.6741 19.0906Z" fill="#E9EFFF"/>
<path d="M24.3849 15.0316C24.3849 14.6948 24.1119 14.4219 23.7752 14.4219C23.4385 14.4219 23.1655 14.6948 23.1655 15.0316C23.1655 15.3683 23.4385 15.6413 23.7752 15.6413C24.1119 15.6413 24.3849 15.3683 24.3849 15.0316Z" fill="#E9EFFF"/>
<path d="M23.7747 13.6331C23.4418 13.6331 23.1718 13.3632 23.1718 13.0301V10.3497C23.1718 10.0167 23.4417 9.74676 23.7747 9.74676C24.3173 9.74676 24.8221 9.52972 25.1964 9.13558C25.5703 8.74168 25.7607 8.22527 25.7325 7.68121C25.6796 6.66168 24.8375 5.84699 23.8156 5.82629C22.8195 5.80785 21.9703 6.53097 21.8333 7.51215C21.8207 7.60222 21.8143 7.69457 21.8143 7.78629C21.8143 8.11933 21.5443 8.38926 21.2114 8.38926C20.8783 8.38926 20.6084 8.11933 20.6084 7.78629C20.6084 7.63894 20.6186 7.49058 20.6389 7.34543C20.8602 5.75965 22.236 4.58504 23.8398 4.62066C25.4908 4.65387 26.8511 5.97074 26.9367 7.61871C26.9822 8.49629 26.6747 9.3298 26.0708 9.96597C25.6079 10.4535 25.021 10.7732 24.3777 10.8961V13.0302C24.3777 13.3632 24.1078 13.6331 23.7747 13.6331Z" fill="#E9EFFF"/>
<path d="M32.5603 18.9767C31.9167 19.6203 31.9167 20.6638 32.5603 21.3074L37.1863 25.9334C37.8299 26.5769 38.8734 26.5769 39.5171 25.9334C40.1607 25.2898 40.1607 24.2462 39.5171 23.6026L34.8911 18.9766C34.2475 18.3331 33.204 18.3331 32.5603 18.9767Z" fill="#FF4155"/>
<path d="M35.2948 21.7168C35.8186 21.193 36.5852 21.0603 37.2324 21.3179L34.8911 18.9767C34.2475 18.3331 33.204 18.3331 32.5603 18.9767C31.9167 19.6203 31.9167 20.6638 32.5603 21.3074L34.8896 23.6367C34.6414 22.9932 34.7756 22.2359 35.2948 21.7168Z" fill="#E80054"/>
</svg>
