<svg width="40" height="40" viewBox="0 0 40 40" fill="none" xmlns="http://www.w3.org/2000/svg">
<path d="M2.25439 26.3252C5.09557 33.3361 11.9696 38.2817 19.9997 38.2817C28.0299 38.2817 34.9038 33.3361 37.745 26.3252H2.25439Z" fill="#1C2E7A"/>
<path d="M37.9959 24.5117H2.00539C1.8707 24.5117 1.73961 24.4965 1.61328 24.4684C1.81102 25.1514 2.04453 25.8194 2.31383 26.4688C2.40766 26.4766 2.50227 26.4816 2.59812 26.4816H37.403C37.4988 26.4816 37.5934 26.4766 37.6873 26.4688C37.9566 25.8194 38.1901 25.1515 38.3878 24.4684C38.2616 24.4965 38.1305 24.5117 37.9959 24.5117Z" fill="#E9EFFF"/>
<path d="M21.1952 24.5117H2.00539C1.8707 24.5117 1.73961 24.4965 1.61328 24.4684C1.81102 25.1514 2.04453 25.8194 2.31383 26.4688C2.40766 26.4766 2.50227 26.4816 2.59812 26.4816H21.1952V24.5117Z" fill="#BEC8F7"/>
<path d="M37.4028 24.1649C38.0039 24.1649 38.493 23.6759 38.493 23.0749V14.1885C38.4586 14.0598 38.4226 13.9309 38.3856 13.8017C36.0742 5.82883 28.7184 0 20.0004 0C11.282 0 3.92586 5.82938 1.61484 13.8027C1.57797 13.9315 1.54211 14.0602 1.50781 14.1885V14.1886V23.075C1.50781 23.6761 1.99688 24.165 2.59789 24.165H37.4028V24.1649Z" fill="#FF4155"/>
<path d="M21.2534 23.9653L22.1217 21.7487C22.2054 21.5352 22.2003 21.2962 22.1043 21.088C21.7273 20.2703 21.8822 19.602 22.117 19.1494C22.3109 18.7757 22.1922 18.3169 21.8492 18.0726C20.1001 16.8268 20.5581 14.7961 20.8091 14.0383C20.8765 13.8351 20.8625 13.6138 20.773 13.4194L18.7433 9.01232C18.6827 8.8806 18.5878 8.76826 18.4719 8.68123C17.2384 7.75529 17.4748 6.44521 17.7683 5.67646C17.9066 5.31427 17.7895 4.90412 17.475 4.67748C15.7445 3.43029 16.1228 1.73365 16.4887 0.853179C16.5616 0.67771 16.5731 0.489272 16.5303 0.314819C9.3757 1.62513 3.61172 6.9131 1.61484 13.8027C1.57797 13.9315 1.54211 14.0601 1.50781 14.1885V14.1886V23.075C1.50781 23.6761 1.99688 24.165 2.59789 24.165H21.203C21.212 24.0967 21.2283 24.0296 21.2534 23.9653Z" fill="#E80054"/>
<path d="M37.8337 12.1759V23.0749C37.8337 23.3126 37.6403 23.5059 37.4027 23.5059H2.59773C2.36 23.5059 2.16664 23.3125 2.16664 23.0749V12.176C1.32297 14.3345 0.859375 16.6835 0.859375 19.1408C0.859375 21.0127 1.1293 22.8213 1.63023 24.5311C1.90758 24.716 2.24023 24.8239 2.59773 24.8239H37.4026C37.7601 24.8239 38.0928 24.7159 38.3701 24.531C38.871 22.8212 39.1409 21.0126 39.1409 19.1407C39.1409 16.6834 38.6773 14.3344 37.8337 12.1759Z" fill="#FF7186"/>
<path d="M2.59773 23.5059C2.36008 23.5059 2.16664 23.3125 2.16664 23.0749V12.176C1.32297 14.3345 0.859375 16.6834 0.859375 19.1409C0.859375 21.0127 1.1293 22.8213 1.63023 24.5312C1.90758 24.716 2.24023 24.824 2.59773 24.824H21.1947V24.2755C21.1947 24.1694 21.2145 24.0642 21.2533 23.9653L21.4333 23.5059H2.59773V23.5059Z" fill="#FF4155"/>
<path d="M20.0006 18.9969C23.9263 18.9969 27.1087 15.8145 27.1087 11.8888C27.1087 7.96314 23.9263 4.78076 20.0006 4.78076C16.075 4.78076 12.8926 7.96314 12.8926 11.8888C12.8926 15.8145 16.075 18.9969 20.0006 18.9969Z" fill="#E9EFFF"/>
<path d="M21.8495 18.0725C20.1003 16.8267 20.5584 14.796 20.8094 14.0382C20.8767 13.835 20.8627 13.6138 20.7732 13.4193L18.7435 9.01227C18.6829 8.88055 18.588 8.7682 18.4721 8.68117C17.2386 7.75523 17.475 6.44516 17.7685 5.67641C17.8371 5.49687 17.8427 5.3057 17.7929 5.13086C14.9482 6.05961 12.8926 8.73391 12.8926 11.8888C12.8926 15.8145 16.0749 18.9969 20.0006 18.9969C20.7688 18.9969 21.5083 18.8745 22.2013 18.6491C22.169 18.4238 22.0464 18.2127 21.8495 18.0725Z" fill="#D3DCFB"/>
<path d="M22.6711 12.621L19.1998 14.8403C18.6212 15.2102 17.8623 14.7947 17.8623 14.1079V9.6693C17.8623 8.98251 18.6212 8.56696 19.1998 8.93688L22.6711 11.1562C23.2059 11.4981 23.2059 12.2791 22.6711 12.621Z" fill="#FF4155"/>
<path d="M19.5953 9.92919V11.3345C19.5953 12.0212 20.3542 12.4369 20.9329 12.0669L22.5143 11.0559L22.6712 11.1563C23.206 11.4982 23.206 12.2793 22.6712 12.6211L19.1999 14.8404C18.6213 15.2104 17.8623 14.7948 17.8623 14.108V9.66943C17.8623 8.98263 18.6212 8.56708 19.1999 8.93701L19.6864 9.24802C19.6277 9.46216 19.5953 9.68982 19.5953 9.92919Z" fill="#E80054"/>
<path d="M23.9634 29.1497L23.9656 29.1477C23.9527 29.1456 23.9736 29.1493 23.9225 29.1414L23.9213 29.1421C23.5126 29.0831 22.8854 29.2265 22.2592 28.8615C21.9798 29.2822 21.6513 29.6122 21.345 29.85C20.9607 30.1484 20.4866 30.3104 19.9983 30.3104C19.51 30.3104 19.0359 30.1484 18.6517 29.85C18.3456 29.6123 18.0173 29.2825 17.738 28.8622C17.131 29.2179 16.5334 29.0838 16.1103 29.1377C16.1103 29.1377 16.1102 29.1375 16.1101 29.1374C16.0597 29.1442 16.0537 29.144 16.0312 29.1477L16.0349 29.1511C15.1849 29.3029 14.5552 30.0671 14.5552 30.9528V33.3548C14.5552 33.712 14.8447 34.0015 15.2019 34.0015H24.7947C25.1519 34.0015 25.4414 33.712 25.4414 33.3548V30.9528C25.4415 30.0673 24.8128 29.3019 23.9634 29.1497Z" fill="#73C3F9"/>
<path d="M16.5585 31.9803C16.5585 31.3385 16.9603 30.7721 17.5587 30.5398C18.0244 30.3589 18.4022 30.1332 18.7092 29.8908C18.6901 29.877 18.6703 29.8643 18.6517 29.8499C18.3456 29.6121 18.0172 29.2824 17.738 28.8621C17.131 29.2177 16.5334 29.0836 16.1103 29.1375C16.1103 29.1375 16.1101 29.1373 16.1101 29.1372C16.0597 29.144 16.0537 29.1439 16.0312 29.1475L16.0349 29.1509C15.1849 29.3027 14.5552 30.0668 14.5552 30.9526V33.3546C14.5552 33.7118 14.8447 34.0014 15.2019 34.0014H16.5586V31.9803H16.5585Z" fill="#4FABF7"/>
<path d="M17.665 28.9026C17.959 29.378 18.3187 29.746 18.652 30.0049C19.0362 30.3032 19.5104 30.4653 19.9986 30.4653C20.4869 30.4653 20.9611 30.3032 21.3453 30.0049C21.6789 29.7458 22.0387 29.3775 22.3329 28.9018C22.1604 28.8118 21.9873 28.6856 21.8183 28.5077L21.8191 28.5067C21.5329 28.2058 21.4607 27.9642 21.2507 27.5978C20.4783 28.0024 19.5407 28.0137 18.7467 27.5978C18.526 27.9829 18.4592 28.2113 18.1782 28.5067L18.1791 28.5077C18.0089 28.6867 17.8364 28.8129 17.665 28.9026Z" fill="#FCAD6D"/>
<path d="M18.1782 28.5067L18.1791 28.5077C18.0089 28.6867 17.8364 28.813 17.665 28.9027C17.9461 29.3571 18.2868 29.7122 18.6075 29.9688C19.8142 29.0766 19.9986 27.9054 19.9986 27.9054L19.9983 27.9053C19.5709 27.9054 19.1411 27.8044 18.7467 27.5978C18.526 27.9829 18.4592 28.2113 18.1782 28.5067Z" fill="#FD995B"/>
<path d="M19.4888 20.5105C17.9582 20.719 17.8128 21.5869 17.8121 21.9052C17.8119 21.972 17.7749 22.0339 17.7149 22.063C16.9187 22.4504 17.348 24.3169 17.348 24.3169C17.4279 24.3222 17.5478 24.3909 17.6103 24.4211C17.6256 24.326 17.6505 24.2323 17.6857 24.1418C17.7126 24.0728 17.7461 24.0031 17.7881 23.9373C17.8609 23.8231 17.894 23.6883 17.8842 23.5536C17.8556 23.1643 17.8331 22.4332 18.3471 22.2019C18.7826 22.0059 19.3167 22.1194 19.6574 22.2326C19.8787 22.3062 20.1183 22.3062 20.3395 22.2326C20.6802 22.1194 21.2144 22.0059 21.6499 22.2019C22.1624 22.4325 22.1413 23.1598 22.1131 23.5503C22.1032 23.6861 22.1355 23.8222 22.2088 23.9372C22.2521 24.0052 22.2865 24.0772 22.3138 24.1484C22.3477 24.2368 22.3718 24.3283 22.3866 24.4211C22.4653 24.3829 22.614 24.3052 22.7102 24.3188C22.722 23.9107 22.7596 23.4707 22.7596 23.4707C23.2132 21.2493 21.1367 20.286 19.4888 20.5105Z" fill="#A05838"/>
<path d="M20.0074 20.4796C19.8322 20.4775 19.6582 20.4874 19.4888 20.5104C17.9582 20.7189 17.8128 21.5868 17.8121 21.9051C17.8119 21.9719 17.7749 22.0338 17.7149 22.0629C16.9187 22.4502 17.348 24.3168 17.348 24.3168C17.4279 24.3221 17.5478 24.3908 17.6103 24.421C17.6256 24.3259 17.6505 24.2322 17.6857 24.1417C17.7126 24.0727 17.7461 24.003 17.7881 23.9372C17.8609 23.823 17.894 23.6882 17.8842 23.5535C17.8556 23.1642 17.8331 22.4331 18.3471 22.2018C18.7826 22.0058 19.3167 22.1193 19.6574 22.2325C19.703 22.2477 19.7495 22.2589 19.7962 22.2678C19.7842 22.241 19.7714 22.2141 19.7567 22.1874C19.2238 21.2217 19.7332 20.6825 20.0074 20.4796Z" fill="#823C26"/>
<path d="M22.8457 24.3719C22.7265 24.2627 22.489 24.3181 22.3863 24.385C22.4088 24.5251 22.4101 24.6683 22.3907 24.8098L22.2695 25.6922C22.2695 25.7633 22.2672 25.8332 22.2632 25.9017C22.5586 25.9908 22.7054 25.7256 22.7301 25.5436C22.7408 25.4652 22.7582 25.388 22.7823 25.3126C22.8608 25.0672 23.1443 24.6457 22.8457 24.3719Z" fill="#FD995B"/>
<path d="M17.1509 24.3719C17.2701 24.2627 17.5075 24.3181 17.6102 24.385C17.5877 24.5251 17.5864 24.6683 17.6058 24.8098L17.727 25.6922C17.727 25.7633 17.7292 25.8332 17.7333 25.9017C17.4378 25.9908 17.2911 25.7256 17.2663 25.5436C17.2557 25.4652 17.2383 25.388 17.2141 25.3126C17.1357 25.0672 16.8522 24.6457 17.1509 24.3719Z" fill="#FD995B"/>
<path d="M22.3501 24.1125C22.3229 24.0413 22.2885 23.9693 22.2452 23.9013C22.1719 23.7862 22.1396 23.65 22.1494 23.5143C22.1777 23.1239 22.1626 22.3603 21.65 22.1296C21.2145 21.9337 20.6804 22.0471 20.3398 22.1604C20.1185 22.234 19.8788 22.234 19.6576 22.1604C19.317 22.0471 18.7828 21.9337 18.3473 22.1296C17.8334 22.3609 17.8195 23.1282 17.8481 23.5177C17.8581 23.6524 17.8248 23.7871 17.752 23.9014C17.7101 23.9672 17.6765 24.0368 17.6497 24.1058C17.5626 24.3296 17.5372 24.5721 17.5699 24.8097L17.691 25.6924C17.691 26.9613 18.3684 27.8237 18.9445 28.2711C19.2453 28.5047 19.6164 28.6315 19.9987 28.6315C20.3809 28.6315 20.752 28.5047 21.0527 28.2711C21.6289 27.8237 22.3062 26.9612 22.3062 25.6924L22.4274 24.81C22.4598 24.5746 22.4352 24.3344 22.3501 24.1125Z" fill="#F9BA8F"/>
<path d="M20.4562 28.2711C19.88 27.8237 19.2027 26.9612 19.2027 25.6923L19.0815 24.8098C19.0488 24.5722 19.0742 24.3295 19.1613 24.1059C19.1882 24.0369 19.2217 23.9672 19.2637 23.9014C19.3365 23.7872 19.3697 23.6524 19.3598 23.5177C19.3332 23.1561 19.3438 22.4693 19.757 22.1878C19.7235 22.1802 19.6903 22.1714 19.6576 22.1605C19.317 22.0473 18.7828 21.9338 18.3473 22.1298C17.8334 22.361 17.8195 23.1284 17.8481 23.5178C17.8581 23.6525 17.8249 23.7873 17.752 23.9015C17.7101 23.9673 17.6765 24.037 17.6497 24.1059C17.5626 24.3297 17.5372 24.5723 17.5699 24.8098L17.691 25.6924C17.691 26.9613 18.3684 27.8238 18.9445 28.2712C19.2453 28.5047 19.6164 28.6316 19.9987 28.6316C20.2626 28.6316 20.5206 28.5698 20.7545 28.4555C20.6497 28.4041 20.5492 28.3434 20.4562 28.2711Z" fill="#FCAD6D"/>
<path d="M22.7861 32.0244V34.0014H24.1039C24.1039 34.0014 23.9896 32.3063 23.2569 31.7791C23.0604 31.6377 22.7861 31.7824 22.7861 32.0244Z" fill="#4FABF7"/>
<path d="M34.8463 29.1472L34.8485 29.1453C34.8356 29.1431 34.8566 29.1468 34.8055 29.1389L34.8042 29.1396C34.3956 29.0807 33.7685 29.2241 33.1421 28.859C32.8628 29.2797 32.5342 29.6097 32.2279 29.8476C31.8437 30.146 31.3696 30.308 30.8813 30.308C30.393 30.308 29.9188 30.146 29.5346 29.8476C29.2285 29.6099 28.9002 29.2801 28.6209 28.8598C28.0139 29.2154 27.4163 29.0814 26.9932 29.1353L26.993 29.1349C26.9426 29.1417 26.9366 29.1416 26.9141 29.1453L26.9178 29.1486C26.0678 29.3004 25.438 30.0646 25.438 30.9503V33.3524C25.438 33.7096 25.7275 33.9991 26.0847 33.9991H35.6775C36.0347 33.9991 36.3242 33.7096 36.3242 33.3524V30.9503C36.3245 30.0649 35.6956 29.2996 34.8463 29.1472Z" fill="#73C3F9"/>
<path d="M27.4415 31.978C27.4415 31.3361 27.8433 30.7699 28.4417 30.5375C28.9074 30.3566 29.2852 30.131 29.5921 29.8885C29.5731 29.8747 29.5532 29.862 29.5346 29.8476C29.2285 29.6098 28.9002 29.2801 28.6209 28.8597C28.0139 29.2154 27.4163 29.0813 26.9932 29.1352L26.993 29.1349C26.9426 29.1417 26.9366 29.1415 26.9141 29.1453L26.9178 29.1486C26.0678 29.3004 25.438 30.0646 25.438 30.9504V33.3524C25.438 33.7096 25.7275 33.9991 26.0847 33.9991H27.4414V31.978H27.4415Z" fill="#4FABF7"/>
<path d="M28.5483 28.9002C28.8423 29.3756 29.202 29.7435 29.5354 30.0024C29.9196 30.3008 30.3937 30.4628 30.882 30.4628C31.3703 30.4628 31.8444 30.3008 32.2287 30.0024C32.5622 29.7434 32.9221 29.3751 33.2162 28.8992C33.0437 28.8093 32.8707 28.6831 32.7016 28.5053L32.7025 28.5042C32.4163 28.2034 32.344 27.9617 32.134 27.5953C31.3616 27.9999 30.4241 28.0113 29.6301 27.5953C29.4094 27.9804 29.3426 28.2089 29.0616 28.5042L29.0625 28.5053C28.8922 28.6842 28.7197 28.8105 28.5483 28.9002Z" fill="#FCAD6D"/>
<path d="M29.0615 28.5042L29.0624 28.5052C28.8922 28.6842 28.7197 28.8105 28.5483 28.9001C28.8294 29.3545 29.1701 29.7096 29.4908 29.9662C30.6975 29.074 30.8819 27.9029 30.8819 27.9029L30.8816 27.9027C30.4542 27.9028 30.0244 27.8019 29.63 27.5952C29.4093 27.9804 29.3425 28.2088 29.0615 28.5042Z" fill="#FD995B"/>
<path d="M30.3721 20.5082C28.8415 20.7167 28.6961 21.5845 28.6954 21.9029C28.6952 21.9697 28.6582 22.0316 28.5982 22.0608C27.802 22.448 28.2313 24.3147 28.2313 24.3147C28.3112 24.32 28.4311 24.3887 28.4936 24.4189C28.5089 24.3237 28.5338 24.2302 28.569 24.1396C28.5959 24.0706 28.6294 24.0009 28.6714 23.9352C28.7442 23.8209 28.7774 23.6862 28.7675 23.5515C28.7389 23.1621 28.7164 22.431 29.2304 22.1997C29.6659 22.0038 30.2 22.1172 30.5407 22.2305C30.762 22.3041 31.0016 22.3041 31.2229 22.2305C31.5635 22.1172 32.0977 22.0038 32.5332 22.1997C33.0457 22.4303 33.0246 23.1577 32.9964 23.5481C32.9865 23.6838 33.0188 23.82 33.0921 23.9351C33.1354 24.003 33.1698 24.0751 33.1971 24.1462C33.231 24.2347 33.2551 24.3261 33.27 24.4189C33.3486 24.3808 33.4973 24.303 33.5935 24.3166C33.6053 23.9084 33.6429 23.4684 33.6429 23.4684C34.0965 21.247 32.02 20.2837 30.3721 20.5082Z" fill="#A05838"/>
<path d="M30.8903 20.4776C30.715 20.4755 30.5411 20.4853 30.3716 20.5084C28.841 20.7169 28.6956 21.5847 28.6949 21.903C28.6947 21.9698 28.6578 22.0317 28.5977 22.0609C27.8015 22.4482 28.2308 24.3148 28.2308 24.3148C28.3107 24.3201 28.4307 24.3888 28.4931 24.419C28.5084 24.324 28.5333 24.2303 28.5685 24.1398C28.5954 24.0708 28.6289 24.0011 28.6709 23.9353C28.7437 23.8211 28.7768 23.6863 28.767 23.5516C28.7384 23.1623 28.7159 22.4312 29.23 22.1998C29.6654 22.0039 30.1996 22.1173 30.5403 22.2306C30.5858 22.2458 30.6322 22.257 30.679 22.2659C30.6671 22.2391 30.6543 22.2122 30.6396 22.1855C30.1067 21.2196 30.6161 20.6804 30.8903 20.4776Z" fill="#823C26"/>
<path d="M33.729 24.3696C33.6098 24.2604 33.3723 24.3158 33.2696 24.3827C33.2921 24.5227 33.2934 24.666 33.274 24.8075L33.1528 25.6899C33.1528 25.761 33.1505 25.8309 33.1465 25.8994C33.4419 25.9885 33.5887 25.7233 33.6134 25.5413C33.6241 25.4629 33.6415 25.3856 33.6656 25.3103C33.7441 25.0649 34.0276 24.6434 33.729 24.3696Z" fill="#FD995B"/>
<path d="M28.0337 24.3696C28.1529 24.2604 28.3903 24.3158 28.493 24.3827C28.4705 24.5227 28.4693 24.666 28.4887 24.8075L28.6098 25.6899C28.6098 25.761 28.6121 25.8309 28.6162 25.8994C28.3207 25.9885 28.174 25.7233 28.1492 25.5413C28.1386 25.4629 28.1212 25.3856 28.097 25.3103C28.0185 25.0649 27.735 24.6434 28.0337 24.3696Z" fill="#FD995B"/>
<path d="M33.2326 24.11C33.2053 24.0388 33.1709 23.9668 33.1276 23.8988C33.0542 23.7838 33.0219 23.6476 33.0318 23.5119C33.0601 23.1214 33.0449 22.3578 32.5323 22.1272C32.0969 21.9313 31.5627 22.0447 31.2221 22.158C31.0008 22.2316 30.7612 22.2316 30.5399 22.158C30.1993 22.0447 29.6651 21.9313 29.2297 22.1272C28.7157 22.3585 28.7019 23.1258 28.7305 23.5153C28.7404 23.6499 28.7072 23.7847 28.6344 23.8989C28.5924 23.9648 28.5588 24.0344 28.532 24.1034C28.4449 24.3271 28.4195 24.5698 28.4522 24.8073L28.5733 25.6899C28.5733 26.9589 29.2507 27.8213 29.8269 28.2687C30.1276 28.5022 30.4987 28.6291 30.881 28.6291C31.2633 28.6291 31.6344 28.5022 31.9351 28.2687C32.5113 27.8213 33.1887 26.9588 33.1887 25.6899L33.3098 24.8075C33.3422 24.5722 33.3176 24.332 33.2326 24.11Z" fill="#F9BA8F"/>
<path d="M31.3385 28.2687C30.7623 27.8213 30.085 26.9588 30.085 25.69L29.9638 24.8073C29.9312 24.5698 29.9565 24.3271 30.0437 24.1034C30.0705 24.0344 30.104 23.9648 30.146 23.899C30.2188 23.7848 30.252 23.65 30.2421 23.5153C30.2155 23.1537 30.2262 22.4669 30.6393 22.1854C30.6058 22.1777 30.5726 22.169 30.5399 22.1581C30.1993 22.0448 29.6651 21.9314 29.2297 22.1273C28.7157 22.3586 28.7019 23.1259 28.7305 23.5154C28.7404 23.6501 28.7072 23.7848 28.6344 23.899C28.5924 23.9649 28.5588 24.0346 28.532 24.1035C28.4449 24.3272 28.4195 24.5699 28.4522 24.8074L28.5733 25.6901C28.5733 26.959 29.2507 27.8214 29.8269 28.2688C30.1276 28.5023 30.4987 28.6292 30.881 28.6292C31.1449 28.6292 31.4029 28.5674 31.6368 28.4531C31.532 28.4018 31.4315 28.341 31.3385 28.2687Z" fill="#FCAD6D"/>
<path d="M33.6689 32.0221V33.999H34.9867C34.9867 33.999 34.8724 32.3039 34.1397 31.7767C33.9433 31.6354 33.6689 31.7801 33.6689 32.0221Z" fill="#4FABF7"/>
<path d="M13.0836 29.1497L13.0858 29.1477C13.0729 29.1456 13.0938 29.1493 13.0427 29.1414L13.0415 29.1421C12.6329 29.0831 12.0057 29.2265 11.3794 28.8615C11.1001 29.2822 10.7715 29.6122 10.4652 29.85C10.081 30.1484 9.60686 30.3104 9.11857 30.3104C8.63029 30.3104 8.15615 30.1484 7.77193 29.85C7.46584 29.6123 7.13748 29.2825 6.85818 28.8622C6.25123 29.2179 5.65357 29.0838 5.23053 29.1377C5.23053 29.1377 5.23037 29.1375 5.23029 29.1374C5.1799 29.1442 5.17389 29.144 5.15139 29.1477L5.15506 29.1511C4.30506 29.3029 3.67529 30.0671 3.67529 30.9528V33.3548C3.67529 33.712 3.96482 34.0015 4.32201 34.0015H13.9148C14.272 34.0015 14.5615 33.712 14.5615 33.3548V30.9528C14.5617 30.0673 13.9329 29.3019 13.0836 29.1497Z" fill="#73C3F9"/>
<path d="M5.67881 31.9803C5.67881 31.3385 6.08061 30.7721 6.67896 30.5398C7.14467 30.3589 7.52248 30.1332 7.82943 29.8908C7.81037 29.877 7.79053 29.8643 7.77193 29.8499C7.46584 29.6121 7.13748 29.2824 6.85818 28.8621C6.25123 29.2177 5.65357 29.0836 5.23053 29.1375C5.23053 29.1375 5.23037 29.1373 5.23029 29.1372C5.1799 29.144 5.17389 29.1439 5.15139 29.1475L5.15506 29.1509C4.30506 29.3027 3.67529 30.0668 3.67529 30.9526V33.3546C3.67529 33.7118 3.96482 34.0014 4.32201 34.0014H5.67873V31.9803H5.67881Z" fill="#4FABF7"/>
<path d="M6.78516 28.9026C7.07914 29.378 7.43875 29.746 7.77211 30.0049C8.15633 30.3032 8.63047 30.4653 9.11875 30.4653C9.60703 30.4653 10.0812 30.3032 10.4654 30.0049C10.799 29.7458 11.1588 29.3775 11.453 28.9018C11.2805 28.8118 11.1074 28.6856 10.9384 28.5077L10.9392 28.5067C10.653 28.2058 10.5808 27.9642 10.3708 27.5978C9.59836 28.0024 8.66086 28.0137 7.8668 27.5978C7.64609 27.9829 7.5793 28.2113 7.29836 28.5067L7.29922 28.5077C7.12906 28.6867 6.95641 28.8129 6.78516 28.9026Z" fill="#FCAD6D"/>
<path d="M7.29836 28.5067L7.29922 28.5077C7.12906 28.6867 6.95648 28.813 6.78516 28.9027C7.06617 29.3571 7.40687 29.7122 7.72758 29.9688C8.9343 29.0766 9.11875 27.9054 9.11875 27.9054L9.11844 27.9053C8.69102 27.9054 8.26117 27.8044 7.8668 27.5978C7.64609 27.9829 7.5793 28.2113 7.29836 28.5067Z" fill="#FD995B"/>
<path d="M8.6089 20.5105C7.07835 20.719 6.93288 21.5869 6.93218 21.9052C6.93202 21.972 6.89507 22.0339 6.83499 22.063C6.03882 22.4504 6.46811 24.3169 6.46811 24.3169C6.54804 24.3222 6.66796 24.3909 6.73038 24.4211C6.74569 24.326 6.77061 24.2323 6.80585 24.1418C6.83272 24.0728 6.86624 24.0031 6.90819 23.9373C6.981 23.8231 7.01413 23.6883 7.00429 23.5536C6.97569 23.1643 6.95319 22.4332 7.46726 22.2019C7.90273 22.0059 8.43687 22.1194 8.77757 22.2326C8.99882 22.3062 9.23843 22.3062 9.45968 22.2326C9.80031 22.1194 10.3345 22.0059 10.7699 22.2019C11.2825 22.4325 11.2614 23.1598 11.2331 23.5503C11.2233 23.6861 11.2555 23.8222 11.3289 23.9372C11.3722 24.0052 11.4066 24.0772 11.4339 24.1484C11.4678 24.2368 11.4919 24.3283 11.5068 24.4211C11.5855 24.3829 11.7341 24.3052 11.8303 24.3188C11.8421 23.9107 11.8798 23.4707 11.8798 23.4707C12.3334 21.2493 10.2569 20.286 8.6089 20.5105Z" fill="#A05838"/>
<path d="M9.12705 20.4796C8.95181 20.4775 8.77775 20.4874 8.60838 20.5104C7.07783 20.7189 6.93236 21.5868 6.93166 21.9051C6.9315 21.9719 6.89455 22.0338 6.83447 22.0629C6.03838 22.4502 6.46759 24.3168 6.46759 24.3168C6.54752 24.3221 6.66744 24.3908 6.72986 24.421C6.74517 24.3259 6.77009 24.2322 6.80533 24.1417C6.8322 24.0727 6.86572 24.003 6.90767 23.9372C6.98048 23.823 7.01361 23.6882 7.00377 23.5535C6.97517 23.1642 6.95267 22.4331 7.46674 22.2018C7.9022 22.0058 8.43634 22.1193 8.77705 22.2325C8.82259 22.2477 8.869 22.2589 8.9158 22.2678C8.90384 22.241 8.89103 22.2141 8.87627 22.1874C8.34338 21.2217 8.85283 20.6825 9.12705 20.4796Z" fill="#823C26"/>
<path d="M11.9659 24.3719C11.8467 24.2627 11.6092 24.3181 11.5065 24.385C11.529 24.5251 11.5303 24.6683 11.5108 24.8098L11.3896 25.6922C11.3896 25.7633 11.3874 25.8332 11.3833 25.9017C11.6788 25.9908 11.8255 25.7256 11.8503 25.5436C11.8609 25.4652 11.8783 25.388 11.9024 25.3126C11.981 25.0672 12.2646 24.6457 11.9659 24.3719Z" fill="#FD995B"/>
<path d="M6.27152 24.3719C6.39074 24.2627 6.62816 24.3181 6.7309 24.385C6.7084 24.5251 6.70715 24.6683 6.72652 24.8098L6.84769 25.6922C6.84769 25.7633 6.84996 25.8332 6.85402 25.9017C6.55855 25.9908 6.41183 25.7256 6.38707 25.5436C6.37644 25.4652 6.35902 25.388 6.33488 25.3126C6.25629 25.0672 5.97277 24.6457 6.27152 24.3719Z" fill="#FD995B"/>
<path d="M11.4708 24.1125C11.4436 24.0413 11.4092 23.9693 11.3658 23.9013C11.2925 23.7862 11.2602 23.65 11.2701 23.5143C11.2983 23.1239 11.2832 22.3603 10.7706 22.1296C10.3351 21.9337 9.801 22.0471 9.46037 22.1604C9.23912 22.234 8.99944 22.234 8.77819 22.1604C8.43756 22.0471 7.90342 21.9337 7.46795 22.1296C6.95397 22.3609 6.94014 23.1282 6.96874 23.5177C6.97866 23.6524 6.94546 23.7871 6.87264 23.9014C6.83069 23.9672 6.7971 24.0368 6.7703 24.1058C6.68319 24.3296 6.6578 24.5721 6.69046 24.8097L6.81163 25.6924C6.81163 26.9613 7.48897 27.8237 8.06514 28.2711C8.36584 28.5047 8.73701 28.6315 9.11928 28.6315C9.50154 28.6315 9.87264 28.5047 10.1733 28.2711C10.7495 27.8237 11.4269 26.9612 11.4269 25.6924L11.548 24.81C11.5804 24.5746 11.5559 24.3344 11.4708 24.1125Z" fill="#F9BA8F"/>
<path d="M9.5763 28.2711C9.00012 27.8237 8.32278 26.9612 8.32278 25.6923L8.20161 24.8098C8.16895 24.5722 8.19442 24.3295 8.28145 24.1059C8.30833 24.0369 8.34184 23.9672 8.3838 23.9014C8.45661 23.7872 8.48973 23.6524 8.47989 23.5177C8.45333 23.1561 8.46395 22.4693 8.87708 22.1878C8.84364 22.1802 8.81044 22.1714 8.7777 22.1605C8.43708 22.0473 7.90294 21.9338 7.46747 22.1298C6.95348 22.361 6.93965 23.1284 6.96825 23.5178C6.97817 23.6525 6.94497 23.7873 6.87216 23.9015C6.8302 23.9673 6.79661 24.037 6.76981 24.1059C6.6827 24.3297 6.65731 24.5723 6.68997 24.8098L6.81114 25.6924C6.81114 26.9613 7.48848 27.8238 8.06466 28.2712C8.36536 28.5047 8.73653 28.6316 9.1188 28.6316C9.3827 28.6316 9.64075 28.5698 9.87458 28.4555C9.76989 28.4041 9.66942 28.3434 9.5763 28.2711Z" fill="#FCAD6D"/>
<path d="M11.9062 32.0244V34.0014H13.224C13.224 34.0014 13.1097 32.3063 12.377 31.7791C12.1806 31.6377 11.9062 31.7824 11.9062 32.0244Z" fill="#4FABF7"/>
<path d="M18.4458 35.1481L18.448 35.1461C18.4351 35.144 18.456 35.1477 18.4049 35.1398L18.4038 35.1405C17.9951 35.0815 17.3679 35.2249 16.7417 34.8599C16.4623 35.2806 16.1338 35.6106 15.8274 35.8485C15.4432 36.1468 14.9691 36.3089 14.4808 36.3089C13.9924 36.3089 13.5184 36.1468 13.1342 35.8485C12.8281 35.6107 12.4997 35.281 12.2204 34.8606C11.6135 35.2163 11.0159 35.0822 10.5928 35.1361C10.5928 35.1361 10.5926 35.1359 10.5925 35.1358C10.5421 35.1426 10.5361 35.1424 10.5136 35.1461L10.5174 35.1495C9.66736 35.3013 9.0376 36.0654 9.0376 36.9512V39.3533C9.0376 39.7104 9.32713 40 9.68432 40H19.2772C19.6344 40 19.9239 39.7104 19.9239 39.3533V36.9512C19.9239 36.0658 19.2952 35.3004 18.4458 35.1481Z" fill="#73C3F9"/>
<path d="M11.041 37.9789C11.041 37.337 11.4428 36.7707 12.0412 36.5383C12.5069 36.3575 12.8847 36.1319 13.1917 35.8894C13.1726 35.8755 13.1528 35.8629 13.1342 35.8484C12.8281 35.6107 12.4997 35.2809 12.2204 34.8606C11.6135 35.2162 11.0158 35.0822 10.5928 35.1361C10.5928 35.1361 10.5926 35.1358 10.5925 35.1358C10.5421 35.1426 10.5361 35.1424 10.5136 35.1461L10.5174 35.1494C9.66736 35.3012 9.0376 36.0654 9.0376 36.9512V39.3532C9.0376 39.7104 9.32713 39.9999 9.68432 39.9999H11.041V37.9789Z" fill="#4FABF7"/>
<path d="M12.1475 34.9012C12.4414 35.3765 12.8011 35.7445 13.1344 36.0034C13.5186 36.3018 13.9927 36.4638 14.4811 36.4638C14.9693 36.4638 15.4435 36.3018 15.8277 36.0034C16.1613 35.7444 16.5211 35.3761 16.8153 34.9003C16.6428 34.8103 16.4697 34.6841 16.3007 34.5062L16.3015 34.5052C16.0154 34.2044 15.943 33.9627 15.7331 33.5963C14.9607 34.0009 14.0232 34.0123 13.2291 33.5963C13.0084 33.9815 12.9416 34.2098 12.6607 34.5052L12.6615 34.5062C12.4914 34.6851 12.3187 34.8115 12.1475 34.9012Z" fill="#FCAD6D"/>
<path d="M12.6607 34.5051L12.6615 34.5061C12.4914 34.6851 12.3188 34.8114 12.1475 34.9011C12.4285 35.3555 12.7692 35.7106 13.0899 35.9672C14.2966 35.075 14.4811 33.9038 14.4811 33.9038L14.4807 33.9037C14.0533 33.9038 13.6236 33.8028 13.2291 33.5962C13.0085 33.9813 12.9417 34.2097 12.6607 34.5051Z" fill="#FD995B"/>
<path d="M13.9712 26.5091C12.4407 26.7176 12.2952 27.5854 12.2945 27.9038C12.2943 27.9706 12.2574 28.0324 12.1973 28.0617C11.4011 28.4489 11.8304 30.3156 11.8304 30.3156C11.9103 30.3209 12.0303 30.3896 12.0927 30.4197C12.108 30.3246 12.1329 30.231 12.1682 30.1404C12.195 30.0714 12.2285 30.0017 12.2705 29.936C12.3433 29.8217 12.3764 29.687 12.3666 29.5523C12.338 29.1628 12.3155 28.4318 12.8296 28.2005C13.265 28.0046 13.7992 28.118 14.1399 28.2313C14.3611 28.3049 14.6007 28.3049 14.822 28.2313C15.1626 28.118 15.6968 28.0046 16.1322 28.2005C16.6448 28.4311 16.6237 29.1585 16.5954 29.5489C16.5856 29.6847 16.6178 29.8208 16.6912 29.936C16.7345 30.0039 16.7689 30.076 16.7961 30.1471C16.83 30.2356 16.8542 30.327 16.869 30.4198C16.9477 30.3817 17.0964 30.3039 17.1925 30.3175C17.2043 29.9094 17.242 29.4694 17.242 29.4694C17.6957 27.2478 15.6192 26.2845 13.9712 26.5091Z" fill="#A05838"/>
<path d="M14.4899 26.4783C14.3146 26.4762 14.1406 26.486 13.9712 26.5091C12.4407 26.7176 12.2952 27.5854 12.2945 27.9038C12.2943 27.9706 12.2574 28.0324 12.1973 28.0617C11.4011 28.4489 11.8304 30.3156 11.8304 30.3156C11.9103 30.3209 12.0303 30.3895 12.0927 30.4197C12.108 30.3246 12.1329 30.231 12.1682 30.1404C12.195 30.0714 12.2285 30.0017 12.2705 29.936C12.3433 29.8217 12.3764 29.687 12.3666 29.5523C12.338 29.1629 12.3155 28.4317 12.8296 28.2005C13.265 28.0046 13.7992 28.118 14.1399 28.2313C14.1854 28.2464 14.2318 28.2577 14.2786 28.2666C14.2667 28.2397 14.2538 28.2128 14.2392 28.1861C13.7062 27.2204 14.2156 26.6811 14.4899 26.4783Z" fill="#823C26"/>
<path d="M17.3281 30.3702C17.2089 30.261 16.9715 30.3164 16.8688 30.3833C16.8913 30.5234 16.8926 30.6666 16.8731 30.8081L16.7519 31.6905C16.7519 31.7616 16.7497 31.8315 16.7456 31.9C17.0411 31.9891 17.1878 31.7239 17.2126 31.5419C17.2232 31.4635 17.2406 31.3863 17.2648 31.3109C17.3433 31.0655 17.6268 30.644 17.3281 30.3702Z" fill="#FD995B"/>
<path d="M11.6333 30.3702C11.7525 30.261 11.9899 30.3164 12.0927 30.3833C12.0702 30.5234 12.0689 30.6666 12.0883 30.8081L12.2095 31.6905C12.2095 31.7616 12.2117 31.8315 12.2158 31.9C11.9204 31.9891 11.7736 31.7239 11.7488 31.5419C11.7382 31.4635 11.7208 31.3863 11.6966 31.3109C11.6181 31.0655 11.3346 30.644 11.6333 30.3702Z" fill="#FD995B"/>
<path d="M16.8327 30.1109C16.8054 30.0397 16.771 29.9677 16.7277 29.8997C16.6543 29.7846 16.622 29.6485 16.6319 29.5127C16.6602 29.1223 16.645 28.3587 16.1324 28.1281C15.697 27.9321 15.1628 28.0456 14.8222 28.1588C14.6009 28.2324 14.3613 28.2324 14.14 28.1588C13.7994 28.0456 13.2652 27.9321 12.8298 28.1281C12.3158 28.3593 12.302 29.1267 12.3306 29.5161C12.3405 29.6508 12.3073 29.7856 12.2345 29.8998C12.1925 29.9656 12.1589 30.0353 12.1321 30.1042C12.045 30.328 12.0196 30.5706 12.0523 30.8081L12.1734 31.6908C12.1734 32.9597 12.8508 33.8221 13.427 34.2696C13.7277 34.5031 14.0988 34.6299 14.4811 34.6299C14.8634 34.6299 15.2345 34.5031 15.5352 34.2696C16.1114 33.8221 16.7887 32.9596 16.7887 31.6908L16.9099 30.8084C16.9422 30.5731 16.9177 30.3329 16.8327 30.1109Z" fill="#F9BA8F"/>
<path d="M14.9386 34.2695C14.3624 33.8221 13.6851 32.9596 13.6851 31.6907L13.5639 30.8081C13.5313 30.5705 13.5567 30.3278 13.6438 30.1042C13.6706 30.0352 13.7041 29.9655 13.7461 29.8997C13.8189 29.7855 13.852 29.6507 13.8422 29.516C13.8156 29.1544 13.8263 28.4676 14.2394 28.1861C14.2059 28.1784 14.1727 28.1697 14.14 28.1588C13.7994 28.0456 13.2652 27.9321 12.8298 28.1281C12.3158 28.3593 12.302 29.1267 12.3306 29.5161C12.3405 29.6508 12.3073 29.7856 12.2345 29.8998C12.1925 29.9656 12.1589 30.0353 12.1321 30.1042C12.045 30.328 12.0196 30.5706 12.0523 30.8081L12.1734 31.6908C12.1734 32.9597 12.8508 33.8222 13.427 34.2696C13.7277 34.5031 14.0988 34.63 14.4811 34.63C14.745 34.63 15.0031 34.5682 15.2369 34.4539C15.1321 34.4025 15.0317 34.3418 14.9386 34.2695Z" fill="#FCAD6D"/>
<path d="M17.2686 38.0229V39.9999H18.5863C18.5863 39.9999 18.472 38.3048 17.7393 37.7776C17.5429 37.6362 17.2686 37.7809 17.2686 38.0229Z" fill="#4FABF7"/>
<path d="M29.3287 35.1457L29.3309 35.1437C29.318 35.1416 29.3389 35.1452 29.2878 35.1373L29.2866 35.138C28.878 35.0791 28.2508 35.2225 27.6245 34.8574C27.3451 35.2781 27.0166 35.6081 26.7103 35.846C26.326 36.1444 25.8519 36.3064 25.3636 36.3064C24.8753 36.3064 24.4012 36.1444 24.017 35.846C23.7109 35.6083 23.3825 35.2785 23.1032 34.8582C22.4963 35.2138 21.8987 35.0798 21.4756 35.1337C21.4756 35.1337 21.4754 35.1334 21.4753 35.1334C21.4249 35.1402 21.4189 35.14 21.3964 35.1437L21.4002 35.147C20.5502 35.2988 19.9204 36.063 19.9204 36.9488V39.3508C19.9204 39.708 20.2099 39.9975 20.5671 39.9975H30.1599C30.5171 39.9975 30.8067 39.708 30.8067 39.3508V36.9488C30.8068 36.0634 30.1781 35.298 29.3287 35.1457Z" fill="#73C3F9"/>
<path d="M21.9238 37.9766C21.9238 37.3347 22.3256 36.7684 22.924 36.536C23.3897 36.3552 23.7675 36.1295 24.0745 35.887C24.0554 35.8732 24.0356 35.8605 24.017 35.8461C23.7109 35.6084 23.3825 35.2786 23.1032 34.8583C22.4963 35.2139 21.8986 35.0798 21.4756 35.1337C21.4756 35.1337 21.4753 35.1335 21.4753 35.1334C21.4249 35.1402 21.4189 35.1401 21.3964 35.1437L21.4002 35.1471C20.5502 35.2989 19.9204 36.063 19.9204 36.9488V39.3509C19.9204 39.708 20.2099 39.9976 20.5671 39.9976H21.9238V37.9766Z" fill="#4FABF7"/>
<path d="M23.0303 34.8987C23.3243 35.3741 23.6839 35.742 24.0173 36.0009C24.4015 36.2992 24.8757 36.4613 25.3639 36.4613C25.8522 36.4613 26.3264 36.2992 26.7106 36.0009C27.0442 35.7418 27.404 35.3735 27.6982 34.8977C27.5257 34.8077 27.3526 34.6815 27.1836 34.5037L27.1844 34.5027C26.8982 34.2018 26.826 33.9602 26.616 33.5938C25.8436 33.9984 24.9061 34.0097 24.112 33.5938C23.8913 33.9788 23.8245 34.2073 23.5436 34.5027L23.5444 34.5037C23.3742 34.6827 23.2016 34.809 23.0303 34.8987Z" fill="#FCAD6D"/>
<path d="M23.5435 34.5028L23.5443 34.5038C23.3742 34.6828 23.2016 34.8091 23.0303 34.8988C23.3113 35.3531 23.652 35.7082 23.9727 35.9649C25.1794 35.0727 25.3639 33.9015 25.3639 33.9015L25.3636 33.9014C24.9361 33.9015 24.5064 33.8005 24.1119 33.5939C23.8912 33.979 23.8244 34.2073 23.5435 34.5028Z" fill="#FD995B"/>
<path d="M24.854 26.5066C23.3235 26.7151 23.178 27.583 23.1773 27.9013C23.1771 27.9681 23.1402 28.03 23.0801 28.0592C22.2839 28.4465 22.7132 30.3131 22.7132 30.3131C22.7932 30.3184 22.9131 30.3871 22.9755 30.4172C22.9908 30.3222 23.0157 30.2285 23.051 30.1379C23.0778 30.069 23.1114 29.9993 23.1533 29.9335C23.2261 29.8193 23.2592 29.6845 23.2494 29.5498C23.2208 29.1604 23.1983 28.4294 23.7124 28.198C24.1478 28.0021 24.682 28.1155 25.0227 28.2288C25.2439 28.3024 25.4835 28.3024 25.7048 28.2288C26.0454 28.1155 26.5796 28.0021 27.0151 28.198C27.5277 28.4287 27.5066 29.1561 27.4783 29.5465C27.4685 29.6822 27.5007 29.8183 27.5741 29.9334C27.6174 30.0014 27.6518 30.0734 27.6791 30.1446C27.713 30.233 27.7371 30.3244 27.752 30.4172C27.8306 30.3791 27.9793 30.3014 28.0755 30.315C28.0873 29.9068 28.1249 29.4668 28.1249 29.4668C28.5785 27.2454 26.502 26.2821 24.854 26.5066Z" fill="#A05838"/>
<path d="M25.3727 26.476C25.1975 26.4739 25.0235 26.4837 24.854 26.5068C23.3235 26.7153 23.178 27.5831 23.1773 27.9015C23.1771 27.9682 23.1402 28.0301 23.0801 28.0593C22.2839 28.4466 22.7132 30.3132 22.7132 30.3132C22.7932 30.3186 22.9131 30.3872 22.9755 30.4175C22.9908 30.3224 23.0157 30.2287 23.051 30.1382C23.0778 30.0692 23.1114 29.9995 23.1533 29.9337C23.2261 29.8195 23.2592 29.6847 23.2494 29.55C23.2208 29.1607 23.1983 28.4296 23.7124 28.1982C24.1478 28.0023 24.682 28.1157 25.0227 28.229C25.0682 28.2442 25.1147 28.2554 25.1615 28.2643C25.1495 28.2375 25.1367 28.2106 25.1219 28.1839C24.589 27.2181 25.0985 26.6788 25.3727 26.476Z" fill="#823C26"/>
<path d="M28.211 30.3682C28.0918 30.2589 27.8544 30.3143 27.7516 30.3812C27.7741 30.5213 27.7754 30.6646 27.756 30.806L27.6348 31.6885C27.6348 31.7596 27.6326 31.8294 27.6284 31.8979C27.9239 31.9871 28.0706 31.7218 28.0954 31.5398C28.106 31.4614 28.1234 31.3842 28.1475 31.3089C28.2262 31.0635 28.5097 30.6419 28.211 30.3682Z" fill="#FD995B"/>
<path d="M22.5161 30.3682C22.6353 30.2589 22.8727 30.3143 22.9754 30.3812C22.9529 30.5213 22.9516 30.6646 22.971 30.806L23.0922 31.6885C23.0922 31.7596 23.0944 31.8294 23.0986 31.8979C22.8032 31.9871 22.6564 31.7218 22.6316 31.5398C22.621 31.4614 22.6036 31.3842 22.5795 31.3089C22.5009 31.0635 22.2174 30.6419 22.5161 30.3682Z" fill="#FD995B"/>
<path d="M27.716 30.1084C27.6887 30.0372 27.6543 29.9652 27.611 29.8972C27.5376 29.7821 27.5053 29.646 27.5152 29.5102C27.5435 29.1197 27.5283 28.3561 27.0157 28.1255C26.5803 27.9296 26.0461 28.043 25.7055 28.1563C25.4842 28.2299 25.2445 28.2299 25.0233 28.1563C24.6827 28.043 24.1485 27.9296 23.7131 28.1255C23.1991 28.3567 23.1853 29.1241 23.2139 29.5135C23.2238 29.6482 23.1906 29.783 23.1178 29.8972C23.0758 29.9631 23.0422 30.0327 23.0154 30.1017C22.9283 30.3253 22.9029 30.5681 22.9356 30.8056L23.0567 31.6882C23.0567 32.9571 23.7341 33.8196 24.3103 34.267C24.611 34.5005 24.9821 34.6274 25.3643 34.6274C25.7466 34.6274 26.1177 34.5005 26.4185 34.267C26.9946 33.8196 27.672 32.9571 27.672 31.6882L27.7932 30.8058C27.8256 30.5707 27.801 30.3304 27.716 30.1084Z" fill="#F9BA8F"/>
<path d="M25.8219 34.2673C25.2457 33.8198 24.5684 32.9573 24.5684 31.6885L24.4472 30.8059C24.4145 30.5683 24.4399 30.3256 24.527 30.102C24.5539 30.033 24.5874 29.9633 24.6294 29.8975C24.7022 29.7833 24.7353 29.6485 24.7255 29.5138C24.6989 29.1523 24.7095 28.4654 25.1227 28.1839C25.0892 28.1763 25.056 28.1675 25.0233 28.1566C24.6827 28.0434 24.1485 27.9299 23.7131 28.1259C23.1991 28.3571 23.1853 29.1245 23.2139 29.5139C23.2238 29.6486 23.1906 29.7834 23.1178 29.8976C23.0758 29.9634 23.0422 30.0331 23.0154 30.102C22.9283 30.3258 22.9029 30.5684 22.9356 30.8059L23.0567 31.6886C23.0567 32.9575 23.7341 33.8199 24.3103 34.2673C24.611 34.5009 24.9821 34.6277 25.3644 34.6277C25.6283 34.6277 25.8863 34.5659 26.1202 34.4516C26.0154 34.4002 25.915 34.3395 25.8219 34.2673Z" fill="#FCAD6D"/>
<path d="M28.1514 38.0204V39.9973H29.4691C29.4691 39.9973 29.3548 38.3022 28.6221 37.775C28.4257 37.6337 28.1514 37.7784 28.1514 38.0204Z" fill="#4FABF7"/>
</svg>
