<svg width="40" height="40" viewBox="0 0 40 40" fill="none" xmlns="http://www.w3.org/2000/svg">
<g clip-path="url(#clip0)">
<path d="M34.8319 32.9578C37.5249 29.6603 39.1409 25.4486 39.1409 20.8592C39.1409 10.288 30.5713 1.71838 20.0002 1.71838C9.42898 1.71838 0.859375 10.288 0.859375 20.8592C0.859375 25.4487 2.47539 29.6603 5.16852 32.9578L34.8319 32.9578Z" fill="#73C3F9"/>
<path d="M20.0007 15.746C24.2985 15.746 27.7826 14.7305 27.7826 13.4778C27.7826 12.2252 24.2985 11.2097 20.0007 11.2097C15.7028 11.2097 12.2188 12.2252 12.2188 13.4778C12.2188 14.7305 15.7028 15.746 20.0007 15.746Z" fill="#1C2E7A"/>
<path d="M20.0001 11.2097C19.8692 11.2097 19.7392 11.2107 19.6098 11.2126C19.4836 11.3618 19.4106 11.4488 19.4106 11.4488C19.4106 11.4488 24.0642 13.3911 19.751 15.7441C19.8339 15.7449 19.9166 15.746 20.0001 15.746C24.298 15.746 27.7821 14.7305 27.7821 13.4778C27.782 12.2252 24.2979 11.2097 20.0001 11.2097Z" fill="#142766"/>
<path d="M14.5279 11.9706C13.891 12.1592 13.2917 12.3801 12.9111 12.6242C12.9743 13.76 13.1908 14.7768 13.1908 14.7768C13.3962 14.7906 13.6857 14.8737 13.846 14.9514C13.8853 14.707 13.9493 14.3919 14.0399 14.1594C14.1089 13.9822 14.1951 13.8032 14.3029 13.6341C14.4899 13.3407 14.575 12.9946 14.5496 12.6485C14.5354 12.4536 14.5254 12.2218 14.5279 11.9706Z" fill="#A05838"/>
<path d="M25.4718 11.9706C25.4744 12.2181 25.4647 12.4468 25.4507 12.6399C25.4254 12.9885 25.5084 13.3383 25.6968 13.634C25.8081 13.8085 25.8964 13.9937 25.9664 14.1764C26.0535 14.4037 26.1155 14.7129 26.1538 14.9513C26.3559 14.8534 26.7193 14.7468 26.9664 14.7817C26.9914 13.9125 27.0622 12.9134 27.0857 12.6222C26.7054 12.3789 26.1071 12.1587 25.4718 11.9706Z" fill="#A05838"/>
<path d="M27.3337 14.8433C27.0275 14.5627 26.4175 14.705 26.1538 14.8768C26.2116 15.2365 26.2149 15.6047 26.165 15.9682L25.8537 18.235C25.8537 18.4177 25.8479 18.597 25.8374 18.7731C26.5963 19.002 26.9733 18.3207 27.0368 17.8531C27.0642 17.6519 27.1089 17.4534 27.1708 17.2598C27.3727 16.6294 28.101 15.5465 27.3337 14.8433Z" fill="#FCAD6D"/>
<path d="M26.7575 16.7517C26.5092 16.7517 26.2784 16.6776 26.085 16.5511L25.8537 18.2351C25.8537 18.4178 25.8479 18.597 25.8374 18.7732C26.5963 19.0021 26.9733 18.3208 27.0369 17.8532C27.0642 17.6519 27.1089 17.4535 27.1708 17.2599C27.2369 17.0539 27.359 16.7994 27.4668 16.5258C27.2662 16.6676 27.0218 16.7517 26.7575 16.7517Z" fill="#FD995B"/>
<path d="M12.6664 14.8433C12.9727 14.5627 13.5827 14.705 13.8464 14.8768C13.7886 15.2365 13.7853 15.6047 13.8352 15.9682L14.1465 18.235C14.1465 18.4177 14.1523 18.597 14.1628 18.7731C13.4039 19.002 13.0269 18.3207 12.9634 17.8531C12.936 17.6519 12.8913 17.4534 12.8294 17.2598C12.6274 16.6294 11.8991 15.5465 12.6664 14.8433Z" fill="#FCAD6D"/>
<path d="M13.9263 16.6279C13.7642 16.7064 13.583 16.7517 13.3908 16.7517C13.0181 16.7517 12.6848 16.5855 12.459 16.324C12.5792 16.6734 12.7479 17.004 12.8299 17.26C12.8919 17.4536 12.9366 17.6519 12.9639 17.8533C13.0274 18.3209 13.4045 19.0022 14.1634 18.7733C14.1528 18.5971 14.147 18.4178 14.147 18.2352L13.9263 16.6279Z" fill="#FD995B"/>
<path d="M24.415 28.8195L25.8311 26.8904C25.5252 26.8004 25.2146 26.7189 24.8987 26.646C24.141 25.8883 23.9489 24.4518 23.9143 23.4468C23.5189 23.9073 23.1039 24.2926 22.7073 24.6005C21.9348 25.2005 20.9814 25.5264 19.9995 25.5264C19.0176 25.5264 18.0642 25.2005 17.2916 24.6005C16.8951 24.2926 16.4801 23.9073 16.0847 23.4468C16.0501 24.4518 15.858 25.8883 15.1003 26.646C14.7843 26.7189 14.4738 26.8005 14.168 26.8904L15.584 28.8195H24.415Z" fill="#FCAD6D"/>
<path d="M18.0577 27.9222C18.189 27.9091 18.3096 27.8438 18.3912 27.7402C18.9205 27.0682 19.2597 26.2691 19.4773 25.4951C18.683 25.4008 17.9263 25.0934 17.2916 24.6005C16.8952 24.2926 16.4801 23.9073 16.0847 23.4468C16.0501 24.4518 15.858 25.8883 15.1003 26.646C14.7843 26.7189 14.4738 26.8005 14.168 26.8904L15.584 28.8195H16.8791C17.2953 28.1001 17.7949 27.9483 18.0577 27.9222Z" fill="#FD995B"/>
<path d="M16.4399 29.9855L19.2486 33.8118C19.6208 34.3189 20.3782 34.3189 20.7505 33.8118L23.5592 29.9855H16.4399Z" fill="#BEC8F7"/>
<path d="M25.7715 13.6343C25.5831 13.3386 25.5001 12.9889 25.5254 12.6401C25.5394 12.4471 25.5491 12.2183 25.5465 11.9708C24.1349 11.5529 22.1717 11.2936 20.0004 11.2936C17.8292 11.2936 15.8659 11.5529 14.4545 11.9708C14.4518 12.222 14.4618 12.4539 14.4761 12.6487C14.5016 12.9948 14.4163 13.3409 14.2293 13.6344C14.1215 13.8035 14.0353 13.9825 13.9663 14.1596C13.7427 14.7343 13.6774 15.3576 13.7612 15.9679L14.0725 18.2351C14.0725 21.4948 15.8125 23.7103 17.2926 24.8596C18.0652 25.4595 19.0185 25.7854 20.0004 25.7854C20.9823 25.7854 21.9357 25.4595 22.7082 24.8596C24.1883 23.7102 25.9283 21.4948 25.9283 18.2351L26.2396 15.9683C26.3225 15.364 26.2596 14.7469 26.041 14.1766C25.9711 13.994 25.8828 13.8089 25.7715 13.6343Z" fill="#F9BA8F"/>
<path d="M21.1881 24.8061C19.708 23.5904 17.968 21.2468 17.968 17.799L17.6566 15.4008C17.5729 14.7553 17.6381 14.096 17.8618 13.4881C17.9308 13.3007 18.017 13.1114 18.1248 12.9325C18.3118 12.6221 18.397 12.256 18.3716 11.89C18.3604 11.7293 18.3521 11.5443 18.3502 11.345C16.8429 11.4399 15.4977 11.6618 14.4545 11.9707C14.4518 12.2218 14.4618 12.4537 14.4761 12.6486C14.5016 12.9946 14.4163 13.3408 14.2293 13.6342C14.1216 13.8033 14.0353 13.9823 13.9663 14.1595C13.7427 14.7342 13.6774 15.3575 13.7612 15.9678L14.0725 18.2351C14.0725 21.4947 15.8125 23.7102 17.2926 24.8596C18.0651 25.4595 19.0185 25.7854 20.0004 25.7854C20.6898 25.7854 21.365 25.6241 21.9736 25.3208C21.6968 25.1794 21.4333 25.0075 21.1881 24.8061Z" fill="#FCAD6D"/>
<path d="M34.958 32.8017C34.6209 32.2196 34.194 31.6834 33.6533 31.2397L20.7982 39.0378C20.318 39.329 19.6828 39.329 19.2027 39.0378L6.34773 31.2398C5.80703 31.6835 5.38008 32.2197 5.04297 32.8018C8.55039 37.189 13.9467 40.0001 20.0005 40.0001C26.0542 40.0001 31.4506 37.189 34.958 32.8017Z" fill="#3C58A0"/>
<path d="M10.7847 34.3274C10.8722 34.2481 10.9231 34.139 10.9358 34.0229L6.34773 31.2397C5.80703 31.6834 5.38008 32.2196 5.04297 32.8017C6.3832 34.4782 8.00007 35.9234 9.82327 37.0707C9.9371 35.3212 10.4905 34.5938 10.7847 34.3274Z" fill="#1C2E7A"/>
<path d="M21.4039 29.0715C21.3344 28.8791 21.3509 28.6701 21.4431 28.4945H19.9883H18.6005C18.6927 28.6701 18.7091 28.8791 18.6397 29.0715C18.5571 29.3004 18.4286 29.5973 18.2412 29.9069L19.0897 31.0496H20.9122L21.7836 29.8761C21.6062 29.5776 21.4838 29.2929 21.4039 29.0715Z" fill="#E80054"/>
<path d="M20.9118 31.0494C20.2554 31.0494 19.7401 31.0494 19.0893 31.0494L18.501 32.7918L19.2496 33.8117C19.6218 34.3188 20.3793 34.3188 20.7515 33.8117L21.5002 32.7918L20.9118 31.0494Z" fill="#FF7186"/>
<path d="M19.4254 33.972L19.8882 32.6016C20.0254 32.1953 20.4065 31.9217 20.8353 31.9217H21.2064L20.9118 31.0493C20.2553 31.0493 19.7401 31.0493 19.0893 31.0493L18.501 32.7917L19.2496 33.8116C19.3099 33.8937 19.3811 33.9611 19.4582 34.0166L19.4254 33.972Z" fill="#FF4155"/>
<path d="M22.9409 31.1985L25.6892 27.4544C25.7278 27.0957 25.741 26.8643 25.741 26.8643L24.8365 25.7439C24.6056 25.458 24.1761 25.4399 23.9221 25.7055L21.4093 28.3325C21.2211 28.5293 21.1613 28.8152 21.2538 29.0713C21.4596 29.6418 21.9431 30.6316 22.9409 31.1985Z" fill="#E9EFFF"/>
<path d="M17.0715 31.215C18.0894 30.651 18.5804 29.6474 18.7883 29.0713C18.8808 28.8152 18.8209 28.5293 18.6327 28.3325L16.1199 25.7055C15.8658 25.4399 15.4364 25.458 15.2055 25.7439L14.2593 26.8643C14.2593 26.8643 14.2745 27.0989 14.3167 27.462L17.0715 31.215Z" fill="#E9EFFF"/>
<path d="M18.0586 27.9221C18.1092 27.9171 18.1581 27.9041 18.204 27.8843L16.1199 25.7056C15.8659 25.44 15.4364 25.4581 15.2055 25.744L14.2593 26.8644C14.2593 26.8644 14.2745 27.099 14.3167 27.4621L16.217 30.051C16.3568 29.9957 16.4651 29.8793 16.5066 29.7336C16.9404 28.2136 17.709 27.9568 18.0586 27.9221Z" fill="#D3DCFB"/>
<path d="M33.6217 29.8886C33.3778 29.7406 33.116 29.6086 32.8349 29.4954L31.9346 29.1614L20.7348 36.8974C20.293 37.2025 19.7085 37.2025 19.2668 36.8974L8.1062 29.1884L6.62956 29.7461C6.54276 29.7925 6.45807 29.841 6.37549 29.8912C5.80745 30.2367 5.81768 31.0668 6.38612 31.4116L19.203 39.1865C19.6932 39.484 20.3083 39.484 20.7985 39.1865L33.615 31.4118C34.1854 31.066 34.192 30.2347 33.6217 29.8886Z" fill="#FFDD40"/>
<path d="M12.1591 31.9884L8.10575 29.1886L6.62911 29.7463C6.54231 29.7927 6.4577 29.8412 6.37505 29.8914C5.807 30.2369 5.81715 31.067 6.38559 31.4118L10.9043 34.153C10.93 34.088 10.9418 34.0173 10.939 33.9459C10.9101 33.21 11.4294 32.5495 12.1591 31.9884Z" fill="#FFB332"/>
<path d="M20.7513 33.6627C20.3791 34.1698 19.6217 34.1698 19.2494 33.6627L14.2593 26.8644L7.96631 29.2413L19.2664 37.0466C19.7081 37.3518 20.2926 37.3518 20.7344 37.0466L32.0745 29.2137L25.7415 26.8645L20.7513 33.6627Z" fill="#FFB332"/>
<path d="M12.0583 32.0678C13.3718 31.0114 15.4615 30.292 16.1847 30.0635C16.2978 30.0277 16.3926 29.9522 16.4534 29.8535L14.2593 26.8645L7.96631 29.2414L12.0583 32.0678Z" fill="#FF9100"/>
<path d="M31.6723 5.07713L21.0232 0.222363C20.3729 -0.0741211 19.6259 -0.0741211 18.9756 0.222363L8.32656 5.07713C7.33906 5.52728 7.33906 6.9301 8.32656 7.38033L12.4062 9.24018V8.13096C12.4062 7.63127 13.2074 7.09939 14.5496 6.70822C17.5572 5.83166 22.4433 5.83205 25.4494 6.70822C26.7916 7.09947 27.5928 7.63127 27.5928 8.13096V9.24018L31.6724 7.38033C32.6598 6.9301 32.6598 5.52728 31.6723 5.07713Z" fill="#3C58A0"/>
<path d="M8.32656 5.07727C7.33906 5.52742 7.33906 6.93031 8.32656 7.38047L12.4061 9.24031V8.13109C12.4061 7.63141 13.2073 7.09953 14.5495 6.70836C15.8971 6.31555 17.622 6.09945 19.3858 6.05875C19.707 5.92195 19.9995 5.86297 19.9995 5.86297C15.704 3.58242 18.9756 0.222656 18.9756 0.222656L8.32656 5.07727Z" fill="#2A428C"/>
<path d="M20.0007 5.86279C15.7029 5.86279 12.2188 6.87826 12.2188 8.13092V13.4781H12.2592C12.6589 12.3347 15.9723 11.4426 20.0006 11.4426C24.029 11.4426 27.3424 12.3347 27.742 13.4781H27.7825V8.13092C27.7826 6.87826 24.2985 5.86279 20.0007 5.86279Z" fill="#2A428C"/>
<path d="M20.0007 5.86279C15.7029 5.86279 12.2188 6.87826 12.2188 8.13092V13.4781H12.2592C12.6392 12.3911 15.6534 11.5318 19.4112 11.4497V11.449C18.5439 11.1148 18.5614 10.2283 18.5614 10.2283C18.5614 10.2283 18.5614 7.73123 18.5614 6.94146C18.5615 6.15162 20.0007 5.86279 20.0007 5.86279Z" fill="#1C2E7A"/>
<path d="M24.6407 16.4913C24.2291 16.4913 23.8955 16.1577 23.8955 15.7462V12.8306C23.8955 12.419 24.2291 12.0854 24.6407 12.0854C25.0522 12.0854 25.3858 12.419 25.3858 12.8306V15.7462C25.3859 16.1577 25.0522 16.4913 24.6407 16.4913Z" fill="#FFDD40"/>
<path d="M24.6407 12.0854C24.2291 12.0854 23.8955 12.419 23.8955 12.8306V15.0336C23.8955 14.622 24.2292 14.2884 24.6407 14.2884C25.0522 14.2884 25.3858 14.622 25.3858 15.0336V12.8306C25.3859 12.419 25.0522 12.0854 24.6407 12.0854Z" fill="#FFB332"/>
<path d="M24.6409 11.0156C24.3323 11.0156 24.082 10.7654 24.082 10.4567V0.630195C24.082 0.321523 24.3323 0.0712891 24.6409 0.0712891C24.9496 0.0712891 25.1998 0.321523 25.1998 0.630195V10.4568C25.1998 10.7654 24.9496 11.0156 24.6409 11.0156Z" fill="#FFDD40"/>
<path d="M26.1016 11.7046C26.1016 12.5113 25.4476 13.1653 24.6409 13.1653C23.8342 13.1653 23.1802 12.5113 23.1802 11.7046C23.1802 10.8979 23.8342 10.2439 24.6409 10.2439C25.4476 10.2439 26.1016 10.8979 26.1016 11.7046Z" fill="#FFB332"/>
<path d="M24.9334 11.8644C25.2785 11.8644 25.5583 11.5847 25.5583 11.2396C25.5583 10.8945 25.2785 10.6147 24.9334 10.6147C24.5883 10.6147 24.3086 10.8945 24.3086 11.2396C24.3086 11.5847 24.5883 11.8644 24.9334 11.8644Z" fill="#FFDD40"/>
<path d="M30.5461 13.1654C30.2534 17.049 29.7723 19.206 28.4125 21.9905C27.8863 23.0681 28.2867 24.3672 29.3202 24.9756C31.491 26.2537 35.1763 27.9653 38.1269 27.0208C38.7841 25.0873 39.1408 23.015 39.1408 20.8592C39.1408 17.2804 38.1575 13.9316 36.4481 11.0665C34.365 10.4448 30.7941 9.87437 30.5461 13.1654Z" fill="#9BD8F9"/>
<path d="M11.6277 21.9912C10.2678 19.2066 9.78672 17.0496 9.49406 13.166C9.24414 9.84907 5.61891 10.4545 3.54344 11.0819C1.8393 13.9438 0.859375 17.2872 0.859375 20.8599C0.859375 23.0103 1.21414 25.0777 1.86828 27.007C4.82633 27.9836 8.53805 26.2609 10.72 24.9763C11.7534 24.3678 12.1538 23.0688 11.6277 21.9912Z" fill="#9BD8F9"/>
</g>
<defs>
<clipPath id="clip0">
<rect width="40" height="40" fill="white"/>
</clipPath>
</defs>
</svg>
