<svg width="40" height="40" viewBox="0 0 40 40" fill="none" xmlns="http://www.w3.org/2000/svg">
<path d="M6.71789 34.6402C9.17578 37.0097 12.2655 38.7282 15.71 39.517L25.1071 39.3099C28.2234 38.4493 31.0205 36.8208 33.2825 34.6402L36.1738 31.0986C38.0524 28.1374 39.141 24.6257 39.141 20.8592C39.141 10.2881 30.5714 1.71838 20.0002 1.71838C9.42906 1.71838 0.859375 10.2881 0.859375 20.8593C0.859375 24.6257 1.94797 28.1375 3.82656 31.0987L6.71789 34.6402Z" fill="#FFDD40"/>
<path d="M6.71848 34.6401H33.2831C34.3814 33.5813 35.3534 32.3927 36.1744 31.0985V21.7185C35.6298 21.28 35.0688 20.7737 34.4894 20.1942C28.8181 14.5228 24.1407 25.5865 14.6895 14.0745C10.5024 8.97438 5.89965 9.5768 3.82715 10.2299V31.0984C4.64824 32.3927 5.6202 33.5813 6.71848 34.6401Z" fill="#E9EFFF"/>
<path d="M8.25133 30.0524C8.25133 30.0524 8.25133 14.8441 8.25133 13.0211C8.25133 11.7237 8.87297 11.0452 9.23133 10.7618C9.36672 10.6548 9.41258 10.4705 9.34609 10.3113C9.3325 10.2788 9.32133 10.2475 9.30906 10.2155C7.02164 9.50066 5.01055 9.85676 3.82617 10.23V31.0986C4.64719 32.3927 5.61922 33.5813 6.7175 34.6401H11.0948C8.08023 33.482 8.25133 30.0524 8.25133 30.0524Z" fill="#D3DCFB"/>
<path d="M14.6885 14.4015C24.1398 25.9135 28.817 14.8498 34.4884 20.5213C35.0678 21.1007 35.6288 21.607 36.1734 22.0455V7.01953H3.82617V10.5569C5.89859 9.90383 10.5013 9.30141 14.6885 14.4015Z" fill="#9BD8F9"/>
<path d="M3.82617 7.01953V10.5569C5.02 10.1807 7.05352 9.82157 9.36344 10.5593C9.38445 10.4791 9.37984 10.392 9.34617 10.3114C8.51531 8.32157 10.0829 7.41219 10.4732 7.22172C10.5312 7.19344 10.5806 7.15133 10.618 7.09875L10.6742 7.01961H3.82617V7.01953Z" fill="#73C3F9"/>
<path d="M33.3238 0H6.6757C5.10844 0 3.82617 1.28227 3.82617 2.84953V4.72555H36.1734V2.84953C36.1734 1.28227 34.8911 0 33.3238 0V0Z" fill="#2A428C"/>
<path d="M12.2497 4.375C11.9673 3.93656 12.1959 3.5443 12.3308 3.37281C12.3839 3.30531 12.4121 3.22195 12.4121 3.13602V1.59203C12.4121 1.50047 12.3777 1.41336 12.3201 1.34211C11.9729 0.911875 12.1154 0.474453 12.258 0.220625C12.2966 0.151797 12.3112 0.0749219 12.3044 0H6.67562C5.10844 0 3.82617 1.28227 3.82617 2.84953V4.72555H12.2888C12.3325 4.61156 12.3184 4.48156 12.2497 4.375Z" fill="#1C2E7A"/>
<path d="M8.23859 2.50998C8.31977 2.00925 7.97965 1.53753 7.47892 1.45635C6.97819 1.37518 6.50647 1.7153 6.42529 2.21603C6.34412 2.71676 6.68424 3.18848 7.18497 3.26966C7.6857 3.35083 8.15742 3.01071 8.23859 2.50998Z" fill="#FF4155"/>
<path d="M10.7912 2.36269C10.7912 2.86995 10.38 3.28128 9.87269 3.28128C9.36535 3.28128 8.9541 2.87003 8.9541 2.36269C8.9541 1.85534 9.36535 1.44409 9.87269 1.44409C10.38 1.44417 10.7912 1.85542 10.7912 2.36269Z" fill="#FFDD40"/>
<path d="M13.322 2.51108C13.4037 2.01035 13.064 1.53822 12.5633 1.45654C12.0625 1.37486 11.5904 1.71457 11.5087 2.2153C11.4271 2.71603 11.7668 3.18816 12.2675 3.26984C12.7682 3.35152 13.2404 3.01181 13.322 2.51108Z" fill="#38C674"/>
<path d="M25.0581 14.4507H14.9427C13.3765 14.4507 12.1069 15.7203 12.1069 17.2865C12.1069 18.8526 13.3765 20.1222 14.9427 20.1222H25.0581C26.6243 20.1222 27.8939 18.8526 27.8939 17.2865C27.8939 15.7203 26.6243 14.4507 25.0581 14.4507Z" fill="#38C674"/>
<path d="M27.4329 18.2472H19.9698C18.8142 18.2472 17.8775 17.3105 17.8775 16.155C17.8775 15.4517 18.2248 14.83 18.7569 14.4507H14.9427C13.3765 14.4507 12.1069 15.7203 12.1069 17.2865C12.1069 18.8526 13.3765 20.1222 14.9427 20.1222H25.0581C26.2951 20.1222 27.3465 19.3299 27.7341 18.2254C27.6357 18.2396 27.5352 18.2472 27.4329 18.2472Z" fill="#24B55E"/>
<path d="M13.1673 4.57361C13.1673 6.01462 11.9991 7.18275 10.5581 7.18275H36.1733V4.57361H13.1673Z" fill="#E9EFFF"/>
<path d="M3.82617 4.57361V7.18283H10.7216C12.1626 7.18283 13.3308 6.01462 13.3308 4.57369H3.82617V4.57361Z" fill="#4FABF7"/>
<path d="M25.0492 23.3412H24.9162C24.1463 23.3412 23.5164 23.9712 23.5164 24.741V23.7991C23.5164 23.051 22.9717 22.394 22.2289 22.3048C21.3435 22.1985 20.5838 22.8951 20.5838 23.7604V23.4646C20.5838 22.7165 20.0391 22.0595 19.2963 21.9703C18.4109 21.8639 17.6511 22.5605 17.6511 23.4258V18.7631C17.6511 18.015 17.1063 17.358 16.3635 17.2688C15.4781 17.1625 14.7184 17.859 14.7184 18.7244V26.5069C14.7184 26.6601 14.5916 26.783 14.4385 26.7774C14.0431 26.763 13.4342 26.7491 12.9427 27.3056C11.8663 28.5243 11.6381 30.2749 12.3666 31.729C13.0532 33.0567 12.132 31.5969 15.3721 35.7816C15.5906 36.0569 15.7096 36.398 15.7096 36.7495V39.517C17.0888 39.8329 18.5247 40.0001 19.9997 40.0001C21.7685 40.0001 23.4807 39.759 25.1066 39.31V36.1591C25.1066 35.1326 26.449 34.1319 26.449 31.3388C26.4491 30.7201 26.4491 26.3488 26.4491 24.7411C26.4491 23.9712 25.8191 23.3412 25.0492 23.3412Z" fill="#F9BA8F"/>
<path d="M15.8422 17.2579H16.5257C16.9183 17.2579 17.2394 17.5791 17.2394 17.9716V19.2554C17.2394 19.648 16.9183 19.9692 16.5257 19.9692H15.8422C15.4496 19.9692 15.1284 19.648 15.1284 19.2554V17.9716C15.1284 17.5791 15.4496 17.2579 15.8422 17.2579Z" fill="#E9EFFF"/>
<path d="M14.0133 29.523C14.4031 29.523 14.7191 29.207 14.7191 28.8172V26.5066C14.7191 26.6599 14.5923 26.7827 14.4392 26.7771C14.1373 26.7661 13.7111 26.7564 13.3076 26.9995V28.8172C13.3076 29.207 13.6236 29.523 14.0133 29.523Z" fill="#FCAD6D"/>
<path d="M25.5639 2.97571H16.3471C16.0087 2.97571 15.7344 2.70141 15.7344 2.36298C15.7344 2.02454 16.0087 1.75024 16.3471 1.75024H25.5639C25.9023 1.75024 26.1766 2.02454 26.1766 2.36298C26.1766 2.70134 25.9022 2.97571 25.5639 2.97571Z" fill="#3C58A0"/>
<path d="M33.0515 2.97571H32.2529C31.9144 2.97571 31.6401 2.70141 31.6401 2.36298C31.6401 2.02454 31.9145 1.75024 32.2529 1.75024H33.0515C33.39 1.75024 33.6643 2.02454 33.6643 2.36298C33.6643 2.70134 33.3899 2.97571 33.0515 2.97571Z" fill="#3C58A0"/>
<path d="M30.2747 2.97571H29.476C29.1376 2.97571 28.8633 2.70141 28.8633 2.36298C28.8633 2.02454 29.1377 1.75024 29.476 1.75024H30.2747C30.6131 1.75024 30.8874 2.02454 30.8874 2.36298C30.8874 2.70134 30.613 2.97571 30.2747 2.97571Z" fill="#3C58A0"/>
<path d="M25.1071 36.1592C20.0631 40.2086 15.71 36.7496 15.71 36.7496V39.5171C17.0893 39.8329 18.5252 40.0001 20.0002 40.0001C21.7689 40.0001 23.4812 39.759 25.1071 39.31V36.1592Z" fill="#FCAD6D"/>
</svg>
