<svg width="40" height="40" viewBox="0 0 40 40" fill="none" xmlns="http://www.w3.org/2000/svg">
<path d="M38.2575 26.6215C38.8309 24.8028 39.1409 22.8672 39.1409 20.859C39.1409 10.2879 30.5713 1.71826 20.0001 1.71826C9.42883 1.71826 0.859375 10.2879 0.859375 20.859C0.859375 22.8672 1.1693 24.8028 1.74281 26.6215H38.2575Z" fill="#FF4155"/>
<path d="M35.6748 12.8528V3.23055C35.6748 1.44633 34.2285 0 32.4443 0H7.55582C5.7716 0 4.3252 1.44633 4.3252 3.23055V12.8528H35.6748Z" fill="#167CC1"/>
<path d="M15.1091 8.14445C12.7686 7.33641 13.4964 5.14555 13.4964 5.14555C13.158 4.80719 13.4964 4.47516 13.4964 4.47516V2.87172C13.1734 2.54875 13.4964 2.20133 13.4964 2.20133C12.1734 1.03609 13.4964 0 13.4964 0H7.55574C5.7716 0 4.3252 1.44633 4.3252 3.23055V12.8528H14.7777L15.1091 8.14445Z" fill="#0E62A8"/>
<path d="M6.52686 34.4533C9.98576 37.8817 14.7454 39.9998 20.0003 39.9998C25.2551 39.9998 30.0148 37.8817 33.4737 34.4533C33.4737 24.7883 33.4737 6.51555 33.4737 4.98242H6.52686V34.4533Z" fill="#73C3F9"/>
<path d="M6.52686 34.4533C8.50959 36.4185 10.9202 37.952 13.6061 38.9041V35.5571C12.0539 34.3494 13.6061 33.1487 13.6061 33.1487C11.3508 31.3554 13.6061 29.5038 13.6061 29.5038L15.1094 8.14437C12.769 7.33633 13.4967 5.14547 13.4967 5.14547C13.4416 5.09039 13.406 5.0357 13.3824 4.98242H6.52686V34.4533Z" fill="#4FABF7"/>
<path d="M34.7352 33.0764H5.26611C6.01354 33.9768 6.84213 34.8072 7.74025 35.5573H17.0976C17.5418 35.5573 17.9521 35.8004 18.1596 36.1932C18.5109 36.8585 19.2095 37.312 20.0142 37.312C20.8188 37.312 21.5174 36.8585 21.8688 36.1932C22.0762 35.8004 22.4866 35.5573 22.9308 35.5573H32.261C33.1592 34.8073 33.9878 33.9769 34.7352 33.0764Z" fill="#FFB332"/>
<path d="M4.1209 11.4393C2.7716 11.5589 1.7041 12.7001 1.7041 14.0792V26.4973C2.2623 28.311 3.08238 30.01 4.1209 31.5495V11.4393Z" fill="#FFB332"/>
<path d="M38.2969 26.4974V14.0793C38.2969 12.7094 37.2438 11.5738 35.9072 11.4415V31.5085C36.9327 29.9797 37.7436 28.295 38.2969 26.4974Z" fill="#FFB332"/>
<path d="M36.0343 31.3151V30.0836C36.0343 30.5253 35.5859 30.8285 35.1777 30.6596C30.3103 28.6443 24.8008 28.7711 20.0142 31.0396V33.1487H34.674C35.1626 32.566 35.6169 31.9538 36.0343 31.3151Z" fill="#D3DCFB"/>
<path d="M4.84981 30.6597C4.44168 30.8287 3.99316 30.5255 3.99316 30.0837V31.3563C4.40316 31.9802 4.8484 32.5787 5.32645 33.1489H20.0133V31.0398C15.2267 28.7712 9.71716 28.6444 4.84981 30.6597Z" fill="#BEC8F7"/>
<path d="M32.4441 2.20129H7.55566C6.98957 2.20129 6.52637 2.6645 6.52637 3.23059V5.14559H33.4733V3.23051C33.4733 2.66442 33.0102 2.20129 32.4441 2.20129Z" fill="#2A428C"/>
<path d="M13.4967 4.47512V2.87168C13.1737 2.54872 13.4967 2.20129 13.4967 2.20129H7.55615C6.99006 2.20129 6.52686 2.6645 6.52686 3.23059V5.14559H13.4967C13.1583 4.80715 13.4967 4.47512 13.4967 4.47512Z" fill="#1C2E7A"/>
<path d="M9.62867 4.24064C9.94171 3.9276 9.94171 3.42006 9.62867 3.10701C9.31562 2.79397 8.80808 2.79397 8.49504 3.10701C8.18199 3.42006 8.18199 3.9276 8.49504 4.24064C8.80808 4.55369 9.31562 4.55369 9.62867 4.24064Z" fill="#FF4155"/>
<path d="M12.0815 3.67342C12.0815 4.11616 11.7226 4.47514 11.2797 4.47514C10.8369 4.47514 10.478 4.11616 10.478 3.67342C10.478 3.23069 10.837 2.8717 11.2797 2.8717C11.7226 2.8717 12.0815 3.23069 12.0815 3.67342Z" fill="#FFDD40"/>
<path d="M13.8066 4.41036C14.2157 4.24077 14.4099 3.77164 14.2403 3.36251C14.0707 2.95339 13.6016 2.7592 13.1924 2.92878C12.7833 3.09837 12.5891 3.5675 12.7587 3.97663C12.9283 4.38575 13.3974 4.57994 13.8066 4.41036Z" fill="#38C674"/>
<path d="M24.9756 4.28474H16.9313C16.5937 4.28474 16.3198 4.01099 16.3198 3.67325C16.3198 3.33552 16.5936 3.06177 16.9313 3.06177H24.9756C25.3133 3.06177 25.5871 3.33552 25.5871 3.67325C25.5871 4.01099 25.3133 4.28474 24.9756 4.28474Z" fill="#3C58A0"/>
<path d="M31.5098 4.28474H30.8127C30.4749 4.28474 30.2012 4.01099 30.2012 3.67325C30.2012 3.33552 30.4749 3.06177 30.8127 3.06177H31.5098C31.8475 3.06177 32.1213 3.33552 32.1213 3.67325C32.1213 4.01099 31.8474 4.28474 31.5098 4.28474Z" fill="#3C58A0"/>
<path d="M29.0868 4.28474H28.3898C28.0521 4.28474 27.7783 4.01099 27.7783 3.67325C27.7783 3.33552 28.0521 3.06177 28.3898 3.06177H29.0868C29.4246 3.06177 29.6983 3.33552 29.6983 3.67325C29.6983 4.01099 29.4246 4.28474 29.0868 4.28474Z" fill="#3C58A0"/>
<path d="M35.6652 9.51618C30.6806 7.28485 24.9613 7.34157 20.0142 9.68625V31.236C24.8008 28.9674 30.3103 28.8407 35.1777 30.8559C35.5858 31.0249 36.0343 30.7217 36.0343 30.28V10.0851C36.0343 9.8393 35.8896 9.61657 35.6652 9.51618Z" fill="#E9EFFF"/>
<path d="M4.36231 9.51618C9.34684 7.28485 15.0661 7.34157 20.0133 9.68625V31.236C15.2267 28.9674 9.71716 28.8407 4.84981 30.8559C4.4416 31.0249 3.99316 30.7217 3.99316 30.28V10.0851C3.99316 9.8393 4.13793 9.61657 4.36231 9.51618Z" fill="#D3DCFB"/>
<path d="M12.0033 26.0099V12.5136C12.0033 10.5007 13.3057 8.77822 15.1089 8.14439C11.5036 7.53744 7.76207 7.994 4.3623 9.51588C4.13801 9.61635 3.99316 9.83908 3.99316 10.0849V30.2798C3.99316 30.7215 4.44168 31.0247 4.8498 30.8557C7.64293 29.6993 10.6475 29.2496 13.6056 29.5038C12.6261 28.6532 12.0033 27.4012 12.0033 26.0099Z" fill="#BEC8F7"/>
<path d="M33.7414 12.8529C33.6794 12.8529 33.6164 12.8434 33.5543 12.8234C33.0312 12.6554 32.4939 12.5097 31.9572 12.3901C31.6276 12.3167 31.4199 11.99 31.4932 11.6604C31.5667 11.3308 31.8932 11.1229 32.223 11.1964C32.7961 11.324 33.3697 11.4797 33.9282 11.659C34.2497 11.7623 34.4266 12.1067 34.3234 12.4282C34.2401 12.6875 33.9999 12.8529 33.7414 12.8529Z" fill="#BEC8F7"/>
<path d="M6.28532 12.8529C6.0268 12.8529 5.78657 12.6876 5.70329 12.4283C5.60001 12.1068 5.77696 11.7624 6.09852 11.6591C6.65696 11.4797 7.23071 11.324 7.80368 11.1965C8.13352 11.1222 8.46008 11.3308 8.53344 11.6605C8.60688 11.9901 8.39915 12.3168 8.06954 12.3902C7.53282 12.5097 6.99548 12.6555 6.47251 12.8235C6.41032 12.8435 6.34727 12.8529 6.28532 12.8529Z" fill="#A8B7EF"/>
<path d="M17.7218 15.3255C17.6599 15.3255 17.5969 15.3161 17.5347 15.2961C13.9158 14.1339 10.0907 14.1337 6.47292 15.2955C6.15135 15.3986 5.80698 15.2218 5.70378 14.9002C5.60049 14.5787 5.77745 14.2344 6.09901 14.1311C9.96143 12.8906 14.0452 12.8909 17.9087 14.1317C18.2302 14.235 18.4071 14.5793 18.3039 14.9009C18.2206 15.1602 17.9803 15.3255 17.7218 15.3255Z" fill="#A8B7EF"/>
<path d="M22.3058 15.3254C22.0473 15.3254 21.8071 15.1601 21.7238 14.9007C21.6205 14.5792 21.7975 14.2348 22.119 14.1316C25.9825 12.8909 30.0662 12.8905 33.9286 14.1309C34.2501 14.2342 34.4271 14.5786 34.3239 14.9001C34.2206 15.2216 33.8761 15.3985 33.5547 15.2953C29.9369 14.1336 26.1118 14.1337 22.4929 15.2959C22.4308 15.3159 22.3679 15.3254 22.3058 15.3254Z" fill="#BEC8F7"/>
<path d="M17.7218 17.7968C17.6599 17.7968 17.5969 17.7874 17.5347 17.7674C13.9159 16.605 10.0907 16.605 6.47292 17.7667C6.15151 17.8702 5.80698 17.6929 5.70378 17.3714C5.60049 17.05 5.77745 16.7056 6.09901 16.6023C9.96135 15.3618 14.0452 15.3621 17.9087 16.603C18.2303 16.7063 18.4071 17.0507 18.3039 17.3721C18.2206 17.6315 17.9803 17.7968 17.7218 17.7968Z" fill="#A8B7EF"/>
<path d="M22.3058 17.7973C22.0473 17.7973 21.8071 17.632 21.7238 17.3726C21.6205 17.0511 21.7975 16.7067 22.119 16.6035C25.9826 15.3625 30.0664 15.3624 33.9286 16.6028C34.2501 16.706 34.4271 17.0503 34.3239 17.3719C34.2206 17.6935 33.8761 17.8705 33.5547 17.7671C29.937 16.6054 26.1118 16.6056 22.4929 17.7678C22.4308 17.7878 22.3679 17.7973 22.3058 17.7973Z" fill="#BEC8F7"/>
<path d="M17.7218 20.269C17.6599 20.269 17.5969 20.2595 17.5347 20.2395C13.9158 19.0773 10.0907 19.0772 6.47292 20.2389C6.15135 20.3423 5.80698 20.1652 5.70378 19.8437C5.60049 19.5222 5.77745 19.1778 6.09901 19.0745C9.96143 17.8341 14.0452 17.8344 17.9087 19.0751C18.2302 19.1784 18.4071 19.5228 18.3039 19.8443C18.2206 20.1037 17.9803 20.269 17.7218 20.269Z" fill="#A8B7EF"/>
<path d="M22.3058 20.269C22.0472 20.269 21.8071 20.1037 21.7238 19.8443C21.6205 19.5228 21.7975 19.1784 22.119 19.0751C25.9827 17.8344 30.0664 17.8341 33.9286 19.0745C34.2501 19.1778 34.4271 19.5222 34.3239 19.8437C34.2206 20.1652 33.8761 20.3423 33.5547 20.2389C29.9371 19.077 26.1119 19.0773 22.4929 20.2395C22.4308 20.2595 22.3678 20.269 22.3058 20.269Z" fill="#BEC8F7"/>
<path d="M17.7213 22.7404C17.6594 22.7404 17.5964 22.731 17.5342 22.711C13.9153 21.5487 10.0902 21.5485 6.47243 22.7103C6.15087 22.8133 5.80649 22.6365 5.70329 22.315C5.60001 21.9936 5.77696 21.6492 6.09852 21.5459C9.96087 20.3054 14.0447 20.3057 17.9082 21.5466C18.2298 21.6499 18.4066 21.9943 18.3034 22.3157C18.2202 22.5751 17.9799 22.7404 17.7213 22.7404Z" fill="#A8B7EF"/>
<path d="M22.3058 22.7409C22.0473 22.7409 21.8071 22.5756 21.7238 22.3162C21.6205 21.9947 21.7975 21.6503 22.119 21.547C25.9826 20.3062 30.0663 20.3059 33.9286 21.5463C34.2501 21.6496 34.4271 21.994 34.3239 22.3155C34.2206 22.6371 33.8761 22.8138 33.5547 22.7107C29.9371 21.5489 26.1119 21.5491 22.4929 22.7114C22.4308 22.7313 22.3679 22.7409 22.3058 22.7409Z" fill="#BEC8F7"/>
<path d="M17.7218 25.212C17.6599 25.212 17.5969 25.2025 17.5347 25.1825C13.9158 24.0203 10.0907 24.0202 6.47292 25.1819C6.15135 25.285 5.80698 25.1081 5.70378 24.7867C5.60049 24.4652 5.77745 24.1208 6.09901 24.0175C9.96143 22.7771 14.0452 22.7774 17.9087 24.0181C18.2302 24.1214 18.4071 24.4658 18.3039 24.7873C18.2206 25.0467 17.9803 25.212 17.7218 25.212Z" fill="#A8B7EF"/>
<path d="M22.3058 25.212C22.0472 25.212 21.8071 25.0466 21.7238 24.7873C21.6205 24.4658 21.7975 24.1214 22.119 24.0181C25.9827 22.7774 30.0664 22.7771 33.9286 24.0175C34.2501 24.1208 34.4271 24.4652 34.3239 24.7866C34.2206 25.1082 33.8761 25.2851 33.5547 25.1819C29.9371 24.0201 26.1119 24.0202 22.4929 25.1825C22.4308 25.2025 22.3678 25.212 22.3058 25.212Z" fill="#BEC8F7"/>
<path d="M17.7218 27.684C17.6599 27.684 17.5969 27.6746 17.5347 27.6546C13.9159 26.4923 10.0907 26.4921 6.47292 27.6539C6.15151 27.7575 5.80698 27.5802 5.70378 27.2586C5.60049 26.9372 5.77745 26.5928 6.09901 26.4895C9.96135 25.2491 14.0452 25.2492 17.9087 26.4902C18.2303 26.5935 18.4071 26.9379 18.3039 27.2593C18.2206 27.5188 17.9803 27.684 17.7218 27.684Z" fill="#A8B7EF"/>
<path d="M22.3058 27.6837C22.0473 27.6837 21.8071 27.5184 21.7238 27.2591C21.6205 26.9376 21.7975 26.5932 22.119 26.4899C25.9826 25.249 30.0664 25.2488 33.9286 26.4892C34.2501 26.5925 34.4271 26.9369 34.3239 27.2584C34.2206 27.5799 33.8761 27.7569 33.5547 27.6536C29.937 26.4919 26.1118 26.4921 22.4929 27.6543C22.4308 27.6743 22.3679 27.6837 22.3058 27.6837Z" fill="#BEC8F7"/>
</svg>
